NotoSans-Black (Autosaved).glyphspackage
{
glyphname = exclam;
layers = (
{
layerId = m01;
shapes = (
{
closed = 1;
nodes = (
(40,714,l),
(65,252,l),
(226,252,l),
(251,714,l)
);
},
{
closed = 1;
nodes = (
(103,-12,o),
(145,-12,qs),
(186,-12,o),
(246,32,o),
(246,81,qs),
(246,133,o),
(186,175,o),
(145,175,qs),
(103,175,o),
(42,133,o),
(42,81,qs),
(42,32,o)
);
}
);
width = 290;
}
);
note = exclam;
unicode = 33;
}
{
glyphname = quotedbl;
kernLeft = quotedbl;
kernRight = quotedbl;
layers = (
{
layerId = m01;
shapes = (
{
closed = 1;
nodes = (
(79,456,l),
(213,456,l),
(233,714,l),
(59,714,l)
);
},
{
closed = 1;
nodes = (
(311,456,l),
(445,456,l),
(465,714,l),
(291,714,l)
);
}
);
width = 524;
}
);
note = quotedbl;
unicode = 34;
}
{
glyphname = numbersign;
layers = (
{
layerId = m01;
shapes = (
{
closed = 1;
nodes = (
(644,524,l),
(532,524,l),
(568,714,l),
(437,714,l),
(402,524,l),
(321,524,l),
(357,714,l),
(226,714,l),
(191,524,l),
(51,524,l),
(51,397,l),
(167,397,l),
(152,315,l),
(18,315,l),
(18,191,l),
(128,191,l),
(93,0,l),
(223,0,l),
(258,191,l),
(340,191,l),
(304,0,l),
(435,0,l),
(471,191,l),
(613,191,l),
(613,315,l),
(494,315,l),
(509,397,l),
(644,397,l)
);
},
{
closed = 1;
nodes = (
(378,397,l),
(363,315,l),
(282,315,l),
(297,397,l)
);
}
);
width = 662;
}
);
note = numbersign;
unicode = 35;
}
{
glyphname = dollar;
layers = (
{
layerId = m01;
shapes = (
{
closed = 1;
nodes = (
(334,-58,l),
(334,24,l),
(448,36,o),
(554,149,o),
(554,230,qs),
(554,289,o),
(502,362,o),
(404,409,o),
(334,430,q),
(334,551,l),
(374,547,o),
(455,528,o),
(492,512,q),
(535,646,l),
(495,663,o),
(395,689,o),
(334,692,q),
(334,760,l),
(242,760,l),
(242,691,l),
(145,684,o),
(26,593,o),
(26,502,qs),
(26,438,o),
(82,357,o),
(180,307,o),
(242,289,q),
(242,166,l),
(196,170,o),
(89,195,o),
(42,216,q),
(42,63,l),
(84,45,o),
(178,24,o),
(242,22,q),
(242,-58,l)
);
},
{
closed = 1;
nodes = (
(212,467,o),
(187,490,o),
(187,509,qs),
(187,545,o),
(242,550,q),
(242,457,l)
);
},
{
closed = 1;
nodes = (
(367,256,o),
(391,233,o),
(391,214,qs),
(391,177,o),
(334,168,q),
(334,266,l)
);
}
);
width = 577;
}
);
note = dollar;
unicode = 36;
}
{
glyphname = percent;
layers = (
{
layerId = m01;
shapes = (
{
closed = 1;
nodes = (
(18,607,o),
(18,501,qs),
(18,395,o),
(118,276,o),
(200,276,qs),
(291,276,o),
(386,395,o),
(386,501,qs),
(386,607,o),
(284,724,o),
(200,724,qs),
(112,724,o)
);
},
{
closed = 1;
nodes = (
(201,0,l),
(346,0,l),
(742,714,l),
(597,714,l)
);
},
{
closed = 1;
nodes = (
(239,548,o),
(239,499,qs),
(239,450,o),
(223,393,o),
(202,393,qs),
(181,393,o),
(165,451,o),
(165,499,qs),
(165,548,o),
(181,605,o),
(202,605,qs),
(223,605,o)
);
},
{
closed = 1;
nodes = (
(561,323,o),
(561,217,qs),
(561,111,o),
(661,-8,o),
(743,-8,qs),
(834,-8,o),
(929,111,o),
(929,217,qs),
(929,323,o),
(827,440,o),
(743,440,qs),
(655,440,o)
);
},
{
closed = 1;
nodes = (
(782,265,o),
(782,215,qs),
(782,166,o),
(766,109,o),
(745,109,qs),
(724,109,o),
(708,167,o),
(708,215,qs),
(708,264,o),
(724,321,o),
(745,321,qs),
(766,321,o)
);
}
);
width = 948;
}
);
note = percent;
unicode = 37;
}
{
glyphname = ampersand;
layers = (
{
layerId = m01;
shapes = (
{
closed = 1;
nodes = (
(104,627,o),
(104,553,qs),
(104,505,o),
(138,429,o),
(168,394,q),
(104,361,o),
(35,262,o),
(35,198,qs),
(35,141,o),
(95,46,o),
(211,-10,o),
(294,-10,qs),
(354,-10,o),
(429,6,o),
(482,33,o),
(509,50,q),
(557,0,l),
(804,0,l),
(648,150,l),
(685,194,o),
(749,328,o),
(765,401,q),
(567,401,l),
(552,329,o),
(516,274,q),
(419,366,l),
(476,401,o),
(548,491,o),
(548,553,qs),
(548,633,o),
(431,723,o),
(330,723,qs),
(219,723,o)
);
},
{
closed = 1;
nodes = (
(376,577,o),
(376,553,qs),
(376,531,o),
(347,487,o),
(319,471,q),
(302,487,o),
(276,525,o),
(276,547,qs),
(276,574,o),
(307,598,o),
(327,598,qs),
(348,598,o)
);
},
{
closed = 1;
nodes = (
(382,157,o),
(340,142,o),
(312,142,qs),
(276,142,o),
(232,181,o),
(232,212,qs),
(232,235,o),
(251,273,o),
(272,289,q),
(393,166,l)
);
}
);
width = 799;
}
);
note = ampersand;
unicode = 38;
}
{
glyphname = quotesingle;
kernLeft = quotedbl;
kernRight = quotedbl;
layers = (
{
layerId = m01;
shapes = (
{
closed = 1;
nodes = (
(79,456,l),
(213,456,l),
(233,714,l),
(59,714,l)
);
}
);
width = 292;
}
);
note = quotesingle;
unicode = 39;
}
{
glyphname = parenleft;
layers = (
{
layerId = m01;
shapes = (
{
closed = 1;
nodes = (
(62,45,o),
(123,-99,o),
(173,-158,q),
(331,-158,l),
(287,-97,o),
(230,50,o),
(204,208,o),
(204,285,qs),
(204,404,o),
(265,640,o),
(332,734,q),
(173,734,l),
(123,674,o),
(62,527,o),
(36,366,o),
(36,284,qs),
(36,204,o)
);
}
);
width = 359;
}
);
note = parenleft;
unicode = 40;
}
{
glyphname = parenright;
kernLeft = parenright;
layers = (
{
layerId = m01;
shapes = (
{
closed = 1;
nodes = (
(297,527,o),
(237,674,o),
(186,734,q),
(27,734,l),
(95,640,o),
(155,404,o),
(155,285,qs),
(155,208,o),
(129,50,o),
(73,-97,o),
(28,-158,q),
(186,-158,l),
(237,-99,o),
(297,45,o),
(323,204,o),
(323,284,qs),
(323,366,o)
);
}
);
width = 359;
}
);
note = parenright;
unicode = 41;
}
{
glyphname = asterisk;
layers = (
{
layerId = m01;
shapes = (
{
closed = 1;
nodes = (
(214,588,l),
(44,637,l),
(22,495,l),
(175,483,l),
(74,347,l),
(207,281,l),
(267,418,l),
(337,280,l),
(464,347,l),
(363,483,l),
(516,493,l),
(498,637,l),
(324,588,l),
(343,760,l),
(195,760,l)
);
}
);
width = 537;
}
);
note = asterisk;
unicode = 42;
}
{
glyphname = plus;
layers = (
{
layerId = m01;
shapes = (
{
closed = 1;
nodes = (
(227,597,l),
(227,418,l),
(45,418,l),
(45,287,l),
(227,287,l),
(227,111,l),
(358,111,l),
(358,287,l),
(540,287,l),
(540,418,l),
(358,418,l),
(358,597,l)
);
}
);
width = 586;
}
);
note = plus;
unicode = 43;
}
{
glyphname = comma;
kernLeft = comma;
kernRight = comma;
layers = (
{
layerId = m01;
shapes = (
{
closed = 1;
nodes = (
(76,146,l),
(72,106,o),
(56,8,o),
(38,-93,o),
(28,-139,q),
(164,-139,l),
(181,-102,o),
(213,-1,o),
(241,99,o),
(250,135,q),
(243,146,l)
);
}
);
width = 309;
}
);
note = comma;
unicode = 44;
}
{
glyphname = hyphen;
kernLeft = hyphen;
kernRight = hyphen;
layers = (
{
layerId = m01;
shapes = (
{
closed = 1;
nodes = (
(297,344,l),
(21,344,l),
(21,192,l),
(297,192,l)
);
}
);
width = 318;
}
);
note = hyphen;
unicode = 45;
}
{
glyphname = period;
kernLeft = comma;
kernRight = comma;
layers = (
{
layerId = m01;
shapes = (
{
closed = 1;
nodes = (
(103,-12,o),
(146,-12,qs),
(187,-12,o),
(246,32,o),
(246,81,qs),
(246,133,o),
(187,175,o),
(146,175,qs),
(103,175,o),
(42,133,o),
(42,81,qs),
(42,32,o)
);
}
);
width = 289;
}
);
note = period;
unicode = 46;
}
{
glyphname = slash;
layers = (
{
layerId = m01;
shapes = (
{
closed = 1;
nodes = (
(5,-10,l),
(174,-10,l),
(440,724,l),
(271,724,l)
);
}
);
width = 442;
}
);
note = slash;
unicode = (47,8725);
}
{
glyphname = zero;
layers = (
{
layerId = m01;
shapes = (
{
closed = 1;
nodes = (
(427,724,o),
(293,724,qs),
(198,724,o),
(84,636,o),
(35,472,o),
(35,356,qs),
(35,184,o),
(159,-10,o),
(293,-10,qs),
(389,-10,o),
(502,78,o),
(551,242,o),
(551,356,qs),
(551,530,o)
);
},
{
closed = 1;
nodes = (
(253,570,o),
(293,570,qs),
(333,570,o),
(359,462,o),
(359,356,qs),
(359,250,o),
(333,144,o),
(293,144,qs),
(253,144,o),
(227,251,o),
(227,356,qs),
(227,462,o)
);
}
);
width = 586;
}
);
note = zero;
unicode = 48;
}
{
glyphname = one;
layers = (
{
layerId = m01;
shapes = (
{
closed = 1;
nodes = (
(286,714,l),
(41,514,l),
(141,391,l),
(222,458,ls),
(233,467,o),
(254,489,o),
(267,504,q),
(266,479,o),
(264,415,o),
(264,363,o),
(264,353,qs),
(264,0,l),
(460,0,l),
(460,714,l)
);
}
);
width = 586;
}
);
note = one;
unicode = 49;
}
{
glyphname = two;
layers = (
{
layerId = m01;
shapes = (
{
closed = 1;
nodes = (
(278,159,l),
(278,164,l),
(330,211,ls),
(398,273,o),
(489,370,o),
(534,467,o),
(534,529,qs),
(534,585,o),
(475,673,o),
(369,724,o),
(296,724,qs),
(225,724,o),
(127,691,o),
(54,639,o),
(22,610,q),
(128,486,l),
(172,524,o),
(240,562,o),
(274,562,qs),
(302,562,o),
(343,534,o),
(343,502,qs),
(343,476,o),
(319,428,o),
(258,360,o),
(204,303,qs),
(30,127,l),
(30,0,l),
(548,0,l),
(548,159,l)
);
}
);
width = 586;
}
);
note = two;
unicode = 50;
}
{
glyphname = three;
layers = (
{
layerId = m01;
shapes = (
{
closed = 1;
nodes = (
(397,724,o),
(287,724,qs),
(194,724,o),
(79,682,o),
(35,652,q),
(115,523,l),
(126,530,o),
(168,551,o),
(225,569,o),
(257,569,qs),
(293,569,o),
(337,542,o),
(337,513,qs),
(337,480,o),
(272,438,o),
(190,438,qs),
(145,438,l),
(145,293,l),
(189,293,ls),
(251,293,o),
(316,275,o),
(341,240,o),
(341,216,qs),
(341,182,o),
(290,142,o),
(219,142,qs),
(179,142,o),
(81,165,o),
(34,189,q),
(34,29,l),
(80,11,o),
(178,-10,o),
(247,-10,qs),
(351,-10,o),
(482,48,o),
(545,146,o),
(545,204,qs),
(545,280,o),
(452,363,o),
(366,373,q),
(366,376,l),
(409,388,o),
(480,435,o),
(524,508,o),
(524,559,qs),
(524,636,o)
);
}
);
width = 586;
}
);
note = three;
unicode = 51;
}
{
glyphname = four;
layers = (
{
layerId = m01;
shapes = (
{
closed = 1;
nodes = (
(492,282,l),
(492,714,l),
(314,714,l),
(17,280,l),
(17,138,l),
(302,138,l),
(302,0,l),
(492,0,l),
(492,138,l),
(571,138,l),
(571,282,l)
);
},
{
closed = 1;
nodes = (
(184,282,l),
(263,400,ls),
(276,420,o),
(291,448,o),
(301,470,q),
(306,470,l),
(306,469,o),
(304,429,o),
(302,380,o),
(302,365,qs),
(302,282,l)
);
}
);
width = 586;
}
);
note = four;
unicode = 52;
}
{
glyphname = five;
layers = (
{
layerId = m01;
shapes = (
{
closed = 1;
nodes = (
(256,462,o),
(240,459,q),
(249,553,l),
(492,553,l),
(492,714,l),
(85,714,l),
(58,337,l),
(129,302,l),
(149,308,o),
(200,319,o),
(227,319,qs),
(286,319,o),
(345,273,o),
(345,232,qs),
(345,188,o),
(287,142,o),
(234,142,qs),
(190,142,o),
(84,170,o),
(46,187,q),
(46,29,l),
(126,-10,o),
(250,-10,qs),
(396,-10,o),
(540,118,o),
(540,238,qs),
(540,312,o),
(482,414,o),
(384,468,o),
(324,468,qs),
(289,468,o)
);
}
);
width = 586;
}
);
note = five;
unicode = 53;
}
{
glyphname = six;
layers = (
{
layerId = m01;
shapes = (
{
closed = 1;
nodes = (
(105,57,o),
(227,-10,o),
(303,-10,qs),
(420,-10,o),
(555,124,o),
(555,244,qs),
(555,355,o),
(449,476,o),
(355,476,qs),
(298,476,o),
(233,428,o),
(214,393,q),
(208,393,l),
(211,450,o),
(248,531,o),
(332,574,o),
(404,574,qs),
(440,574,o),
(490,569,o),
(510,565,q),
(510,716,l),
(490,719,o),
(429,724,o),
(408,724,qs),
(313,724,o),
(182,676,o),
(98,593,o),
(52,485,o),
(34,363,o),
(34,302,qs),
(34,195,o)
);
},
{
closed = 1;
nodes = (
(241,175,o),
(226,225,o),
(226,250,qs),
(226,279,o),
(265,327,o),
(301,327,qs),
(336,327,o),
(368,281,o),
(368,240,qs),
(368,190,o),
(330,143,o),
(299,143,qs),
(274,143,o)
);
}
);
width = 586;
}
);
note = six;
unicode = 54;
}
{
glyphname = seven;
layers = (
{
layerId = m01;
shapes = (
{
closed = 1;
nodes = (
(553,600,l),
(553,714,l),
(38,714,l),
(38,554,l),
(347,554,l),
(102,0,l),
(302,0,l)
);
}
);
width = 586;
}
);
note = seven;
unicode = 55;
}
{
glyphname = eight;
layers = (
{
layerId = m01;
shapes = (
{
closed = 1;
nodes = (
(116,685,o),
(54,609,o),
(54,551,qs),
(54,489,o),
(118,403,o),
(163,373,q),
(107,345,o),
(33,262,o),
(33,188,qs),
(33,100,o),
(157,-10,o),
(293,-10,qs),
(383,-10,o),
(498,42,o),
(554,133,o),
(554,190,qs),
(554,237,o),
(510,306,o),
(444,357,o),
(410,376,q),
(464,402,o),
(533,486,o),
(533,550,qs),
(533,638,o),
(401,724,o),
(295,724,qs),
(225,724,o)
);
},
{
closed = 1;
nodes = (
(352,557,o),
(352,533,qs),
(352,505,o),
(313,471,o),
(292,459,q),
(268,473,o),
(235,510,o),
(235,533,qs),
(235,557,o),
(270,585,o),
(294,585,qs),
(317,585,o)
);
},
{
closed = 1;
nodes = (
(258,274,o),
(291,291,q),
(304,283,ls),
(317,276,o),
(351,250,o),
(377,214,o),
(377,192,qs),
(377,163,o),
(335,129,o),
(291,129,qs),
(253,129,o),
(210,166,o),
(210,196,qs),
(210,228,o)
);
}
);
width = 586;
}
);
note = eight;
unicode = 56;
}
{
glyphname = nine;
layers = (
{
layerId = m01;
shapes = (
{
closed = 1;
nodes = (
(480,656,o),
(359,724,o),
(284,724,qs),
(166,724,o),
(31,590,o),
(31,471,qs),
(31,359,o),
(138,238,o),
(228,238,qs),
(289,238,o),
(353,285,o),
(372,321,q),
(378,321,l),
(375,268,o),
(339,186,o),
(251,140,o),
(170,140,qs),
(142,140,o),
(100,144,o),
(79,148,q),
(79,-5,l),
(99,-8,o),
(157,-10,o),
(179,-10,qs),
(312,-10,o),
(476,89,o),
(552,274,o),
(552,401,qs),
(552,514,o)
);
},
{
closed = 1;
nodes = (
(345,538,o),
(360,490,o),
(360,464,qs),
(360,436,o),
(319,386,o),
(287,386,qs),
(253,386,o),
(218,433,o),
(218,473,qs),
(218,524,o),
(255,570,o),
(289,570,qs),
(314,570,o)
);
}
);
width = 586;
}
);
note = nine;
unicode = 57;
}
{
glyphname = colon;
layers = (
{
layerId = m01;
shapes = (
{
closed = 1;
nodes = (
(103,373,o),
(146,373,qs),
(187,373,o),
(246,417,o),
(246,467,qs),
(246,518,o),
(187,560,o),
(146,560,qs),
(103,560,o),
(42,518,o),
(42,467,qs),
(42,417,o)
);
},
{
closed = 1;
nodes = (
(103,-12,o),
(146,-12,qs),
(187,-12,o),
(246,32,o),
(246,81,qs),
(246,133,o),
(187,175,o),
(146,175,qs),
(103,175,o),
(42,133,o),
(42,81,qs),
(42,32,o)
);
}
);
width = 289;
}
);
note = colon;
unicode = 58;
}
{
glyphname = semicolon;
layers = (
{
layerId = m01;
shapes = (
{
closed = 1;
nodes = (
(105,373,o),
(148,373,qs),
(189,373,o),
(249,417,o),
(249,467,qs),
(249,518,o),
(189,560,o),
(148,560,qs),
(105,560,o),
(45,518,o),
(45,467,qs),
(45,417,o)
);
},
{
closed = 1;
nodes = (
(76,146,l),
(72,106,o),
(56,8,o),
(38,-93,o),
(28,-139,q),
(164,-139,l),
(181,-102,o),
(213,-1,o),
(241,99,o),
(250,135,q),
(243,146,l)
);
}
);
width = 297;
}
);
note = semicolon;
unicode = 59;
}
{
glyphname = less;
layers = (
{
layerId = m01;
shapes = (
{
closed = 1;
nodes = (
(236,354,l),
(539,492,l),
(539,637,l),
(45,390,l),
(45,306,l),
(539,87,l),
(539,231,l)
);
}
);
width = 586;
}
);
note = less;
unicode = 60;
}
{
glyphname = equal;
layers = (
{
layerId = m01;
shapes = (
{
closed = 1;
nodes = (
(541,529,l),
(45,529,l),
(45,398,l),
(541,398,l)
);
},
{
closed = 1;
nodes = (
(541,307,l),
(45,307,l),
(45,175,l),
(541,175,l)
);
}
);
width = 586;
}
);
note = equal;
unicode = 61;
}
{
glyphname = greater;
layers = (
{
layerId = m01;
shapes = (
{
closed = 1;
nodes = (
(539,306,l),
(539,390,l),
(45,637,l),
(45,492,l),
(348,354,l),
(45,231,l),
(45,87,l)
);
}
);
width = 586;
}
);
note = greater;
unicode = 62;
}
{
glyphname = question;
layers = (
{
layerId = m01;
shapes = (
{
closed = 1;
nodes = (
(294,252,l),
(294,277,ls),
(294,300,o),
(327,334,o),
(371,362,qs),
(433,402,o),
(487,488,o),
(487,546,qs),
(487,626,o),
(365,724,o),
(254,724,qs),
(181,724,o),
(55,687,o),
(0,655,q),
(68,522,l),
(167,574,o),
(240,574,qs),
(270,574,o),
(307,550,o),
(307,530,qs),
(307,517,o),
(298,491,o),
(266,460,o),
(233,439,qs),
(181,406,o),
(144,339,o),
(144,294,qs),
(144,252,l)
);
},
{
closed = 1;
nodes = (
(183,-12,o),
(226,-12,qs),
(267,-12,o),
(327,32,o),
(327,81,qs),
(327,133,o),
(267,175,o),
(226,175,qs),
(183,175,o),
(123,133,o),
(123,81,qs),
(123,32,o)
);
}
);
width = 505;
}
);
note = question;
unicode = 63;
}
{
glyphname = at;
layers = (
{
layerId = m01;
shapes = (
{
closed = 1;
nodes = (
(761,637,o),
(589,723,o),
(473,723,qs),
(374,723,o),
(214,658,o),
(101,543,o),
(40,388,o),
(40,298,qs),
(40,183,o),
(136,15,o),
(318,-75,o),
(446,-75,qs),
(513,-75,o),
(638,-51,o),
(690,-29,q),
(690,83,l),
(630,61,o),
(495,36,o),
(439,36,qs),
(306,36,o),
(173,178,o),
(173,296,qs),
(173,389,o),
(241,532,o),
(376,614,o),
(475,614,qs),
(601,614,o),
(728,482,o),
(728,370,qs),
(728,330,o),
(714,261,o),
(689,220,o),
(671,220,qs),
(661,220,o),
(647,239,o),
(647,262,qs),
(647,276,o),
(648,303,o),
(648,308,qs),
(658,514,l),
(627,525,o),
(533,544,o),
(484,544,qs),
(403,544,o),
(291,483,o),
(234,378,o),
(234,312,qs),
(234,223,o),
(326,114,o),
(419,114,qs),
(460,114,o),
(524,147,o),
(546,172,q),
(553,172,l),
(572,144,o),
(636,114,o),
(672,114,qs),
(717,114,o),
(786,158,o),
(833,231,o),
(857,322,o),
(857,369,qs),
(857,479,o)
);
},
{
closed = 1;
nodes = (
(426,437,o),
(486,437,qs),
(495,437,o),
(509,436,o),
(519,434,q),
(514,358,ls),
(510,285,o),
(476,220,o),
(436,220,qs),
(407,220,o),
(371,264,o),
(371,313,qs),
(371,363,o)
);
}
);
width = 897;
}
);
note = at;
unicode = 64;
}
{
glyphname = A;
kernLeft = A;
kernRight = A;
layers = (
{
layerId = m01;
shapes = (
{
closed = 1;
nodes = (
(490,717,l),
(233,717,l),
(0,0,l),
(212,0,l),
(248,134,l),
(480,134,l),
(515,0,l),
(726,0,l)
);
},
{
closed = 1;
nodes = (
(288,292,l),
(319,409,ls),
(325,433,o),
(342,503,o),
(359,575,o),
(363,599,q),
(368,575,o),
(386,499,o),
(404,428,o),
(409,409,qs),
(440,292,l)
);
}
);
width = 726;
}
);
note = A;
unicode = 65;
}
{
glyphname = C;
kernLeft = C;
kernRight = C;
layers = (
{
layerId = m01;
shapes = (
{
closed = 1;
nodes = (
(520,541,o),
(559,522,q),
(618,674,l),
(563,700,o),
(449,724,o),
(397,724,qs),
(286,724,o),
(131,629,o),
(51,463,o),
(51,355,qs),
(51,247,o),
(121,82,o),
(269,-10,o),
(385,-10,qs),
(441,-10,o),
(540,9,o),
(587,30,q),
(587,193,l),
(542,174,o),
(453,148,o),
(406,148,qs),
(327,148,o),
(249,253,o),
(249,354,qs),
(249,454,o),
(327,566,o),
(395,566,qs),
(440,566,o)
);
}
);
width = 649;
}
);
note = C;
unicode = 67;
}
{
glyphname = D;
kernRight = D;
layers = (
{
layerId = m01;
shapes = (
{
closed = 1;
nodes = (
(497,714,o),
(324,714,qs),
(77,714,l),
(77,0,l),
(308,0,ls),
(422,0,o),
(590,82,o),
(683,248,o),
(683,372,qs),
(683,538,o)
);
},
{
closed = 1;
nodes = (
(401,158,o),
(313,158,qs),
(270,158,l),
(270,558,l),
(326,558,ls),
(483,558,o),
(483,365,qs),
(483,260,o)
);
}
);
width = 734;
}
);
note = D;
unicode = 68;
}
{
glyphname = E;
kernRight = E;
layers = (
{
layerId = m01;
shapes = (
{
closed = 1;
nodes = (
(270,157,l),
(270,292,l),
(484,292,l),
(484,447,l),
(270,447,l),
(270,559,l),
(501,559,l),
(501,714,l),
(77,714,l),
(77,0,l),
(501,0,l),
(501,157,l)
);
}
);
width = 549;
}
);
note = E;
unicode = 69;
}
{
glyphname = F;
layers = (
{
layerId = m01;
shapes = (
{
closed = 1;
nodes = (
(481,268,l),
(481,423,l),
(267,423,l),
(267,559,l),
(499,559,l),
(499,714,l),
(77,714,l),
(77,0,l),
(267,0,l),
(267,268,l)
);
}
);
width = 539;
}
);
note = F;
unicode = 70;
}
{
glyphname = G;
kernLeft = C;
layers = (
{
layerId = m01;
shapes = (
{
closed = 1;
nodes = (
(491,269,l),
(491,157,l),
(478,154,o),
(429,149,o),
(412,149,qs),
(334,149,o),
(250,254,o),
(250,354,qs),
(250,412,o),
(285,508,o),
(363,566,o),
(427,566,qs),
(474,566,o),
(558,547,o),
(596,528,q),
(657,679,l),
(613,699,o),
(493,724,o),
(426,724,qs),
(304,724,o),
(137,635,o),
(51,471,o),
(51,359,qs),
(51,234,o),
(138,70,o),
(293,-10,o),
(396,-10,qs),
(474,-10,o),
(617,14,o),
(672,33,q),
(672,418,l),
(364,418,l),
(364,269,l)
);
}
);
width = 740;
}
);
note = G;
unicode = 71;
}
{
glyphname = H;
layers = (
{
layerId = m01;
shapes = (
{
closed = 1;
nodes = (
(495,714,l),
(495,449,l),
(271,449,l),
(271,714,l),
(77,714,l),
(77,0,l),
(271,0,l),
(271,291,l),
(495,291,l),
(495,0,l),
(689,0,l),
(689,714,l)
);
}
);
width = 766;
}
);
note = H;
unicode = 72;
}
{
glyphname = I;
layers = (
{
layerId = m01;
shapes = (
{
closed = 1;
nodes = (
(317,144,l),
(317,571,l),
(406,604,l),
(406,714,l),
(34,714,l),
(34,604,l),
(123,571,l),
(123,144,l),
(34,110,l),
(34,0,l),
(406,0,l),
(406,110,l)
);
}
);
width = 440;
}
);
note = I;
unicode = 73;
}
{
glyphname = J;
layers = (
{
layerId = m01;
shapes = (
{
closed = 1;
nodes = (
(210,-167,o),
(275,-37,o),
(275,70,qs),
(275,714,l),
(81,714,l),
(81,53,ls),
(81,-11,o),
(44,-74,o),
(-8,-74,qs),
(-28,-74,o),
(-63,-67,o),
(-79,-64,q),
(-79,-214,l),
(-61,-218,o),
(-12,-224,o),
(21,-224,qs),
(96,-224,o)
);
}
);
width = 352;
}
);
note = J;
unicode = 74;
}
{
glyphname = K;
kernRight = K;
layers = (
{
layerId = m01;
shapes = (
{
closed = 1;
nodes = (
(691,714,l),
(480,714,l),
(330,495,ls),
(315,474,o),
(283,427,o),
(271,404,q),
(271,714,l),
(77,714,l),
(77,0,l),
(271,0,l),
(271,239,l),
(328,273,l),
(469,0,l),
(687,0,l),
(466,394,l)
);
}
);
width = 687;
}
);
note = K;
unicode = 75;
}
{
glyphname = L;
kernRight = L;
layers = (
{
layerId = m01;
shapes = (
{
closed = 1;
nodes = (
(545,156,l),
(270,156,l),
(270,714,l),
(77,714,l),
(77,0,l),
(545,0,l)
);
}
);
width = 582;
}
);
note = L;
unicode = 76;
}
{
glyphname = N;
layers = (
{
layerId = m01;
shapes = (
{
closed = 1;
nodes = (
(585,714,l),
(585,391,ls),
(585,367,o),
(587,303,o),
(591,241,o),
(592,218,q),
(589,218,l),
(329,714,l),
(77,714,l),
(77,0,l),
(248,0,l),
(248,322,ls),
(248,349,o),
(245,415,o),
(241,480,o),
(239,503,q),
(243,503,l),
(504,0,l),
(757,0,l),
(757,714,l)
);
}
);
width = 834;
}
);
note = N;
unicode = 78;
}
{
glyphname = O;
kernLeft = C;
kernRight = D;
layers = (
{
layerId = m01;
shapes = (
{
closed = 1;
nodes = (
(674,634,o),
(521,725,o),
(399,725,qs),
(279,725,o),
(125,635,o),
(51,470,o),
(51,359,qs),
(51,248,o),
(124,82,o),
(278,-10,o),
(398,-10,qs),
(521,-10,o),
(674,82,o),
(745,247,o),
(745,358,qs),
(745,469,o)
);
},
{
closed = 1;
nodes = (
(320,567,o),
(399,567,qs),
(478,567,o),
(542,455,o),
(542,358,qs),
(542,261,o),
(478,151,o),
(398,151,qs),
(321,151,o),
(254,261,o),
(254,358,qs),
(254,455,o)
);
}
);
width = 797;
}
);
note = O;
unicode = 79;
}
{
glyphname = P;
kernRight = P;
layers = (
{
layerId = m01;
shapes = (
{
closed = 1;
nodes = (
(77,0,l),
(270,0,l),
(270,237,l),
(324,237,ls),
(400,237,o),
(504,278,o),
(567,349,o),
(595,438,o),
(595,487,qs),
(595,596,o),
(460,714,o),
(324,714,qs),
(77,714,l)
);
},
{
closed = 1;
nodes = (
(402,516,o),
(402,482,qs),
(402,433,o),
(346,394,o),
(308,394,qs),
(270,394,l),
(270,558,l),
(320,558,ls),
(362,558,o)
);
}
);
width = 632;
}
);
note = P;
unicode = 80;
}
{
glyphname = Q;
kernLeft = C;
kernRight = D;
layers = (
{
layerId = m01;
shapes = (
{
closed = 1;
nodes = (
(674,634,o),
(521,725,o),
(399,725,qs),
(279,725,o),
(125,635,o),
(51,470,o),
(51,359,qs),
(51,248,o),
(124,82,o),
(278,-10,o),
(398,-10,qs),
(405,-10,l),
(525,-170,l),
(765,-170,l),
(591,31,l),
(673,76,o),
(745,246,o),
(745,358,qs),
(745,469,o)
);
},
{
closed = 1;
nodes = (
(320,567,o),
(399,567,qs),
(478,567,o),
(542,455,o),
(542,358,qs),
(542,261,o),
(478,151,o),
(398,151,qs),
(321,151,o),
(254,261,o),
(254,358,qs),
(254,455,o)
);
}
);
width = 797;
}
);
note = Q;
unicode = 81;
}
{
glyphname = T;
kernLeft = T;
kernRight = T;
layers = (
{
layerId = m01;
shapes = (
{
closed = 1;
nodes = (
(566,556,l),
(566,714,l),
(25,714,l),
(25,556,l),
(199,556,l),
(199,0,l),
(392,0,l),
(392,556,l)
);
}
);
width = 591;
}
);
note = T;
unicode = 84;
}
{
glyphname = U;
kernLeft = U;
kernRight = U;
layers = (
{
layerId = m01;
shapes = (
{
closed = 1;
nodes = (
(491,714,l),
(491,296,ls),
(491,220,o),
(438,151,o),
(379,151,qs),
(324,151,o),
(267,219,o),
(267,295,qs),
(267,714,l),
(73,714,l),
(73,280,ls),
(73,141,o),
(228,-10,o),
(376,-10,qs),
(531,-10,o),
(684,149,o),
(684,284,qs),
(684,714,l)
);
}
);
width = 757;
}
);
note = U;
unicode = 85;
}
{
glyphname = V;
kernLeft = V;
kernRight = V;
layers = (
{
layerId = m01;
shapes = (
{
closed = 1;
nodes = (
(379,350,ls),
(373,330,o),
(360,267,o),
(349,204,o),
(347,184,q),
(346,204,o),
(333,268,o),
(319,332,o),
(314,352,qs),
(217,714,l),
(0,714,l),
(233,0,l),
(460,0,l),
(694,714,l),
(478,714,l)
);
}
);
width = 694;
}
);
note = V;
unicode = 86;
}
{
glyphname = W;
kernLeft = V;
kernRight = V;
layers = (
{
layerId = m01;
shapes = (
{
closed = 1;
nodes = (
(759,355,ls),
(755,337,o),
(741,266,o),
(727,192,o),
(724,167,q),
(721,196,o),
(707,274,o),
(691,354,o),
(676,423,o),
(671,444,qs),
(610,714,l),
(431,714,l),
(368,444,ls),
(363,422,o),
(348,354,o),
(332,275,o),
(319,197,o),
(315,167,q),
(313,185,o),
(303,238,o),
(292,294,o),
(282,343,o),
(279,356,qs),
(201,714,l),
(15,714,l),
(192,0,l),
(420,0,l),
(489,311,ls),
(491,320,o),
(500,362,o),
(510,416,o),
(519,468,o),
(521,486,q),
(523,468,o),
(531,416,o),
(542,362,o),
(550,320,o),
(552,311,qs),
(620,0,l),
(848,0,l),
(1024,714,l),
(838,714,l)
);
}
);
width = 1039;
}
);
note = W;
unicode = 87;
}
{
glyphname = X;
kernRight = K;
layers = (
{
layerId = m01;
shapes = (
{
closed = 1;
nodes = (
(703,714,l),
(483,714,l),
(359,493,l),
(230,714,l),
(16,714,l),
(239,365,l),
(2,0,l),
(220,0,l),
(358,223,l),
(497,0,l),
(720,0,l),
(477,350,l)
);
}
);
width = 723;
}
);
note = X;
unicode = 88;
}
{
glyphname = Y;
kernLeft = Y;
kernRight = Y;
layers = (
{
layerId = m01;
shapes = (
{
closed = 1;
nodes = (
(0,714,l),
(235,273,l),
(235,0,l),
(429,0,l),
(429,279,l),
(664,714,l),
(455,714,l),
(332,449,l),
(210,714,l)
);
}
);
width = 664;
}
);
note = Y;
unicode = 89;
}
{
glyphname = Z;
kernLeft = Z;
kernRight = Z;
layers = (
{
layerId = m01;
shapes = (
{
closed = 1;
nodes = (
(269,156,l),
(578,595,l),
(578,714,l),
(37,714,l),
(37,558,l),
(339,558,l),
(30,119,l),
(30,0,l),
(586,0,l),
(586,156,l)
);
}
);
width = 611;
}
);
note = Z;
unicode = 90;
}
{
glyphname = bracketleft;
layers = (
{
layerId = m01;
shapes = (
{
closed = 1;
nodes = (
(212,-44,l),
(212,610,l),
(301,610,l),
(301,734,l),
(57,734,l),
(57,-168,l),
(301,-168,l),
(301,-44,l)
);
}
);
width = 324;
}
);
note = bracketleft;
unicode = 91;
}
{
glyphname = backslash;
layers = (
{
layerId = m01;
shapes = (
{
closed = 1;
nodes = (
(269,-10,l),
(438,-10,l),
(172,724,l),
(3,724,l)
);
}
);
width = 442;
}
);
note = backslash;
unicode = 92;
}
{
glyphname = bracketright;
kernLeft = parenright;
layers = (
{
layerId = m01;
shapes = (
{
closed = 1;
nodes = (
(267,-168,l),
(267,734,l),
(23,734,l),
(23,610,l),
(112,610,l),
(112,-44,l),
(23,-44,l),
(23,-168,l)
);
}
);
width = 324;
}
);
note = bracketright;
unicode = 93;
}
{
glyphname = asciicircum;
layers = (
{
layerId = m01;
shapes = (
{
closed = 1;
nodes = (
(253,527,l),
(394,245,l),
(538,245,l),
(290,717,l),
(207,717,l),
(-8,245,l),
(132,245,l)
);
}
);
width = 525;
}
);
note = asciicircum;
unicode = 94;
}
{
glyphname = underscore;
layers = (
{
layerId = m01;
shapes = (
{
closed = 1;
nodes = (
(-2,-65,l),
(-2,-185,l),
(502,-185,l),
(502,-65,l)
);
}
);
width = 500;
}
);
note = underscore;
unicode = 95;
}
{
glyphname = grave;
layers = (
{
layerId = m01;
shapes = (
{
closed = 1;
nodes = (
(40,756,l),
(58,742,o),
(113,701,o),
(174,658,o),
(231,619,o),
(251,606,q),
(378,606,l),
(378,620,l),
(362,639,o),
(314,690,o),
(267,744,o),
(250,766,q),
(40,766,l)
);
}
);
width = 418;
}
);
note = grave;
unicode = 96;
}
{
glyphname = c;
kernLeft = c;
layers = (
{
layerId = m01;
shapes = (
{
closed = 1;
nodes = (
(461,17,o),
(495,39,q),
(495,191,l),
(458,168,o),
(375,142,o),
(334,142,qs),
(291,142,o),
(236,203,o),
(236,275,qs),
(236,345,o),
(290,413,o),
(333,413,qs),
(365,413,o),
(424,395,o),
(458,380,q),
(514,521,l),
(475,541,o),
(384,563,o),
(333,563,qs),
(249,563,o),
(118,502,o),
(42,375,o),
(42,274,qs),
(42,126,o),
(192,-10,o),
(318,-10,qs),
(375,-10,o)
);
}
);
width = 539;
}
);
note = c;
unicode = 99;
}
{
glyphname = d;
kernLeft = c;
layers = (
{
layerId = m01;
shapes = (
{
closed = 1;
nodes = (
(365,37,o),
(385,70,q),
(392,70,l),
(433,0,l),
(577,0,l),
(577,760,l),
(385,760,l),
(385,612,ls),
(385,577,o),
(390,503,o),
(394,482,q),
(390,482,l),
(368,517,o),
(301,563,o),
(245,563,qs),
(155,563,o),
(42,418,o),
(42,276,qs),
(42,136,o),
(153,-10,o),
(238,-10,qs),
(295,-10,o)
);
},
{
closed = 1;
nodes = (
(235,204,o),
(235,273,qs),
(235,343,o),
(280,409,o),
(314,409,qs),
(364,409,o),
(401,339,o),
(401,274,qs),
(401,259,ls),
(400,199,o),
(362,141,o),
(316,141,qs),
(280,141,o)
);
}
);
width = 643;
}
);
note = d;
unicode = 100;
}
{
glyphname = e;
kernLeft = c;
kernRight = b;
layers = (
{
layerId = m01;
shapes = (
{
closed = 1;
nodes = (
(111,501,o),
(42,373,o),
(42,273,qs),
(42,175,o),
(118,49,o),
(249,-10,o),
(333,-10,qs),
(405,-10,o),
(500,10,o),
(540,31,q),
(540,168,l),
(494,146,o),
(408,126,o),
(356,126,qs),
(298,126,o),
(237,182,o),
(235,225,q),
(576,225,l),
(576,310,ls),
(576,437,o),
(436,563,o),
(315,563,qs),
(234,563,o)
);
},
{
closed = 1;
nodes = (
(402,382,o),
(403,345,q),
(239,345,l),
(243,391,o),
(288,433,o),
(322,433,qs),
(361,433,o)
);
}
);
width = 618;
}
);
note = e;
unicode = 101;
}
{
glyphname = f;
kernLeft = f;
kernRight = f;
layers = (
{
layerId = m01;
shapes = (
{
closed = 1;
nodes = (
(286,553,l),
(286,568,ls),
(286,625,o),
(328,625,qs),
(348,625,o),
(383,619,o),
(397,615,q),
(438,739,l),
(400,752,o),
(330,765,o),
(287,765,qs),
(187,765,o),
(99,667,o),
(99,560,qs),
(99,551,l),
(22,504,l),
(22,410,l),
(95,410,l),
(95,0,l),
(286,0,l),
(286,410,l),
(404,410,l),
(404,553,l)
);
}
);
width = 413;
}
);
note = f;
unicode = 102;
}
{
glyphname = g;
kernLeft = g;
layers = (
{
layerId = m01;
shapes = (
{
closed = 1;
nodes = (
(42,416,o),
(42,276,qs),
(42,136,o),
(152,-10,o),
(240,-10,qs),
(297,-10,o),
(367,37,o),
(386,70,q),
(392,70,l),
(386,30,o),
(386,1,qs),
(386,-9,ls),
(386,-91,o),
(271,-91,qs),
(206,-91,o),
(116,-70,o),
(66,-49,q),
(66,-208,l),
(113,-226,o),
(215,-240,o),
(282,-240,qs),
(432,-240,o),
(577,-118,o),
(577,-1,qs),
(577,553,l),
(412,553,l),
(398,485,l),
(394,485,l),
(372,518,o),
(301,563,o),
(243,563,qs),
(154,563,o)
);
},
{
closed = 1;
nodes = (
(401,344,o),
(401,279,qs),
(401,256,ls),
(401,197,o),
(365,138,o),
(318,138,qs),
(276,138,o),
(236,201,o),
(236,273,qs),
(236,415,o),
(315,415,qs),
(366,415,o)
);
}
);
width = 643;
}
);
note = g;
unicode = 103;
}
{
glyphname = h;
kernLeft = b;
kernRight = a;
layers = (
{
layerId = m01;
shapes = (
{
closed = 1;
nodes = (
(66,760,l),
(66,0,l),
(257,0,l),
(257,243,ls),
(257,325,o),
(296,413,o),
(348,413,qs),
(414,413,o),
(414,302,qs),
(414,0,l),
(606,0,l),
(606,360,ls),
(606,432,o),
(553,521,o),
(465,563,o),
(410,563,qs),
(361,563,o),
(285,528,o),
(258,485,q),
(249,485,l),
(251,507,o),
(257,591,o),
(257,652,qs),
(257,760,l)
);
}
);
width = 670;
}
);
note = h;
unicode = 104;
}
{
glyphname = i;
layers = (
{
layerId = m01;
shapes = (
{
closed = 1;
nodes = (
(62,742,o),
(62,691,qs),
(62,642,o),
(121,607,o),
(163,607,qs),
(204,607,o),
(265,642,o),
(265,691,qs),
(265,742,o),
(204,776,o),
(163,776,qs),
(121,776,o)
);
},
{
closed = 1;
nodes = (
(67,0,l),
(258,0,l),
(258,553,l),
(67,553,l)
);
}
);
width = 325;
}
);
note = i;
unicode = 105;
}
{
glyphname = j;
layers = (
{
layerId = m01;
shapes = (
{
closed = 1;
nodes = (
(120,607,o),
(162,607,qs),
(203,607,o),
(264,642,o),
(264,691,qs),
(264,742,o),
(203,776,o),
(162,776,qs),
(120,776,o),
(61,742,o),
(61,691,qs),
(61,642,o)
);
},
{
closed = 1;
nodes = (
(218,-184,o),
(257,-95,o),
(257,-45,qs),
(257,553,l),
(66,553,l),
(66,-5,ls),
(66,-55,o),
(31,-88,o),
(8,-88,qs),
(-8,-88,o),
(-35,-83,o),
(-51,-79,q),
(-51,-228,l),
(-31,-233,o),
(29,-240,o),
(52,-240,qs),
(128,-240,o)
);
}
);
width = 324;
}
);
note = j;
unicode = 106;
}
{
glyphname = l;
kernLeft = b;
layers = (
{
layerId = m01;
shapes = (
{
closed = 1;
nodes = (
(66,760,l),
(66,0,l),
(257,0,l),
(257,760,l)
);
}
);
width = 323;
}
);
note = l;
unicode = 108;
}
{
glyphname = m;
kernLeft = m;
kernRight = a;
layers = (
{
layerId = m01;
shapes = (
{
closed = 1;
nodes = (
(606,523,o),
(580,486,q),
(574,486,l),
(549,522,o),
(470,563,o),
(409,563,qs),
(348,563,o),
(265,519,o),
(243,485,q),
(238,485,l),
(210,553,l),
(66,553,l),
(66,0,l),
(257,0,l),
(257,242,ls),
(257,325,o),
(292,413,o),
(341,413,qs),
(373,413,o),
(405,361,o),
(405,301,qs),
(405,0,l),
(596,0,l),
(596,258,ls),
(596,332,o),
(632,413,o),
(678,413,qs),
(711,413,o),
(745,364,o),
(745,301,qs),
(745,0,l),
(936,0,l),
(936,360,ls),
(936,467,o),
(836,563,o),
(741,563,qs),
(689,563,o)
);
}
);
width = 1000;
}
);
note = m;
unicode = 109;
}
{
glyphname = n;
kernLeft = m;
kernRight = a;
layers = (
{
layerId = m01;
shapes = (
{
closed = 1;
nodes = (
(269,519,o),
(243,480,q),
(236,480,l),
(210,553,l),
(66,553,l),
(66,0,l),
(257,0,l),
(257,242,ls),
(257,325,o),
(294,413,o),
(348,413,qs),
(383,413,o),
(415,357,o),
(415,302,qs),
(415,0,l),
(606,0,l),
(606,360,ls),
(606,467,o),
(498,563,o),
(412,563,qs),
(354,563,o)
);
}
);
width = 670;
}
);
note = n;
unicode = 110;
}
{
glyphname = o;
kernLeft = c;
kernRight = b;
layers = (
{
layerId = m01;
shapes = (
{
closed = 1;
nodes = (
(523,497,o),
(400,563,o),
(320,563,qs),
(190,563,o),
(42,415,o),
(42,278,qs),
(42,186,o),
(113,57,o),
(237,-10,o),
(317,-10,qs),
(446,-10,o),
(594,139,o),
(594,278,qs),
(594,370,o)
);
},
{
closed = 1;
nodes = (
(275,421,o),
(318,421,qs),
(363,421,o),
(400,349,o),
(400,278,qs),
(400,207,o),
(363,132,o),
(319,132,qs),
(274,132,o),
(236,207,o),
(236,278,qs),
(236,349,o)
);
}
);
width = 637;
}
);
note = o;
unicode = 111;
}
{
glyphname = p;
kernLeft = m;
kernRight = b;
layers = (
{
layerId = m01;
shapes = (
{
closed = 1;
nodes = (
(277,515,o),
(257,483,q),
(248,483,l),
(221,553,l),
(66,553,l),
(66,-240,l),
(257,-240,l),
(257,-38,ls),
(257,-9,o),
(253,35,o),
(251,54,q),
(257,54,l),
(275,32,o),
(340,-10,o),
(398,-10,qs),
(456,-10,o),
(547,55,o),
(600,184,o),
(600,278,qs),
(600,416,o),
(496,563,o),
(404,563,qs),
(346,563,o)
);
},
{
closed = 1;
nodes = (
(406,353,o),
(406,280,qs),
(406,207,o),
(369,144,o),
(333,144,qs),
(289,144,o),
(257,213,o),
(257,279,qs),
(257,294,ls),
(259,353,o),
(290,413,o),
(332,413,qs),
(368,413,o)
);
}
);
width = 643;
}
);
note = p;
unicode = 112;
}
{
glyphname = q;
kernLeft = c;
layers = (
{
layerId = m01;
shapes = (
{
closed = 1;
nodes = (
(577,-240,l),
(577,553,l),
(412,553,l),
(398,485,l),
(394,485,l),
(372,518,o),
(301,563,o),
(243,563,qs),
(154,563,o),
(42,416,o),
(42,276,qs),
(42,136,o),
(152,-10,o),
(240,-10,qs),
(297,-10,o),
(367,37,o),
(386,70,q),
(392,70,l),
(386,30,o),
(386,-11,qs),
(386,-240,l)
);
},
{
closed = 1;
nodes = (
(236,201,o),
(236,273,qs),
(236,415,o),
(315,415,qs),
(366,415,o),
(401,344,o),
(401,279,qs),
(401,256,ls),
(401,197,o),
(365,138,o),
(318,138,qs),
(276,138,o)
);
}
);
width = 643;
}
);
note = q;
unicode = 113;
}
{
glyphname = s;
kernLeft = s;
layers = (
{
layerId = m01;
shapes = (
{
closed = 1;
nodes = (
(446,282,o),
(383,327,o),
(335,346,qs),
(289,365,o),
(241,385,o),
(224,401,o),
(224,411,qs),
(224,434,o),
(271,434,qs),
(296,434,o),
(380,412,o),
(421,393,q),
(473,516,l),
(421,539,o),
(325,563,o),
(270,563,qs),
(167,563,o),
(42,481,o),
(42,400,qs),
(42,332,o),
(110,257,o),
(179,228,qs),
(226,209,o),
(277,187,o),
(297,169,o),
(297,157,qs),
(297,129,o),
(235,129,qs),
(204,129,o),
(96,150,o),
(43,174,q),
(43,21,l),
(91,3,o),
(184,-10,o),
(243,-10,qs),
(327,-10,o),
(430,36,o),
(477,118,o),
(477,170,qs),
(477,219,o)
);
}
);
width = 517;
}
);
note = s;
unicode = 115;
}
{
glyphname = u;
kernLeft = m;
layers = (
{
layerId = m01;
shapes = (
{
closed = 1;
nodes = (
(413,311,ls),
(413,229,o),
(376,141,o),
(322,141,qs),
(287,141,o),
(256,197,o),
(256,251,qs),
(256,553,l),
(65,553,l),
(65,193,ls),
(65,122,o),
(116,32,o),
(204,-10,o),
(258,-10,qs),
(309,-10,o),
(399,27,o),
(425,69,q),
(436,69,l),
(460,0,l),
(604,0,l),
(604,553,l),
(413,553,l)
);
}
);
width = 670;
}
);
note = u;
unicode = 117;
}
{
glyphname = v;
kernLeft = v;
kernRight = v;
layers = (
{
layerId = m01;
shapes = (
{
closed = 1;
nodes = (
(611,553,l),
(412,553,l),
(314,225,ls),
(312,217,o),
(305,187,o),
(305,170,q),
(302,170,l),
(302,186,o),
(295,222,o),
(293,226,q),
(199,553,l),
(0,553,l),
(211,0,l),
(400,0,l)
);
}
);
width = 611;
}
);
note = v;
unicode = 118;
}
{
glyphname = w;
kernLeft = v;
kernRight = v;
layers = (
{
layerId = m01;
shapes = (
{
closed = 1;
nodes = (
(746,0,l),
(898,553,l),
(714,553,l),
(665,341,ls),
(660,320,o),
(650,255,o),
(642,186,o),
(640,159,q),
(637,159,l),
(635,185,o),
(624,249,o),
(613,308,o),
(609,327,qs),
(562,553,l),
(351,553,l),
(300,330,ls),
(299,323,o),
(291,283,o),
(282,231,o),
(274,179,o),
(273,159,q),
(270,159,l),
(269,186,o),
(260,253,o),
(250,318,o),
(245,341,qs),
(200,553,l),
(12,553,l),
(163,0,l),
(364,0,l),
(420,235,ls),
(427,264,o),
(440,332,o),
(450,392,o),
(452,407,q),
(455,407,l),
(457,392,o),
(466,333,o),
(478,267,o),
(484,242,qs),
(542,0,l)
);
}
);
width = 910;
}
);
note = w;
unicode = 119;
}
{
glyphname = x;
kernLeft = v;
kernRight = x;
layers = (
{
layerId = m01;
shapes = (
{
closed = 1;
nodes = (
(222,0,l),
(315,168,l),
(408,0,l),
(625,0,l),
(445,282,l),
(618,553,l),
(401,553,l),
(315,398,l),
(231,553,l),
(14,553,l),
(183,282,l),
(5,0,l)
);
}
);
width = 630;
}
);
note = x;
unicode = 120;
}
{
glyphname = y;
kernLeft = v;
kernRight = v;
layers = (
{
layerId = m01;
shapes = (
{
closed = 1;
nodes = (
(215,3,ls),
(201,-33,o),
(156,-88,o),
(109,-88,qs),
(92,-88,o),
(61,-84,o),
(50,-82,q),
(50,-232,l),
(64,-235,o),
(102,-240,o),
(128,-240,qs),
(201,-240,o),
(299,-194,o),
(366,-102,o),
(391,-35,qs),
(610,553,l),
(415,553,l),
(319,235,ls),
(316,225,o),
(309,196,o),
(307,176,q),
(303,176,l),
(302,192,o),
(297,226,o),
(294,236,qs),
(200,553,l),
(-1,553,l),
(217,8,l)
);
}
);
width = 610;
}
);
note = y;
unicode = 121;
}
{
glyphname = z;
kernLeft = z;
layers = (
{
layerId = m01;
shapes = (
{
closed = 1;
nodes = (
(252,146,l),
(471,435,l),
(471,553,l),
(37,553,l),
(37,407,l),
(253,407,l),
(24,109,l),
(24,0,l),
(482,0,l),
(482,146,l)
);
}
);
width = 507;
}
);
note = z;
unicode = 122;
}
{
glyphname = braceleft;
layers = (
{
layerId = m01;
shapes = (
{
closed = 1;
nodes = (
(382,-31,o),
(338,-26,o),
(308,-4,o),
(308,20,qs),
(308,155,ls),
(308,212,o),
(248,266,o),
(191,275,q),
(191,281,l),
(247,289,o),
(308,343,o),
(308,404,qs),
(308,536,ls),
(308,561,o),
(338,582,o),
(381,588,o),
(401,588,q),
(401,724,l),
(297,724,o),
(189,689,o),
(150,615,o),
(150,558,qs),
(150,434,ls),
(150,404,o),
(116,367,o),
(61,351,o),
(30,351,q),
(30,204,l),
(60,204,o),
(115,188,o),
(150,151,o),
(150,121,qs),
(150,0,ls),
(150,-58,o),
(190,-133,o),
(299,-168,o),
(401,-168,q),
(401,-32,l)
);
}
);
width = 433;
}
);
note = braceleft;
unicode = 123;
}
{
glyphname = bar;
layers = (
{
layerId = m01;
shapes = (
{
closed = 1;
nodes = (
(320,-218,l),
(320,760,l),
(189,760,l),
(189,-218,l)
);
}
);
width = 509;
}
);
note = bar;
unicode = 124;
}
{
glyphname = braceright;
kernLeft = parenright;
layers = (
{
layerId = m01;
shapes = (
{
closed = 1;
nodes = (
(135,-168,o),
(243,-133,o),
(283,-58,o),
(283,0,qs),
(283,121,ls),
(283,151,o),
(318,188,o),
(373,204,o),
(403,204,q),
(403,351,l),
(372,351,o),
(317,367,o),
(283,404,o),
(283,434,qs),
(283,558,ls),
(283,615,o),
(244,689,o),
(136,724,o),
(32,724,q),
(32,588,l),
(52,588,o),
(95,582,o),
(125,561,o),
(125,536,qs),
(125,404,ls),
(125,343,o),
(187,289,o),
(242,281,q),
(242,275,l),
(185,266,o),
(125,212,o),
(125,155,qs),
(125,20,ls),
(125,-4,o),
(95,-26,o),
(52,-31,o),
(32,-32,q),
(32,-168,l)
);
}
);
width = 433;
}
);
note = braceright;
unicode = 125;
}
{
glyphname = asciitilde;
layers = (
{
layerId = m01;
shapes = (
{
closed = 1;
nodes = (
(382,258,o),
(411,258,qs),
(489,258,o),
(540,311,q),
(540,448,l),
(515,423,o),
(455,389,o),
(427,389,qs),
(405,389,o),
(348,400,o),
(311,416,qs),
(262,436,o),
(203,447,o),
(174,447,qs),
(134,447,o),
(71,420,o),
(45,394,q),
(45,257,l),
(71,282,o),
(130,316,o),
(159,316,qs),
(182,316,o),
(237,305,o),
(274,289,qs),
(323,270,o)
);
}
);
width = 586;
}
);
note = asciitilde;
unicode = 126;
}
{
glyphname = exclamdown;
layers = (
{
layerId = m01;
shapes = (
{
closed = 1;
nodes = (
(188,563,o),
(146,563,qs),
(105,563,o),
(45,520,o),
(45,470,qs),
(45,418,o),
(105,376,o),
(146,376,qs),
(188,376,o),
(249,418,o),
(249,470,qs),
(249,520,o)
);
},
{
closed = 1;
nodes = (
(251,-163,l),
(226,299,l),
(65,299,l),
(40,-163,l)
);
}
);
width = 290;
}
);
note = exclamdown;
unicode = 161;
}
{
glyphname = cent;
layers = (
{
layerId = m01;
shapes = (
{
closed = 1;
nodes = (
(276,724,l),
(276,643,l),
(182,624,o),
(63,487,o),
(63,361,qs),
(63,233,o),
(177,96,o),
(276,81,q),
(276,-10,l),
(377,-10,l),
(377,78,l),
(420,83,o),
(488,107,o),
(516,126,q),
(516,278,l),
(479,255,o),
(396,229,o),
(355,229,qs),
(312,229,o),
(257,290,o),
(257,362,qs),
(257,432,o),
(311,500,o),
(354,500,qs),
(386,500,o),
(445,482,o),
(479,467,q),
(535,608,l),
(501,625,o),
(421,647,o),
(377,649,q),
(377,724,l)
);
}
);
width = 586;
}
);
note = cent;
unicode = 162;
}
{
glyphname = sterling;
layers = (
{
layerId = m01;
shapes = (
{
closed = 1;
nodes = (
(131,623,o),
(131,510,qs),
(131,452,l),
(50,452,l),
(50,317,l),
(131,317,l),
(131,269,ls),
(131,236,o),
(113,196,o),
(78,169,o),
(51,153,q),
(51,0,l),
(569,0,l),
(569,159,l),
(241,159,l),
(259,168,o),
(295,195,o),
(319,238,o),
(319,270,qs),
(319,317,l),
(487,317,l),
(487,452,l),
(319,452,l),
(319,504,ls),
(319,544,o),
(351,571,o),
(374,571,qs),
(397,571,o),
(460,558,o),
(497,544,q),
(551,685,l),
(508,703,o),
(406,725,o),
(353,725,qs),
(254,725,o)
);
}
);
width = 586;
}
);
note = sterling;
unicode = 163;
}
{
glyphname = currency;
layers = (
{
layerId = m01;
shapes = (
{
closed = 1;
nodes = (
(108,268,q),
(48,210,l),
(135,123,l),
(193,179,l),
(213,169,o),
(256,161,o),
(279,161,qs),
(302,161,o),
(346,172,o),
(365,180,q),
(424,122,l),
(511,209,l),
(452,267,l),
(472,306,o),
(472,353,qs),
(472,403,o),
(452,440,q),
(514,501,l),
(424,586,l),
(365,524,l),
(324,546,o),
(279,546,qs),
(260,546,o),
(214,535,o),
(195,526,q),
(135,586,l),
(47,497,l),
(108,439,l),
(99,420,o),
(88,376,o),
(88,353,qs),
(88,307,o)
);
},
{
closed = 1;
nodes = (
(252,420,o),
(279,420,qs),
(308,420,o),
(348,382,o),
(348,353,qs),
(348,325,o),
(308,287,o),
(279,287,qs),
(252,287,o),
(213,325,o),
(213,353,qs),
(213,382,o)
);
}
);
width = 566;
}
);
note = currency;
unicode = 164;
}
{
glyphname = yen;
layers = (
{
layerId = m01;
shapes = (
{
closed = 1;
nodes = (
(4,714,l),
(177,366,l),
(84,366,l),
(84,263,l),
(204,263,l),
(204,206,l),
(84,206,l),
(84,104,l),
(204,104,l),
(204,0,l),
(382,0,l),
(382,104,l),
(500,104,l),
(500,206,l),
(382,206,l),
(382,263,l),
(500,263,l),
(500,366,l),
(405,366,l),
(582,714,l),
(387,714,l),
(293,468,l),
(199,714,l)
);
}
);
width = 586;
}
);
note = yen;
unicode = 165;
}
{
glyphname = brokenbar;
layers = (
{
layerId = m01;
shapes = (
{
closed = 1;
nodes = (
(320,350,l),
(320,760,l),
(189,760,l),
(189,350,l)
);
},
{
closed = 1;
nodes = (
(320,-218,l),
(320,192,l),
(189,192,l),
(189,-218,l)
);
}
);
width = 509;
}
);
note = brokenbar;
unicode = 166;
}
{
glyphname = section;
layers = (
{
layerId = m01;
shapes = (
{
closed = 1;
nodes = (
(94,284,o),
(167,239,o),
(215,217,qs),
(268,194,o),
(298,163,o),
(298,143,qs),
(298,122,o),
(268,96,o),
(230,96,qs),
(196,96,o),
(100,126,o),
(57,149,q),
(57,30,l),
(129,-12,o),
(229,-12,qs),
(335,-12,o),
(442,80,o),
(442,147,qs),
(442,186,o),
(408,246,o),
(381,266,q),
(408,286,o),
(453,342,o),
(453,392,qs),
(453,439,o),
(378,519,o),
(292,553,qs),
(241,574,o),
(207,610,o),
(207,626,qs),
(207,662,o),
(260,662,qs),
(291,662,o),
(362,637,o),
(394,620,q),
(442,728,l),
(405,746,o),
(311,770,o),
(261,770,qs),
(166,770,o),
(63,689,o),
(63,626,qs),
(63,589,o),
(98,530,o),
(132,506,q),
(103,488,o),
(52,430,o),
(52,392,qs),
(52,346,o)
);
},
{
closed = 1;
nodes = (
(212,451,o),
(222,457,q),
(273,435,o),
(311,393,o),
(311,367,qs),
(311,348,o),
(298,323,o),
(291,315,q),
(278,322,ls),
(234,345,o),
(194,382,o),
(194,407,qs),
(194,427,o)
);
}
);
width = 500;
}
);
note = section;
unicode = 167;
}
{
glyphname = dieresis;
layers = (
{
layerId = m01;
shapes = (
{
closed = 1;
nodes = (
(157,614,o),
(192,614,qs),
(226,614,o),
(276,651,o),
(276,690,qs),
(276,730,o),
(226,767,o),
(192,767,qs),
(157,767,o),
(109,730,o),
(109,690,qs),
(109,651,o)
);
},
{
closed = 1;
nodes = (
(391,614,o),
(427,614,qs),
(461,614,o),
(511,651,o),
(511,690,qs),
(511,730,o),
(461,767,o),
(427,767,qs),
(391,767,o),
(343,730,o),
(343,690,qs),
(343,651,o)
);
}
);
width = 602;
}
);
note = dieresis;
unicode = 168;
}
{
glyphname = copyright;
layers = (
{
layerId = m01;
shapes = (
{
closed = 1;
nodes = (
(626,44,o),
(725,143,o),
(779,277,o),
(779,357,qs),
(779,437,o),
(725,571,o),
(626,670,o),
(492,724,o),
(412,724,qs),
(332,724,o),
(198,670,o),
(99,571,o),
(45,437,o),
(45,357,qs),
(45,277,o),
(99,143,o),
(198,44,o),
(332,-10,o),
(412,-10,qs),
(492,-10,o)
);
},
{
closed = 1;
nodes = (
(204,143,o),
(133,273,o),
(133,357,qs),
(133,442,o),
(204,571,o),
(330,644,o),
(412,644,qs),
(494,644,o),
(618,571,o),
(689,442,o),
(689,357,qs),
(689,273,o),
(618,143,o),
(494,70,o),
(412,70,qs),
(330,70,o)
);
},
{
closed = 1;
nodes = (
(515,143,o),
(546,159,q),
(546,272,l),
(516,255,o),
(452,239,o),
(420,239,qs),
(376,239,o),
(333,295,o),
(333,357,qs),
(333,414,o),
(378,474,o),
(417,474,qs),
(446,474,o),
(495,461,o),
(520,447,q),
(565,547,l),
(529,565,o),
(453,585,o),
(408,585,qs),
(302,585,o),
(196,461,o),
(196,359,qs),
(196,254,o),
(305,128,o),
(413,128,qs),
(452,128,o)
);
}
);
width = 824;
}
);
note = copyright;
unicode = 169;
}
{
glyphname = ordfeminine;
layers = (
{
layerId = m01;
shapes = (
{
closed = 1;
nodes = (
(82,701,o),
(45,683,q),
(82,602,l),
(114,616,o),
(159,629,o),
(185,629,qs),
(235,629,o),
(235,592,qs),
(235,589,l),
(192,587,ls),
(111,583,o),
(24,536,o),
(24,472,qs),
(24,413,o),
(90,356,o),
(138,356,qs),
(182,356,o),
(235,390,o),
(257,424,q),
(279,362,l),
(358,362,l),
(358,581,ls),
(358,652,o),
(278,722,o),
(213,722,qs),
(154,722,o)
);
},
{
closed = 1;
nodes = (
(235,511,ls),
(235,486,o),
(208,445,o),
(181,445,qs),
(147,445,o),
(147,478,qs),
(147,492,o),
(164,517,o),
(194,519,qs),
(235,522,l)
);
}
);
width = 397;
}
);
note = ordfeminine;
unicode = 170;
}
{
glyphname = guillemotleft;
kernLeft = guillemotleft;
kernRight = guillemotleft;
layers = (
{
layerId = m01;
shapes = (
{
closed = 1;
nodes = (
(226,39,l),
(363,111,l),
(230,281,l),
(363,450,l),
(226,523,l),
(36,287,l),
(36,274,l)
);
},
{
closed = 1;
nodes = (
(506,39,l),
(644,111,l),
(510,281,l),
(644,450,l),
(506,523,l),
(317,287,l),
(317,274,l)
);
}
);
width = 681;
}
);
note = guillemotleft;
unicode = 171;
}
{
glyphname = logicalnot;
layers = (
{
layerId = m01;
shapes = (
{
closed = 1;
nodes = (
(45,287,l),
(408,287,l),
(408,116,l),
(540,116,l),
(540,418,l),
(45,418,l)
);
}
);
width = 586;
}
);
note = logicalnot;
unicode = 172;
}
{
glyphname = registered;
layers = (
{
layerId = m01;
shapes = (
{
closed = 1;
nodes = (
(626,44,o),
(725,143,o),
(779,277,o),
(779,357,qs),
(779,437,o),
(725,571,o),
(626,670,o),
(492,724,o),
(412,724,qs),
(332,724,o),
(198,670,o),
(99,571,o),
(45,437,o),
(45,357,qs),
(45,277,o),
(99,143,o),
(198,44,o),
(332,-10,o),
(412,-10,qs),
(492,-10,o)
);
},
{
closed = 1;
nodes = (
(204,143,o),
(133,273,o),
(133,357,qs),
(133,442,o),
(204,571,o),
(330,644,o),
(412,644,qs),
(494,644,o),
(618,571,o),
(689,442,o),
(689,357,qs),
(689,273,o),
(618,143,o),
(494,70,o),
(412,70,qs),
(330,70,o)
);
},
{
closed = 1;
nodes = (
(384,309,l),
(401,309,l),
(472,153,l),
(608,153,l),
(513,330,l),
(542,344,o),
(582,397,o),
(582,448,qs),
(582,511,o),
(493,580,o),
(389,580,qs),
(253,580,l),
(253,153,l),
(384,153,l)
);
},
{
closed = 1;
nodes = (
(384,485,l),
(390,485,ls),
(418,485,o),
(450,469,o),
(450,443,qs),
(450,416,o),
(418,395,o),
(389,395,qs),
(384,395,l)
);
}
);
width = 824;
}
);
note = registered;
unicode = 174;
}
{
glyphname = overscore;
layers = (
{
layerId = m01;
shapes = (
{
closed = 1;
nodes = (
(-3,880,l),
(-3,760,l),
(503,760,l),
(503,880,l)
);
}
);
width = 500;
}
);
note = overscore;
unicode = 175;
}
{
glyphname = degree;
layers = (
{
layerId = m01;
shapes = (
{
closed = 1;
nodes = (
(345,411,o),
(391,492,o),
(391,544,qs),
(391,596,o),
(345,677,o),
(264,724,o),
(211,724,qs),
(159,724,o),
(77,677,o),
(31,596,o),
(31,544,qs),
(31,492,o),
(77,411,o),
(159,366,o),
(211,366,qs),
(264,366,o)
);
},
{
closed = 1;
nodes = (
(147,516,o),
(147,544,qs),
(147,573,o),
(182,609,o),
(211,609,qs),
(240,609,o),
(275,573,o),
(275,544,qs),
(275,516,o),
(240,482,o),
(211,482,qs),
(182,482,o)
);
}
);
width = 422;
}
);
note = degree;
unicode = 176;
}
{
glyphname = plusminus;
layers = (
{
layerId = m01;
shapes = (
{
closed = 1;
nodes = (
(227,640,l),
(227,461,l),
(45,461,l),
(45,330,l),
(227,330,l),
(227,154,l),
(358,154,l),
(358,330,l),
(540,330,l),
(540,461,l),
(358,461,l),
(358,640,l)
);
},
{
closed = 1;
nodes = (
(540,131,l),
(45,131,l),
(45,0,l),
(540,0,l)
);
}
);
width = 586;
}
);
note = plusminus;
unicode = 177;
}
{
glyphname = uni00B2;
layers = (
{
layerId = m01;
shapes = (
{
closed = 1;
nodes = (
(197,526,l),
(229,553,ls),
(262,581,o),
(320,637,o),
(356,700,o),
(356,739,qs),
(356,791,o),
(283,855,o),
(211,855,qs),
(146,855,o),
(63,819,o),
(30,789,q),
(99,708,l),
(127,734,o),
(167,751,o),
(183,751,qs),
(215,751,o),
(215,723,qs),
(215,707,o),
(184,663,o),
(142,621,qs),
(37,517,l),
(37,416,l),
(366,416,l),
(366,526,l)
);
}
);
width = 399;
}
);
note = uni00B2;
unicode = 178;
}
{
glyphname = uni00B3;
layers = (
{
layerId = m01;
shapes = (
{
closed = 1;
nodes = (
(61,820,o),
(31,797,q),
(88,714,l),
(114,734,o),
(157,750,o),
(181,750,qs),
(206,750,o),
(226,729,o),
(226,717,qs),
(226,701,o),
(199,679,o),
(158,679,qs),
(119,679,l),
(119,584,l),
(170,584,ls),
(214,584,o),
(236,563,o),
(236,549,qs),
(236,531,o),
(205,516,o),
(179,516,qs),
(140,516,o),
(66,534,o),
(34,556,q),
(34,442,l),
(64,425,o),
(142,408,o),
(185,408,qs),
(271,408,o),
(368,472,o),
(368,532,qs),
(368,613,o),
(275,637,q),
(275,641,l),
(318,657,o),
(354,711,o),
(354,748,qs),
(354,795,o),
(272,853,o),
(198,853,qs),
(145,853,o)
);
}
);
width = 399;
}
);
note = uni00B3;
unicode = 179;
}
{
glyphname = acute;
layers = (
{
layerId = m01;
shapes = (
{
closed = 1;
nodes = (
(169,766,l),
(153,744,o),
(105,690,o),
(57,639,o),
(40,620,q),
(40,606,l),
(167,606,l),
(187,619,o),
(244,658,o),
(306,701,o),
(360,742,o),
(378,756,q),
(378,766,l)
);
}
);
width = 418;
}
);
note = acute;
unicode = 180;
}
{
glyphname = uni00B5;
layers = (
{
layerId = m01;
shapes = (
{
closed = 1;
nodes = (
(414,311,ls),
(414,229,o),
(377,141,o),
(328,141,qs),
(290,141,o),
(257,197,o),
(257,253,qs),
(257,553,l),
(66,553,l),
(66,-240,l),
(257,-240,l),
(257,-84,ls),
(257,-56,o),
(253,10,o),
(251,31,q),
(253,31,l),
(267,10,o),
(298,-10,o),
(325,-10,qs),
(357,-10,o),
(413,31,o),
(429,74,q),
(437,74,l),
(463,0,l),
(606,0,l),
(606,553,l),
(414,553,l)
);
}
);
width = 672;
}
);
note = uni00B5;
unicode = 181;
}
{
glyphname = paragraph;
layers = (
{
layerId = m01;
shapes = (
{
closed = 1;
nodes = (
(270,760,ls),
(205,760,o),
(105,714,o),
(50,605,o),
(50,509,qs),
(50,418,o),
(101,310,o),
(193,264,o),
(255,264,qs),
(276,264,o),
(301,269,o),
(316,273,q),
(316,-127,l),
(409,-127,l),
(409,648,l),
(486,648,l),
(486,-127,l),
(579,-127,l),
(579,760,l)
);
}
);
width = 643;
}
);
note = paragraph;
unicode = 182;
}
{
glyphname = cedilla;
layers = (
{
layerId = m01;
shapes = (
{
closed = 1;
nodes = (
(235,-54,o),
(192,-34,o),
(172,-30,q),
(181,0,l),
(86,0,l),
(56,-68,l),
(94,-75,o),
(127,-95,o),
(127,-112,qs),
(127,-140,o),
(87,-140,qs),
(71,-140,o),
(39,-134,o),
(22,-129,q),
(22,-223,l),
(40,-230,o),
(96,-240,o),
(130,-240,qs),
(191,-240,o),
(264,-176,o),
(264,-123,qs),
(264,-91,o)
);
}
);
width = 288;
}
);
note = cedilla;
unicode = 184;
}
{
glyphname = uni00B9;
layers = (
{
layerId = m01;
shapes = (
{
closed = 1;
nodes = (
(28,710,l),
(99,627,l),
(138,661,ls),
(146,668,o),
(164,687,o),
(168,696,q),
(167,689,o),
(165,646,o),
(163,601,o),
(163,590,qs),
(163,416,l),
(301,416,l),
(301,844,l),
(194,844,l)
);
}
);
width = 399;
}
);
note = uni00B9;
unicode = 185;
}
{
glyphname = ordmasculine;
layers = (
{
layerId = m01;
shapes = (
{
closed = 1;
nodes = (
(323,678,o),
(246,722,o),
(197,722,qs),
(117,722,o),
(24,627,o),
(24,539,qs),
(24,454,o),
(120,356,o),
(195,356,qs),
(275,356,o),
(369,452,o),
(369,539,qs),
(369,597,o)
);
},
{
closed = 1;
nodes = (
(196,624,qs),
(244,624,o),
(244,539,qs),
(244,455,o),
(196,455,qs),
(147,455,o),
(147,539,qs),
(147,624,o)
);
}
);
width = 392;
}
);
note = ordmasculine;
unicode = 186;
}
{
glyphname = guillemotright;
kernLeft = guillemotright;
kernRight = guillemotright;
layers = (
{
layerId = m01;
shapes = (
{
closed = 1;
nodes = (
(456,523,l),
(317,450,l),
(451,281,l),
(317,111,l),
(456,39,l),
(645,274,l),
(645,287,l)
);
},
{
closed = 1;
nodes = (
(175,523,l),
(37,450,l),
(170,281,l),
(37,111,l),
(175,39,l),
(364,274,l),
(364,287,l)
);
}
);
width = 681;
}
);
note = guillemotright;
unicode = 187;
}
{
glyphname = onequarter;
layers = (
{
layerId = m01;
shapes = (
{
closed = 1;
nodes = (
(689,714,l),
(542,714,l),
(174,0,l),
(321,0,l)
);
},
{
closed = 1;
nodes = (
(267,286,l),
(267,714,l),
(160,714,l),
(-6,580,l),
(65,497,l),
(106,533,ls),
(116,543,o),
(132,562,o),
(134,566,q),
(131,539,o),
(129,474,o),
(129,460,qs),
(129,286,l)
);
},
{
closed = 1;
nodes = (
(817,68,l),
(878,68,l),
(878,166,l),
(817,166,l),
(817,431,l),
(673,431,l),
(502,160,l),
(502,68,l),
(683,68,l),
(683,0,l),
(817,0,l)
);
},
{
closed = 1;
nodes = (
(661,256,o),
(676,288,o),
(686,313,q),
(683,282,o),
(683,247,qs),
(683,166,l),
(606,166,l),
(656,248,ls)
);
}
);
width = 887;
}
);
note = onequarter;
unicode = 188;
}
{
glyphname = onehalf;
layers = (
{
layerId = m01;
shapes = (
{
closed = 1;
nodes = (
(701,714,l),
(554,714,l),
(186,0,l),
(333,0,l)
);
},
{
closed = 1;
nodes = (
(267,286,l),
(267,714,l),
(160,714,l),
(-6,580,l),
(65,497,l),
(103,531,ls),
(113,540,o),
(132,562,o),
(134,566,q),
(134,564,o),
(132,534,o),
(130,496,o),
(129,464,o),
(129,460,qs),
(129,286,l)
);
},
{
closed = 1;
nodes = (
(893,110,l),
(724,110,l),
(820,195,l),
(846,221,o),
(883,283,o),
(883,323,qs),
(883,378,o),
(807,439,o),
(738,439,qs),
(681,439,o),
(596,409,o),
(557,373,q),
(626,292,l),
(670,335,o),
(710,335,qs),
(742,335,o),
(742,307,qs),
(742,290,o),
(710,246,o),
(669,205,qs),
(564,101,l),
(564,0,l),
(893,0,l)
);
}
);
width = 926;
}
);
note = onehalf;
unicode = 189;
}
{
glyphname = threequarters;
layers = (
{
layerId = m01;
shapes = (
{
closed = 1;
nodes = (
(378,343,o),
(378,402,qs),
(378,483,o),
(285,507,q),
(285,511,l),
(328,527,o),
(364,580,o),
(364,618,qs),
(364,667,o),
(280,723,o),
(208,723,qs),
(115,723,o),
(41,667,q),
(98,584,l),
(124,604,o),
(167,620,o),
(191,620,qs),
(216,620,o),
(236,599,o),
(236,587,qs),
(236,549,o),
(168,549,qs),
(129,549,l),
(129,454,l),
(180,454,ls),
(214,454,o),
(246,439,o),
(246,419,qs),
(246,386,o),
(189,386,qs),
(100,386,o),
(44,426,q),
(44,312,l),
(105,278,o),
(195,278,qs),
(282,278,o)
);
},
{
closed = 1;
nodes = (
(742,714,l),
(595,714,l),
(227,0,l),
(374,0,l)
);
},
{
closed = 1;
nodes = (
(852,68,l),
(913,68,l),
(913,166,l),
(852,166,l),
(852,431,l),
(708,431,l),
(537,160,l),
(537,68,l),
(718,68,l),
(718,0,l),
(852,0,l)
);
},
{
closed = 1;
nodes = (
(696,256,o),
(711,288,o),
(721,313,q),
(718,282,o),
(718,247,qs),
(718,166,l),
(641,166,l),
(691,248,ls)
);
}
);
width = 922;
}
);
note = threequarters;
unicode = 190;
}
{
glyphname = questiondown;
layers = (
{
layerId = m01;
shapes = (
{
closed = 1;
nodes = (
(322,563,o),
(279,563,qs),
(238,563,o),
(178,520,o),
(178,470,qs),
(178,418,o),
(238,376,o),
(279,376,qs),
(322,376,o),
(382,418,o),
(382,470,qs),
(382,520,o)
);
},
{
closed = 1;
nodes = (
(211,299,l),
(211,274,ls),
(211,251,o),
(178,218,o),
(134,189,qs),
(72,149,o),
(18,63,o),
(18,5,qs),
(18,-75,o),
(140,-173,o),
(251,-173,qs),
(325,-173,o),
(450,-135,o),
(505,-104,q),
(437,29,l),
(338,-23,o),
(265,-23,qs),
(235,-23,o),
(198,1,o),
(198,21,qs),
(198,35,o),
(207,60,o),
(239,91,o),
(272,112,qs),
(325,145,o),
(361,212,o),
(361,257,qs),
(361,299,l)
);
}
);
width = 505;
}
);
note = questiondown;
unicode = 191;
}
{
glyphname = AE;
kernLeft = AE;
kernRight = E;
layers = (
{
layerId = m01;
shapes = (
{
closed = 1;
nodes = (
(667,157,l),
(667,292,l),
(881,292,l),
(881,447,l),
(667,447,l),
(667,559,l),
(898,559,l),
(898,714,l),
(302,714,l),
(-5,0,l),
(211,0,l),
(260,134,l),
(473,134,l),
(473,0,l),
(898,0,l),
(898,157,l)
);
},
{
closed = 1;
nodes = (
(473,551,l),
(473,294,l),
(319,294,l),
(419,551,l)
);
}
);
width = 946;
}
);
note = AE;
unicode = 198;
}
{
glyphname = Eth;
kernRight = D;
layers = (
{
layerId = m01;
shapes = (
{
closed = 1;
nodes = (
(77,431,l),
(15,431,l),
(15,275,l),
(77,275,l),
(77,0,l),
(308,0,ls),
(422,0,o),
(590,82,o),
(683,248,o),
(683,372,qs),
(683,538,o),
(497,714,o),
(324,714,qs),
(77,714,l)
);
},
{
closed = 1;
nodes = (
(483,365,qs),
(483,260,o),
(401,158,o),
(313,158,qs),
(270,158,l),
(270,275,l),
(373,275,l),
(373,431,l),
(270,431,l),
(270,558,l),
(326,558,ls),
(483,558,o)
);
}
);
width = 734;
}
);
note = Eth;
unicode = 208;
}
{
glyphname = multiply;
layers = (
{
layerId = m01;
shapes = (
{
closed = 1;
nodes = (
(158,576,l),
(69,484,l),
(199,353,l),
(70,222,l),
(158,131,l),
(290,262,l),
(424,130,l),
(514,220,l),
(382,353,l),
(516,487,l),
(424,576,l),
(290,446,l)
);
}
);
width = 586;
}
);
note = multiply;
unicode = 215;
}
{
glyphname = Oslash;
kernLeft = C;
kernRight = D;
layers = (
{
layerId = m01;
shapes = (
{
closed = 1;
nodes = (
(700,591,o),
(650,639,q),
(690,700,l),
(597,756,l),
(560,698,l),
(494,725,o),
(399,725,qs),
(279,725,o),
(125,635,o),
(51,470,o),
(51,359,qs),
(51,265,o),
(101,118,o),
(154,69,q),
(113,8,l),
(207,-53,l),
(248,11,l),
(313,-10,o),
(398,-10,qs),
(521,-10,o),
(674,82,o),
(745,247,o),
(745,358,qs),
(745,447,o)
);
},
{
closed = 1;
nodes = (
(320,567,o),
(399,567,qs),
(417,567,o),
(451,559,o),
(465,553,q),
(268,241,l),
(260,265,o),
(254,324,o),
(254,358,qs),
(254,455,o)
);
},
{
closed = 1;
nodes = (
(478,151,o),
(398,151,qs),
(382,151,o),
(353,155,o),
(341,158,q),
(533,461,l),
(542,419,o),
(542,358,qs),
(542,261,o)
);
}
);
width = 797;
}
);
note = Oslash;
unicode = 216;
}
{
glyphname = Thorn;
kernRight = P;
layers = (
{
layerId = m01;
shapes = (
{
closed = 1;
nodes = (
(460,610,o),
(324,610,qs),
(270,610,l),
(270,714,l),
(77,714,l),
(77,0,l),
(270,0,l),
(270,133,l),
(324,133,ls),
(400,133,o),
(504,174,o),
(567,245,o),
(595,334,o),
(595,383,qs),
(595,492,o)
);
},
{
closed = 1;
nodes = (
(270,454,l),
(320,454,ls),
(362,454,o),
(400,416,o),
(400,382,qs),
(400,333,o),
(343,290,o),
(305,290,qs),
(270,290,l)
);
}
);
width = 627;
}
);
note = Thorn;
unicode = 222;
}
{
glyphname = germandbls;
layers = (
{
layerId = m01;
shapes = (
{
closed = 1;
nodes = (
(580,724,o),
(449,765,o),
(365,765,qs),
(279,765,o),
(144,712,o),
(66,611,o),
(66,537,qs),
(66,0,l),
(257,0,l),
(257,517,ls),
(257,566,o),
(310,619,o),
(365,619,qs),
(409,619,o),
(458,586,o),
(458,561,qs),
(458,538,o),
(431,505,o),
(390,476,o),
(349,443,o),
(322,400,o),
(322,369,qs),
(322,330,o),
(370,273,o),
(431,241,qs),
(472,220,o),
(511,194,o),
(522,175,o),
(522,164,qs),
(522,144,o),
(483,122,o),
(455,122,qs),
(435,122,o),
(384,133,o),
(336,151,o),
(319,161,q),
(319,19,l),
(351,3,o),
(433,-10,o),
(500,-10,qs),
(608,-10,o),
(721,79,o),
(721,163,qs),
(721,221,o),
(674,289,o),
(624,320,qs),
(575,352,o),
(523,377,o),
(523,396,qs),
(523,407,o),
(563,436,o),
(614,478,o),
(654,539,o),
(654,581,qs),
(654,643,o)
);
}
);
width = 750;
}
);
note = germandbls;
unicode = 223;
}
{
glyphname = ae;
kernLeft = a;
kernRight = b;
layers = (
{
layerId = m01;
shapes = (
{
closed = 1;
nodes = (
(516,541,o),
(481,517,q),
(414,563,o),
(317,563,qs),
(256,563,o),
(142,539,o),
(95,514,q),
(149,389,l),
(188,407,o),
(269,428,o),
(302,428,qs),
(328,428,o),
(368,401,o),
(368,361,qs),
(368,352,l),
(279,349,ls),
(206,347,o),
(97,310,o),
(36,234,o),
(36,172,qs),
(36,110,o),
(86,29,o),
(166,-10,o),
(212,-10,qs),
(272,-10,o),
(350,7,o),
(411,48,o),
(445,83,q),
(483,35,o),
(592,-10,o),
(655,-10,qs),
(726,-10,o),
(818,10,o),
(858,31,q),
(858,168,l),
(811,144,o),
(718,126,o),
(680,126,qs),
(619,126,o),
(555,185,o),
(553,225,q),
(893,225,l),
(893,309,ls),
(893,394,o),
(831,507,o),
(723,563,o),
(653,563,qs),
(596,563,o)
);
},
{
closed = 1;
nodes = (
(721,381,o),
(722,345,q),
(556,345,l),
(560,394,o),
(607,433,o),
(642,433,qs),
(680,433,o)
);
},
{
closed = 1;
nodes = (
(369,204,ls),
(369,169,o),
(320,125,o),
(286,125,qs),
(261,125,o),
(231,147,o),
(231,174,qs),
(231,206,o),
(272,244,o),
(328,245,qs),
(369,247,l)
);
}
);
width = 935;
}
);
note = ae;
unicode = 230;
}
{
glyphname = eth;
kernRight = b;
layers = (
{
layerId = m01;
shapes = (
{
closed = 1;
nodes = (
(200,668,o),
(239,644,o),
(254,634,q),
(184,589,l),
(241,499,l),
(330,557,l),
(354,533,o),
(386,483,o),
(400,456,q),
(396,454,l),
(383,474,o),
(326,495,o),
(277,495,qs),
(211,495,o),
(105,438,o),
(43,326,o),
(43,243,qs),
(43,161,o),
(114,48,o),
(238,-10,o),
(317,-10,qs),
(402,-10,o),
(526,61,o),
(594,193,o),
(594,283,qs),
(594,400,o),
(522,564,o),
(451,633,q),
(522,680,l),
(466,769,l),
(364,702,l),
(337,720,o),
(273,752,o),
(234,768,q),
(181,679,l)
);
},
{
closed = 1;
nodes = (
(399,301,o),
(399,266,qs),
(399,196,o),
(363,126,o),
(319,126,qs),
(275,126,o),
(239,191,o),
(239,244,qs),
(239,303,o),
(274,358,o),
(319,358,qs),
(360,358,o)
);
}
);
width = 641;
}
);
note = eth;
unicode = 240;
}
{
glyphname = divide;
layers = (
{
layerId = m01;
shapes = (
{
closed = 1;
nodes = (
(369,500,o),
(369,543,qs),
(369,590,o),
(322,626,o),
(292,626,qs),
(261,626,o),
(216,590,o),
(216,543,qs),
(216,500,o),
(261,460,o),
(292,460,qs),
(322,460,o)
);
},
{
closed = 1;
nodes = (
(540,418,l),
(45,418,l),
(45,287,l),
(540,287,l)
);
},
{
closed = 1;
nodes = (
(369,119,o),
(369,162,qs),
(369,209,o),
(322,245,o),
(292,245,qs),
(261,245,o),
(216,209,o),
(216,162,qs),
(216,119,o),
(261,79,o),
(292,79,qs),
(322,79,o)
);
}
);
width = 586;
}
);
note = divide;
unicode = 247;
}
{
glyphname = oslash;
kernLeft = c;
kernRight = b;
layers = (
{
layerId = m01;
shapes = (
{
closed = 1;
nodes = (
(574,460,o),
(532,496,q),
(565,547,l),
(483,598,l),
(448,544,l),
(423,553,o),
(365,563,o),
(334,563,qs),
(198,563,o),
(42,415,o),
(42,278,qs),
(42,204,o),
(91,92,o),
(134,55,q),
(95,-5,l),
(178,-57,l),
(219,7,l),
(272,-10,o),
(331,-10,qs),
(467,-10,o),
(622,139,o),
(622,278,qs),
(622,350,o)
);
},
{
closed = 1;
nodes = (
(273,431,o),
(332,431,qs),
(354,431,o),
(372,425,q),
(231,206,l),
(227,222,o),
(225,257,o),
(225,278,qs),
(225,354,o)
);
},
{
closed = 1;
nodes = (
(394,122,o),
(333,122,qs),
(311,122,o),
(296,126,q),
(434,342,l),
(437,329,o),
(439,296,o),
(439,278,qs),
(439,202,o)
);
}
);
width = 665;
}
);
note = oslash;
unicode = 248;
}
{
glyphname = dcaron;
kernLeft = c;
kernRight = dcaron;
layers = (
{
layerId = m01;
shapes = (
{
closed = 1;
nodes = (
(641,760,l),
(637,728,o),
(621,643,o),
(613,614,q),
(613,600,l),
(727,600,l),
(755,644,o),
(793,712,o),
(814,749,q),
(814,760,l)
);
},
{
closed = 1;
nodes = (
(365,37,o),
(385,70,q),
(392,70,l),
(433,0,l),
(577,0,l),
(577,760,l),
(385,760,l),
(385,612,ls),
(385,577,o),
(390,503,o),
(394,482,q),
(390,482,l),
(368,517,o),
(301,563,o),
(245,563,qs),
(155,563,o),
(42,418,o),
(42,276,qs),
(42,136,o),
(153,-10,o),
(238,-10,qs),
(295,-10,o)
);
},
{
closed = 1;
nodes = (
(235,204,o),
(235,273,qs),
(235,343,o),
(280,409,o),
(314,409,qs),
(364,409,o),
(401,339,o),
(401,274,qs),
(401,259,ls),
(400,199,o),
(362,141,o),
(316,141,qs),
(280,141,o)
);
}
);
width = 643;
}
);
note = dcaron;
unicode = 271;
}
{
glyphname = dcroat;
kernLeft = c;
layers = (
{
layerId = m01;
shapes = (
{
closed = 1;
nodes = (
(350,37,o),
(371,70,q),
(378,70,l),
(421,0,l),
(577,0,l),
(577,570,l),
(653,570,l),
(653,688,l),
(577,688,l),
(577,760,l),
(385,760,l),
(385,688,l),
(272,688,l),
(272,570,l),
(385,570,l),
(385,565,ls),
(385,520,o),
(397,446,o),
(400,434,q),
(396,434,l),
(374,468,o),
(304,514,o),
(248,514,qs),
(158,514,o),
(42,386,o),
(42,251,qs),
(42,124,o),
(148,-10,o),
(230,-10,qs),
(283,-10,o)
);
},
{
closed = 1;
nodes = (
(253,207,o),
(253,249,qs),
(253,311,o),
(293,360,o),
(323,360,qs),
(358,360,o),
(401,303,o),
(401,250,qs),
(401,238,ls),
(400,189,o),
(367,141,o),
(326,141,qs),
(288,141,o)
);
}
);
width = 663;
}
);
note = dcroat;
unicode = 273;
}
{
glyphname = eogonek;
kernLeft = c;
kernRight = b;
layers = (
{
layerId = m01;
shapes = (
{
closed = 1;
nodes = (
(460,-47,o),
(500,-3,o),
(540,31,q),
(540,168,l),
(494,146,o),
(408,126,o),
(356,126,qs),
(298,126,o),
(237,182,o),
(235,225,q),
(576,225,l),
(576,310,ls),
(576,437,o),
(436,563,o),
(315,563,qs),
(234,563,o),
(111,501,o),
(42,373,o),
(42,273,qs),
(42,175,o),
(118,49,o),
(249,-10,o),
(333,-10,qs),
(366,-10,o),
(393,-8,q),
(353,-42,o),
(323,-100,o),
(323,-127,qs),
(323,-179,o),
(401,-240,o),
(458,-240,qs),
(485,-240,o),
(527,-232,o),
(543,-227,q),
(543,-119,l),
(533,-123,o),
(503,-130,o),
(488,-130,qs),
(471,-130,o),
(447,-110,o),
(447,-91,qs),
(447,-76,o)
);
},
{
closed = 1;
nodes = (
(402,382,o),
(403,345,q),
(239,345,l),
(243,391,o),
(288,433,o),
(322,433,qs),
(361,433,o)
);
}
);
width = 618;
}
);
note = eogonek;
unicode = 281;
}
{
glyphname = uni0123;
kernLeft = g;
layers = (
{
layerId = m01;
shapes = (
{
closed = 1;
nodes = (
(301,766,l),
(276,722,o),
(239,654,o),
(218,617,q),
(218,606,l),
(392,606,l),
(395,638,o),
(408,721,o),
(414,752,q),
(414,766,l)
);
},
{
closed = 1;
nodes = (
(42,416,o),
(42,276,qs),
(42,136,o),
(152,-10,o),
(240,-10,qs),
(297,-10,o),
(367,37,o),
(386,70,q),
(392,70,l),
(386,30,o),
(386,1,qs),
(386,-9,ls),
(386,-91,o),
(271,-91,qs),
(206,-91,o),
(116,-70,o),
(66,-49,q),
(66,-208,l),
(113,-226,o),
(215,-240,o),
(282,-240,qs),
(432,-240,o),
(577,-118,o),
(577,-1,qs),
(577,553,l),
(412,553,l),
(398,485,l),
(394,485,l),
(372,518,o),
(301,563,o),
(243,563,qs),
(154,563,o)
);
},
{
closed = 1;
nodes = (
(401,344,o),
(401,279,qs),
(401,256,ls),
(401,197,o),
(365,138,o),
(318,138,qs),
(276,138,o),
(236,201,o),
(236,273,qs),
(236,415,o),
(315,415,qs),
(366,415,o)
);
}
);
width = 643;
}
);
note = uni0123;
unicode = 291;
}
{
glyphname = Hbar;
layers = (
{
layerId = m01;
shapes = (
{
closed = 1;
nodes = (
(278,291,l),
(503,291,l),
(503,0,l),
(697,0,l),
(697,521,l),
(782,521,l),
(782,635,l),
(697,635,l),
(697,714,l),
(503,714,l),
(503,635,l),
(278,635,l),
(278,714,l),
(85,714,l),
(85,635,l),
(0,635,l),
(0,521,l),
(85,521,l),
(85,0,l),
(278,0,l)
);
},
{
closed = 1;
nodes = (
(503,521,l),
(503,449,l),
(278,449,l),
(278,521,l)
);
}
);
width = 782;
}
);
note = Hbar;
unicode = 294;
}
{
glyphname = hbar;
layers = (
{
layerId = m01;
shapes = (
{
closed = 1;
nodes = (
(76,688,l),
(0,688,l),
(0,570,l),
(76,570,l),
(76,0,l),
(267,0,l),
(267,193,ls),
(267,276,o),
(306,364,o),
(358,364,qs),
(424,364,o),
(424,253,qs),
(424,0,l),
(616,0,l),
(616,312,ls),
(616,383,o),
(564,472,o),
(476,514,o),
(421,514,qs),
(371,514,o),
(297,478,o),
(270,436,q),
(259,436,l),
(261,459,o),
(266,527,o),
(266,550,qs),
(266,570,l),
(381,570,l),
(381,688,l),
(267,688,l),
(267,760,l),
(76,760,l)
);
}
);
width = 680;
}
);
note = hbar;
unicode = 295;
}
{
glyphname = dotlessi;
layers = (
{
layerId = m01;
shapes = (
{
closed = 1;
nodes = (
(67,553,l),
(67,0,l),
(258,0,l),
(258,553,l)
);
}
);
width = 325;
}
);
note = dotlessi;
unicode = 305;
}
{
glyphname = kgreenlandic;
kernLeft = m;
kernRight = x;
layers = (
{
layerId = m01;
shapes = (
{
closed = 1;
nodes = (
(316,399,ls),
(296,373,o),
(266,327,o),
(257,314,q),
(253,314,l),
(255,333,o),
(258,392,o),
(258,433,qs),
(258,553,l),
(66,553,l),
(66,0,l),
(258,0,l),
(258,147,l),
(321,195,l),
(444,0,l),
(659,0,l),
(452,311,l),
(650,553,l),
(436,553,l)
);
}
);
width = 659;
}
);
note = kgreenlandic;
unicode = 312;
}
{
glyphname = Lcaron;
kernRight = L;
layers = (
{
layerId = m01;
shapes = (
{
closed = 1;
nodes = (
(402,714,l),
(398,682,o),
(382,597,o),
(374,568,q),
(374,554,l),
(488,554,l),
(516,598,o),
(554,666,o),
(575,703,q),
(575,714,l)
);
},
{
closed = 1;
nodes = (
(545,156,l),
(270,156,l),
(270,714,l),
(77,714,l),
(77,0,l),
(545,0,l)
);
}
);
width = 582;
}
);
note = Lcaron;
unicode = 317;
}
{
glyphname = lcaron;
kernLeft = b;
kernRight = dcaron;
layers = (
{
layerId = m01;
shapes = (
{
closed = 1;
nodes = (
(316,760,l),
(312,728,o),
(296,643,o),
(288,614,q),
(288,600,l),
(402,600,l),
(430,644,o),
(468,712,o),
(489,749,q),
(489,760,l)
);
},
{
closed = 1;
nodes = (
(66,760,l),
(66,0,l),
(257,0,l),
(257,760,l)
);
}
);
width = 323;
}
);
note = lcaron;
unicode = 318;
}
{
glyphname = Lslash;
kernRight = L;
layers = (
{
layerId = m01;
shapes = (
{
closed = 1;
nodes = (
(572,156,l),
(297,156,l),
(297,354,l),
(472,463,l),
(400,582,l),
(297,518,l),
(297,714,l),
(104,714,l),
(104,399,l),
(-15,328,l),
(54,207,l),
(104,235,l),
(104,0,l),
(572,0,l)
);
}
);
width = 609;
}
);
note = Lslash;
unicode = 321;
}
{
glyphname = lslash;
layers = (
{
layerId = m01;
shapes = (
{
closed = 1;
nodes = (
(305,312,l),
(432,387,l),
(361,508,l),
(305,474,l),
(305,760,l),
(114,760,l),
(114,359,l),
(-15,285,l),
(53,164,l),
(114,197,l),
(114,0,l),
(305,0,l)
);
}
);
width = 417;
}
);
note = lslash;
unicode = 322;
}
{
glyphname = Eng;
layers = (
{
layerId = m01;
shapes = (
{
closed = 1;
nodes = (
(692,-185,o),
(757,-80,o),
(757,-4,qs),
(757,714,l),
(585,714,l),
(585,525,ls),
(585,492,o),
(588,410,o),
(592,338,o),
(593,319,q),
(589,319,l),
(309,714,l),
(77,714,l),
(77,0,l),
(248,0,l),
(248,300,ls),
(248,337,o),
(245,416,o),
(241,484,o),
(239,503,q),
(243,503,l),
(595,0,l),
(591,-44,o),
(535,-89,o),
(477,-89,qs),
(452,-89,o),
(412,-82,o),
(393,-79,q),
(393,-229,l),
(412,-233,o),
(466,-239,o),
(502,-239,qs),
(577,-239,o)
);
}
);
width = 834;
}
);
note = Eng;
unicode = 330;
}
{
glyphname = eng;
kernLeft = m;
kernRight = a;
layers = (
{
layerId = m01;
shapes = (
{
closed = 1;
nodes = (
(567,-184,o),
(606,-95,o),
(606,-45,qs),
(606,360,ls),
(606,431,o),
(554,521,o),
(467,563,o),
(413,563,qs),
(364,563,o),
(272,527,o),
(246,485,q),
(234,485,l),
(210,553,l),
(66,553,l),
(66,0,l),
(257,0,l),
(257,242,ls),
(257,325,o),
(294,413,o),
(348,413,qs),
(414,413,o),
(414,320,qs),
(414,-5,ls),
(414,-55,o),
(381,-88,o),
(359,-88,qs),
(343,-88,o),
(319,-83,o),
(302,-79,q),
(302,-228,l),
(322,-233,o),
(383,-240,o),
(405,-240,qs),
(479,-240,o)
);
}
);
width = 670;
}
);
note = eng;
unicode = 331;
}
{
glyphname = OE;
kernLeft = C;
kernRight = E;
layers = (
{
layerId = m01;
shapes = (
{
closed = 1;
nodes = (
(123,634,o),
(51,470,o),
(51,359,qs),
(51,248,o),
(125,82,o),
(270,-10,o),
(378,-10,qs),
(404,-10,o),
(476,-4,o),
(497,0,q),
(909,0,l),
(909,157,l),
(678,157,l),
(678,292,l),
(891,292,l),
(891,447,l),
(678,447,l),
(678,559,l),
(909,559,l),
(909,714,l),
(501,714,l),
(479,719,o),
(406,725,o),
(379,725,qs),
(269,725,o)
);
},
{
closed = 1;
nodes = (
(469,554,o),
(485,543,q),
(485,172,l),
(467,162,o),
(410,151,o),
(379,151,qs),
(315,151,o),
(254,261,o),
(254,358,qs),
(254,455,o),
(316,567,o),
(380,567,qs),
(411,567,o)
);
}
);
width = 957;
}
);
note = OE;
unicode = 338;
}
{
glyphname = oe;
kernLeft = c;
kernRight = b;
layers = (
{
layerId = m01;
shapes = (
{
closed = 1;
nodes = (
(539,530,o),
(503,501,q),
(430,563,o),
(320,563,qs),
(190,563,o),
(42,415,o),
(42,278,qs),
(42,186,o),
(113,57,o),
(237,-10,o),
(317,-10,qs),
(440,-10,o),
(513,57,q),
(550,23,o),
(646,-10,o),
(700,-10,qs),
(771,-10,o),
(863,10,o),
(903,31,q),
(903,168,l),
(856,144,o),
(763,126,o),
(725,126,qs),
(664,126,o),
(600,185,o),
(598,225,q),
(938,225,l),
(938,309,ls),
(938,394,o),
(876,507,o),
(768,563,o),
(698,563,qs),
(633,563,o)
);
},
{
closed = 1;
nodes = (
(766,381,o),
(767,345,q),
(601,345,l),
(605,394,o),
(652,433,o),
(687,433,qs),
(725,433,o)
);
},
{
closed = 1;
nodes = (
(400,349,o),
(400,278,qs),
(400,207,o),
(363,132,o),
(319,132,qs),
(274,132,o),
(237,207,o),
(237,278,qs),
(237,349,o),
(275,421,o),
(318,421,qs),
(363,421,o)
);
}
);
width = 980;
}
);
note = oe;
unicode = 339;
}
{
glyphname = tcaron;
kernLeft = t;
kernRight = t;
layers = (
{
layerId = m01;
shapes = (
{
closed = 1;
nodes = (
(459,760,l),
(455,728,o),
(439,643,o),
(431,614,q),
(431,600,l),
(545,600,l),
(573,644,o),
(611,712,o),
(632,749,q),
(632,760,l)
);
},
{
closed = 1;
nodes = (
(285,195,qs),
(285,410,l),
(421,410,l),
(421,553,l),
(285,553,l),
(285,664,l),
(160,664,l),
(111,548,l),
(26,488,l),
(26,410,l),
(93,410,l),
(93,182,ls),
(93,107,o),
(139,24,o),
(220,-10,o),
(274,-10,qs),
(328,-10,o),
(398,8,o),
(429,21,q),
(429,160,l),
(406,152,o),
(363,141,o),
(337,141,qs),
(285,141,o)
);
}
);
width = 460;
}
);
note = tcaron;
unicode = 357;
}
{
glyphname = Tbar;
kernLeft = T;
kernRight = T;
layers = (
{
layerId = m01;
shapes = (
{
closed = 1;
nodes = (
(392,267,l),
(495,267,l),
(495,426,l),
(392,426,l),
(392,556,l),
(566,556,l),
(566,714,l),
(25,714,l),
(25,556,l),
(199,556,l),
(199,426,l),
(98,426,l),
(98,267,l),
(199,267,l),
(199,0,l),
(392,0,l)
);
}
);
width = 591;
}
);
note = Tbar;
unicode = 358;
}
{
glyphname = tbar;
kernLeft = t;
kernRight = t;
layers = (
{
layerId = m01;
shapes = (
{
closed = 1;
nodes = (
(93,182,ls),
(93,107,o),
(139,24,o),
(220,-10,o),
(274,-10,qs),
(328,-10,o),
(398,8,o),
(429,21,q),
(429,160,l),
(406,152,o),
(363,141,o),
(337,141,qs),
(285,141,o),
(285,195,qs),
(285,217,l),
(404,217,l),
(404,336,l),
(285,336,l),
(285,410,l),
(421,410,l),
(421,553,l),
(285,553,l),
(285,664,l),
(160,664,l),
(111,548,l),
(26,488,l),
(26,410,l),
(93,410,l),
(93,336,l),
(36,336,l),
(36,217,l),
(93,217,l)
);
}
);
width = 480;
}
);
note = tbar;
unicode = 359;
}
{
glyphname = Uogonek;
kernLeft = U;
kernRight = U;
layers = (
{
layerId = m01;
shapes = (
{
closed = 1;
nodes = (
(564,19,o),
(602,65,q),
(643,103,o),
(684,214,o),
(684,284,qs),
(684,714,l),
(491,714,l),
(491,296,ls),
(491,220,o),
(438,151,o),
(379,151,qs),
(324,151,o),
(267,219,o),
(267,295,qs),
(267,714,l),
(73,714,l),
(73,280,ls),
(73,141,o),
(228,-10,o),
(376,-10,qs),
(410,-10,o),
(440,-6,q),
(415,-37,o),
(395,-93,o),
(395,-118,qs),
(395,-177,o),
(473,-240,o),
(530,-240,qs),
(557,-240,o),
(599,-232,o),
(615,-227,q),
(615,-119,l),
(605,-123,o),
(570,-130,o),
(557,-130,qs),
(540,-130,o),
(519,-113,o),
(519,-88,qs),
(519,-49,o)
);
}
);
width = 757;
}
);
note = Uogonek;
unicode = 370;
}
{
glyphname = longs;
layers = (
{
layerId = m01;
shapes = (
{
closed = 1;
nodes = (
(368,617,o),
(386,612,q),
(423,739,l),
(398,750,o),
(321,765,o),
(269,765,qs),
(207,765,o),
(116,734,o),
(66,646,o),
(66,559,qs),
(66,0,l),
(257,0,l),
(257,555,ls),
(257,592,o),
(278,628,o),
(310,628,qs),
(333,628,o)
);
}
);
width = 403;
}
);
note = longs;
unicode = 383;
}
{
glyphname = uni0180;
layers = (
{
layerId = m01;
shapes = (
{
closed = 1;
nodes = (
(557,51,o),
(611,179,o),
(611,278,qs),
(611,379,o),
(558,497,o),
(468,548,o),
(413,548,qs),
(354,548,o),
(285,500,o),
(267,473,q),
(260,473,l),
(267,515,o),
(267,570,qs),
(267,567,l),
(387,567,l),
(387,690,l),
(267,690,l),
(267,760,l),
(73,760,l),
(73,690,l),
(-3,690,l),
(-3,567,l),
(73,567,l),
(73,0,l),
(225,0,l),
(255,51,l),
(267,51,l),
(281,38,o),
(315,9,o),
(367,-10,o),
(408,-10,qs),
(465,-10,o)
);
},
{
closed = 1;
nodes = (
(267,217,o),
(267,283,qs),
(267,288,ls),
(269,344,o),
(316,395,o),
(344,395,qs),
(373,395,o),
(413,345,o),
(413,280,qs),
(413,214,o),
(374,146,o),
(347,146,qs),
(301,146,o)
);
}
);
width = 650;
}
);
note = uni0180;
unicode = 384;
}
{
glyphname = uni0181;
layers = (
{
layerId = m01;
shapes = (
{
closed = 1;
nodes = (
(642,0,o),
(783,114,o),
(783,208,qs),
(783,267,o),
(749,334,o),
(698,367,o),
(672,374,q),
(672,380,l),
(716,388,o),
(765,472,o),
(765,533,qs),
(765,603,o),
(695,682,o),
(560,714,o),
(461,714,qs),
(208,714,ls),
(130,714,o),
(41,661,o),
(3,575,o),
(3,524,qs),
(3,502,o),
(12,472,o),
(16,465,q),
(166,465,l),
(163,473,o),
(156,493,o),
(156,510,qs),
(156,527,o),
(179,554,o),
(202,554,qs),
(228,554,l),
(228,0,l),
(516,0,ls)
);
},
{
closed = 1;
nodes = (
(424,554,l),
(475,554,ls),
(523,554,o),
(564,532,o),
(564,504,qs),
(564,477,o),
(531,447,o),
(481,447,qs),
(424,447,l)
);
},
{
closed = 1;
nodes = (
(424,293,l),
(490,293,ls),
(528,293,o),
(567,275,o),
(580,246,o),
(580,230,qs),
(580,202,o),
(547,161,o),
(492,161,qs),
(424,161,l)
);
}
);
width = 830;
}
);
note = uni0181;
unicode = 385;
}
{
glyphname = uni0183;
layers = (
{
layerId = m01;
shapes = (
{
closed = 1;
nodes = (
(557,51,o),
(611,179,o),
(611,278,qs),
(611,379,o),
(558,497,o),
(468,548,o),
(413,548,qs),
(354,548,o),
(285,500,o),
(267,473,q),
(260,473,l),
(262,487,o),
(267,538,o),
(267,575,qs),
(267,616,l),
(559,616,l),
(559,760,l),
(73,760,l),
(73,0,l),
(225,0,l),
(255,51,l),
(267,51,l),
(281,38,o),
(315,9,o),
(367,-10,o),
(408,-10,qs),
(465,-10,o)
);
},
{
closed = 1;
nodes = (
(267,217,o),
(267,283,qs),
(267,288,ls),
(269,344,o),
(316,395,o),
(344,395,qs),
(373,395,o),
(413,345,o),
(413,280,qs),
(413,214,o),
(374,146,o),
(347,146,qs),
(301,146,o)
);
}
);
width = 650;
}
);
note = uni0183;
unicode = 387;
}
{
glyphname = uni0184;
layers = (
{
layerId = m01;
shapes = (
{
closed = 1;
nodes = (
(650,115,o),
(650,224,qs),
(650,289,o),
(585,395,o),
(448,458,o),
(339,458,qs),
(274,458,l),
(274,714,l),
(78,714,l),
(78,212,ls),
(78,91,o),
(227,-15,o),
(362,-15,qs),
(509,-15,o)
);
},
{
closed = 1;
nodes = (
(274,220,qs),
(274,298,l),
(312,298,ls),
(377,298,o),
(452,273,o),
(452,224,qs),
(452,181,o),
(396,145,o),
(355,145,qs),
(274,145,o)
);
}
);
width = 688;
}
);
note = uni0184;
unicode = 388;
}
{
glyphname = uni0185;
layers = (
{
layerId = m01;
shapes = (
{
closed = 1;
nodes = (
(539,49,o),
(612,175,o),
(612,276,qs),
(612,371,o),
(559,498,o),
(470,563,o),
(414,563,qs),
(356,563,o),
(283,516,o),
(263,489,q),
(256,489,l),
(259,509,o),
(263,557,o),
(263,591,qs),
(263,760,l),
(69,760,l),
(69,271,ls),
(69,184,o),
(136,58,o),
(260,-10,o),
(346,-10,qs),
(418,-10,o)
);
},
{
closed = 1;
nodes = (
(263,198,o),
(263,268,qs),
(263,302,ls),
(263,355,o),
(302,410,o),
(345,410,qs),
(374,410,o),
(415,344,o),
(415,276,qs),
(415,200,o),
(376,145,o),
(341,145,qs),
(308,145,o)
);
}
);
width = 652;
}
);
note = uni0185;
unicode = 389;
}
{
glyphname = uni0186;
layers = (
{
layerId = m01;
shapes = (
{
closed = 1;
nodes = (
(521,89,o),
(598,260,o),
(598,368,qs),
(598,476,o),
(525,636,o),
(379,724,o),
(267,724,qs),
(215,724,o),
(89,700,o),
(34,674,q),
(81,525,l),
(120,544,o),
(209,566,o),
(254,566,qs),
(322,566,o),
(400,453,o),
(400,353,qs),
(400,148,o),
(239,148,qs),
(192,148,o),
(105,174,o),
(60,193,q),
(60,30,l),
(104,11,o),
(197,-10,o),
(250,-10,qs),
(367,-10,o)
);
}
);
width = 649;
}
);
note = uni0186;
unicode = 390;
}
{
glyphname = uni0187;
layers = (
{
layerId = m01;
shapes = (
{
closed = 1;
nodes = (
(503,851,o),
(453,774,o),
(453,712,qs),
(453,717,l),
(437,720,o),
(405,724,o),
(388,724,qs),
(278,724,o),
(130,629,o),
(56,463,o),
(56,355,qs),
(56,245,o),
(122,81,o),
(263,-10,o),
(376,-10,qs),
(435,-10,o),
(528,10,o),
(580,32,q),
(580,197,l),
(523,176,o),
(434,152,o),
(391,152,qs),
(318,152,o),
(258,254,o),
(258,354,qs),
(258,452,o),
(324,562,o),
(387,562,qs),
(425,562,o),
(505,529,o),
(545,511,q),
(607,655,l),
(607,684,ls),
(607,712,o),
(631,735,o),
(653,735,qs),
(670,735,o),
(700,728,o),
(709,725,q),
(709,872,l),
(701,877,o),
(657,888,o),
(633,888,qs),
(585,888,o)
);
}
);
width = 644;
}
);
note = uni0187;
unicode = 391;
}
{
glyphname = uni0188;
layers = (
{
layerId = m01;
shapes = (
{
closed = 1;
nodes = (
(442,12,o),
(480,38,q),
(480,202,l),
(444,175,o),
(370,146,o),
(319,146,qs),
(282,146,o),
(237,202,o),
(237,275,qs),
(237,343,o),
(275,409,o),
(316,409,qs),
(348,409,o),
(409,388,o),
(444,372,q),
(502,513,l),
(502,559,ls),
(502,587,o),
(526,610,o),
(548,610,qs),
(565,610,o),
(595,603,o),
(604,600,q),
(604,747,l),
(596,752,o),
(553,764,o),
(529,764,qs),
(476,764,o),
(394,725,o),
(348,638,o),
(348,564,qs),
(348,561,l),
(341,563,o),
(323,563,o),
(315,563,qs),
(237,563,o),
(112,508,o),
(39,381,o),
(39,274,qs),
(39,171,o),
(101,46,o),
(218,-10,o),
(300,-10,qs),
(364,-10,o)
);
}
);
width = 532;
}
);
note = uni0188;
unicode = 392;
}
{
glyphname = uni018A;
layers = (
{
layerId = m01;
shapes = (
{
closed = 1;
nodes = (
(568,0,o),
(746,82,o),
(842,244,o),
(842,364,qs),
(842,479,o),
(747,634,o),
(577,714,o),
(466,714,qs),
(208,714,ls),
(130,714,o),
(41,661,o),
(3,575,o),
(3,524,qs),
(3,502,o),
(12,472,o),
(16,465,q),
(166,465,l),
(163,473,o),
(156,493,o),
(156,510,qs),
(156,527,o),
(179,554,o),
(202,554,qs),
(228,554,l),
(228,0,l),
(444,0,ls)
);
},
{
closed = 1;
nodes = (
(424,554,l),
(483,554,ls),
(559,554,o),
(639,462,o),
(639,359,qs),
(639,261,o),
(554,161,o),
(465,161,qs),
(424,161,l)
);
}
);
width = 893;
}
);
note = uni018A;
unicode = 394;
}
{
glyphname = uni018C;
layers = (
{
layerId = m01;
shapes = (
{
closed = 1;
nodes = (
(365,38,o),
(383,66,q),
(389,66,l),
(426,0,l),
(577,0,l),
(577,760,l),
(91,760,l),
(91,616,l),
(383,616,l),
(383,578,ls),
(383,560,o),
(388,516,o),
(394,480,o),
(396,474,q),
(391,474,l),
(374,500,o),
(301,548,o),
(242,548,qs),
(185,548,o),
(93,485,o),
(39,365,o),
(39,278,qs),
(39,184,o),
(91,55,o),
(181,-10,o),
(236,-10,qs),
(296,-10,o)
);
},
{
closed = 1;
nodes = (
(235,210,o),
(235,275,qs),
(235,331,o),
(277,393,o),
(309,393,qs),
(359,393,o),
(397,329,o),
(397,273,qs),
(397,254,ls),
(395,196,o),
(356,143,o),
(312,143,qs),
(278,143,o)
);
}
);
width = 650;
}
);
note = uni018C;
unicode = 396;
}
{
glyphname = uni018D;
layers = (
{
layerId = m01;
shapes = (
{
closed = 1;
nodes = (
(122,499,o),
(55,389,o),
(55,319,qs),
(55,258,o),
(92,164,o),
(183,81,o),
(262,36,qs),
(296,17,o),
(332,-6,o),
(345,-24,o),
(345,-36,qs),
(345,-52,o),
(318,-74,o),
(286,-74,qs),
(253,-74,o),
(180,-44,o),
(145,-12,q),
(74,-146,l),
(116,-181,o),
(234,-212,o),
(295,-212,qs),
(412,-212,o),
(527,-127,o),
(527,-54,qs),
(527,-4,o),
(480,67,o),
(431,95,q),
(526,128,o),
(604,251,o),
(604,329,qs),
(604,401,o),
(535,506,o),
(413,563,o),
(334,563,qs),
(247,563,o)
);
},
{
closed = 1;
nodes = (
(415,364,o),
(415,314,qs),
(415,266,o),
(367,201,o),
(324,184,q),
(289,203,o),
(247,266,o),
(247,312,qs),
(247,360,o),
(290,421,o),
(331,421,qs),
(369,421,o)
);
}
);
width = 636;
}
);
note = uni018D;
unicode = 397;
}
{
glyphname = uni018E;
layers = (
{
layerId = m01;
shapes = (
{
closed = 1;
nodes = (
(472,714,l),
(48,714,l),
(48,559,l),
(279,559,l),
(279,447,l),
(65,447,l),
(65,292,l),
(279,292,l),
(279,157,l),
(48,157,l),
(48,0,l),
(472,0,l)
);
}
);
width = 549;
}
);
note = uni018E;
unicode = 398;
}
{
glyphname = uni0190;
layers = (
{
layerId = m01;
shapes = (
{
closed = 1;
nodes = (
(65,619,o),
(65,536,qs),
(65,484,o),
(111,416,o),
(190,380,o),
(240,374,q),
(240,371,l),
(145,367,o),
(36,273,o),
(36,197,qs),
(36,137,o),
(97,43,o),
(227,-12,o),
(330,-12,qs),
(415,-12,o),
(543,8,o),
(587,26,q),
(587,188,l),
(544,166,o),
(428,141,o),
(379,141,qs),
(293,141,o),
(230,185,o),
(230,221,qs),
(230,262,o),
(338,296,o),
(431,296,qs),
(477,296,l),
(477,446,l),
(443,446,ls),
(370,446,o),
(287,463,o),
(254,495,o),
(254,515,qs),
(254,538,o),
(302,570,o),
(355,570,qs),
(406,570,o),
(492,539,o),
(527,517,q),
(606,646,l),
(550,682,o),
(423,726,o),
(331,726,qs),
(200,726,o)
);
}
);
width = 636;
}
);
note = uni0190;
unicode = 400;
}
{
glyphname = uni0191;
layers = (
{
layerId = m01;
shapes = (
{
closed = 1;
nodes = (
(377,-197,o),
(437,-104,o),
(437,-32,qs),
(437,285,l),
(627,285,l),
(627,444,l),
(437,444,l),
(437,555,l),
(644,555,l),
(644,714,l),
(247,714,l),
(247,-35,ls),
(247,-70,o),
(218,-106,o),
(193,-106,qs),
(171,-106,o),
(142,-79,o),
(142,-53,qs),
(142,-25,o),
(156,4,q),
(20,52,l),
(7,34,o),
(-12,-18,o),
(-12,-50,qs),
(-12,-138,o),
(103,-242,o),
(213,-242,qs),
(275,-242,o)
);
}
);
width = 704;
}
);
note = uni0191;
unicode = 401;
}
{
glyphname = fhook;
layers = (
{
layerId = m01;
shapes = (
{
closed = 1;
nodes = (
(366,-201,o),
(426,-111,o),
(426,-40,qs),
(426,410,l),
(544,410,l),
(544,553,l),
(426,553,l),
(426,568,ls),
(426,625,o),
(468,625,qs),
(488,625,o),
(523,619,o),
(537,615,q),
(578,739,l),
(540,752,o),
(470,765,o),
(427,765,qs),
(327,765,o),
(239,667,o),
(239,560,qs),
(239,551,l),
(162,504,l),
(162,410,l),
(235,410,l),
(235,-41,ls),
(235,-106,o),
(189,-106,qs),
(172,-106,o),
(149,-84,o),
(149,-62,qs),
(149,-47,o),
(155,-22,o),
(162,-7,q),
(22,40,l),
(12,23,o),
(-5,-27,o),
(-5,-59,qs),
(-5,-143,o),
(98,-242,o),
(204,-242,qs),
(266,-242,o)
);
}
);
width = 553;
}
);
note = fhook;
unicode = 402;
}
{
glyphname = uni0193;
layers = (
{
layerId = m01;
shapes = (
{
closed = 1;
nodes = (
(543,852,o),
(493,776,o),
(493,714,qs),
(493,722,l),
(478,723,o),
(448,724,o),
(433,724,qs),
(252,724,o),
(56,533,o),
(56,359,qs),
(56,176,o),
(226,-10,o),
(380,-10,qs),
(462,-10,o),
(586,12,o),
(644,30,q),
(644,419,l),
(352,419,l),
(352,258,l),
(452,258,l),
(452,155,l),
(439,156,o),
(412,153,o),
(388,153,qs),
(338,153,o),
(281,209,o),
(258,301,o),
(258,354,qs),
(258,448,o),
(354,561,o),
(433,561,qs),
(477,561,o),
(556,538,o),
(583,524,q),
(648,666,l),
(648,684,ls),
(648,712,o),
(671,735,o),
(693,735,qs),
(710,735,o),
(740,728,o),
(749,725,q),
(749,872,l),
(741,877,o),
(697,888,o),
(673,888,qs),
(625,888,o)
);
}
);
width = 724;
}
);
note = uni0193;
unicode = 403;
}
{
glyphname = Gammalatin;
layers = (
{
layerId = m01;
shapes = (
{
closed = 1;
nodes = (
(508,-144,o),
(508,-70,qs),
(508,-8,o),
(456,101,o),
(427,150,q),
(686,714,l),
(480,714,l),
(373,441,ls),
(360,410,o),
(343,359,o),
(335,325,q),
(328,358,o),
(313,409,o),
(301,443,qs),
(206,714,l),
(0,714,l),
(239,153,l),
(211,98,o),
(163,-12,o),
(163,-69,qs),
(163,-148,o),
(251,-240,o),
(334,-240,qs),
(417,-240,o)
);
},
{
closed = 1;
nodes = (
(307,-61,qs),
(307,-13,o),
(335,35,q),
(364,-17,o),
(364,-60,qs),
(364,-106,o),
(335,-106,qs),
(307,-106,o)
);
}
);
width = 672;
}
);
note = Gammalatin;
unicode = 404;
}
{
glyphname = uni0195;
layers = (
{
layerId = m01;
shapes = (
{
closed = 1;
nodes = (
(951,116,o),
(951,255,qs),
(951,548,l),
(756,548,l),
(756,272,ls),
(756,199,o),
(721,140,o),
(680,140,qs),
(608,140,o),
(608,238,qs),
(608,353,ls),
(608,427,o),
(557,519,o),
(468,563,o),
(412,563,qs),
(319,563,o),
(268,488,q),
(258,488,l),
(267,566,o),
(267,645,qs),
(267,760,l),
(73,760,l),
(73,0,l),
(267,0,l),
(267,241,ls),
(267,321,o),
(303,410,o),
(351,410,qs),
(383,410,o),
(414,357,o),
(414,308,qs),
(414,207,ls),
(414,92,o),
(540,-15,o),
(683,-15,qs),
(818,-15,o)
);
}
);
width = 1021;
}
);
note = uni0195;
unicode = 405;
}
{
glyphname = Iotalatin;
layers = (
{
layerId = m01;
shapes = (
{
closed = 1;
nodes = (
(408,7,o),
(434,20,q),
(434,172,l),
(411,163,o),
(371,153,o),
(344,153,qs),
(322,153,o),
(290,185,o),
(290,211,qs),
(290,714,l),
(83,714,l),
(83,196,ls),
(83,114,o),
(138,25,o),
(230,-10,o),
(285,-10,qs),
(330,-10,o)
);
}
);
width = 442;
}
);
note = Iotalatin;
unicode = 406;
}
{
glyphname = uni0197;
layers = (
{
layerId = m01;
shapes = (
{
closed = 1;
nodes = (
(23,604,l),
(115,550,l),
(115,432,l),
(23,432,l),
(23,270,l),
(115,270,l),
(115,164,l),
(23,110,l),
(23,0,l),
(405,0,l),
(405,110,l),
(312,164,l),
(312,270,l),
(405,270,l),
(405,432,l),
(312,432,l),
(312,550,l),
(405,604,l),
(405,714,l),
(23,714,l)
);
}
);
width = 427;
}
);
note = uni0197;
unicode = 407;
}
{
glyphname = uni0198;
layers = (
{
layerId = m01;
shapes = (
{
closed = 1;
nodes = (
(459,681,o),
(397,605,o),
(369,558,qs),
(339,508,ls),
(325,484,o),
(294,428,o),
(281,404,q),
(281,714,l),
(85,714,l),
(85,0,l),
(281,0,l),
(281,238,l),
(332,267,l),
(479,0,l),
(701,0,l),
(471,392,l),
(555,528,ls),
(565,543,o),
(602,568,o),
(624,568,qs),
(641,568,o),
(668,561,o),
(677,557,q),
(677,708,l),
(664,715,o),
(617,727,o),
(585,727,qs),
(536,727,o)
);
}
);
width = 701;
}
);
note = uni0198;
unicode = 408;
}
{
glyphname = uni0199;
layers = (
{
layerId = m01;
shapes = (
{
closed = 1;
nodes = (
(124,730,o),
(73,645,o),
(73,572,qs),
(73,0,l),
(267,0,l),
(267,161,l),
(321,200,l),
(458,0,l),
(681,0,l),
(450,311,l),
(670,553,l),
(453,553,l),
(326,416,ls),
(307,396,o),
(272,349,o),
(259,326,q),
(257,326,l),
(261,353,o),
(267,411,o),
(267,439,qs),
(267,569,ls),
(267,595,o),
(289,615,o),
(308,615,qs),
(325,615,o),
(356,608,o),
(363,605,q),
(363,750,l),
(352,755,o),
(302,768,o),
(275,768,qs),
(216,768,o)
);
}
);
width = 681;
}
);
note = uni0199;
unicode = 409;
}
{
glyphname = uni019A;
layers = (
{
layerId = m01;
shapes = (
{
closed = 1;
nodes = (
(257,298,l),
(317,298,l),
(317,430,l),
(257,430,l),
(257,760,l),
(66,760,l),
(66,430,l),
(7,430,l),
(7,298,l),
(66,298,l),
(66,0,l),
(257,0,l)
);
}
);
width = 323;
}
);
note = uni019A;
unicode = 410;
}
{
glyphname = uni019B;
layers = (
{
layerId = m01;
shapes = (
{
closed = 1;
nodes = (
(286,224,ls),
(293,241,o),
(308,288,o),
(315,312,q),
(319,312,l),
(322,295,o),
(335,249,o),
(345,219,qs),
(376,132,ls),
(400,64,o),
(485,-7,o),
(562,-7,qs),
(598,-7,o),
(643,4,o),
(656,9,q),
(656,145,l),
(647,143,o),
(627,140,o),
(616,140,qs),
(589,140,o),
(553,167,o),
(535,217,qs),
(407,575,l),
(480,598,l),
(448,703,l),
(360,673,l),
(329,724,o),
(233,766,o),
(159,766,qs),
(147,766,o),
(110,764,o),
(76,760,o),
(67,758,q),
(67,623,l),
(83,627,o),
(111,631,o),
(127,631,qs),
(145,631,o),
(177,622,o),
(185,613,q),
(107,592,l),
(139,492,l),
(236,522,l),
(238,516,l),
(0,0,l),
(198,0,l)
);
}
);
width = 665;
}
);
note = uni019B;
unicode = 411;
}
{
glyphname = uni019C;
layers = (
{
layerId = m01;
shapes = (
{
closed = 1;
nodes = (
(417,29,o),
(446,69,q),
(455,69,l),
(482,31,o),
(561,-10,o),
(614,-10,qs),
(661,-10,o),
(754,31,o),
(782,74,q),
(793,74,l),
(819,0,l),
(967,0,l),
(967,714,l),
(769,714,l),
(769,318,ls),
(769,242,o),
(733,153,o),
(679,153,qs),
(622,153,o),
(622,249,qs),
(622,714,l),
(426,714,l),
(426,304,ls),
(426,234,o),
(386,153,o),
(336,153,qs),
(280,153,o),
(280,249,qs),
(280,714,l),
(83,714,l),
(83,188,ls),
(83,117,o),
(136,30,o),
(228,-10,o),
(286,-10,qs),
(333,-10,o)
);
}
);
width = 1057;
}
);
note = uni019C;
unicode = 412;
}
{
glyphname = uni019D;
layers = (
{
layerId = m01;
shapes = (
{
closed = 1;
nodes = (
(259,-174,o),
(259,-68,qs),
(259,279,ls),
(259,324,o),
(255,410,o),
(251,479,o),
(249,498,q),
(253,498,l),
(513,0,l),
(769,0,l),
(769,714,l),
(594,714,l),
(594,434,ls),
(594,406,o),
(596,340,o),
(599,277,o),
(602,231,o),
(602,223,q),
(599,223,l),
(339,714,l),
(85,714,l),
(85,-61,ls),
(85,-89,o),
(57,-115,o),
(37,-115,qs),
(20,-115,o),
(-11,-107,o),
(-18,-105,q),
(-18,-250,l),
(-7,-254,o),
(35,-267,o),
(63,-267,qs),
(150,-267,o)
);
}
);
width = 854;
}
);
note = uni019D;
unicode = 413;
}
{
glyphname = Ohorn;
kernLeft = C;
kernRight = Ohorn;
layers = (
{
layerId = m01;
shapes = (
{
closed = 1;
nodes = (
(727,521,q),
(790,548,o),
(865,652,o),
(885,749,q),
(878,760,l),
(695,760,l),
(695,714,o),
(676,654,o),
(663,630,q),
(622,676,o),
(490,725,o),
(401,725,qs),
(281,725,o),
(126,635,o),
(51,470,o),
(51,359,qs),
(51,248,o),
(125,82,o),
(279,-10,o),
(398,-10,qs),
(521,-10,o),
(674,82,o),
(746,247,o),
(746,358,qs),
(746,449,o)
);
},
{
closed = 1;
nodes = (
(322,567,o),
(399,567,qs),
(477,567,o),
(543,456,o),
(543,358,qs),
(543,261,o),
(477,151,o),
(398,151,qs),
(322,151,o),
(254,261,o),
(254,358,qs),
(254,456,o)
);
}
);
width = 845;
}
);
note = Ohorn;
unicode = 416;
}
{
glyphname = ohorn;
kernLeft = c;
kernRight = ohorn;
layers = (
{
layerId = m01;
shapes = (
{
closed = 1;
nodes = (
(576,400,q),
(643,418,o),
(715,485,o),
(749,574,o),
(758,624,q),
(751,635,l),
(567,635,l),
(567,581,o),
(540,508,o),
(516,497,q),
(480,530,o),
(376,563,o),
(320,563,qs),
(190,563,o),
(42,415,o),
(42,278,qs),
(42,186,o),
(113,57,o),
(237,-10,o),
(317,-10,qs),
(446,-10,o),
(594,139,o),
(594,278,qs),
(594,346,o)
);
},
{
closed = 1;
nodes = (
(275,411,o),
(318,411,qs),
(362,411,o),
(400,346,o),
(400,278,qs),
(400,211,o),
(362,142,o),
(319,142,qs),
(275,142,o),
(237,211,o),
(237,278,qs),
(237,346,o)
);
}
);
width = 722;
}
);
note = ohorn;
unicode = 417;
}
{
glyphname = uni01A2;
layers = (
{
layerId = m01;
shapes = (
{
closed = 1;
nodes = (
(725,501,o),
(709,540,q),
(724,548,o),
(765,563,o),
(802,563,qs),
(842,563,o),
(883,512,o),
(883,465,qs),
(883,0,l),
(1080,0,l),
(1080,481,ls),
(1080,568,o),
(1022,675,o),
(922,725,o),
(859,725,qs),
(786,725,o),
(683,676,o),
(643,640,q),
(602,681,o),
(480,725,o),
(398,725,qs),
(279,725,o),
(127,635,o),
(56,470,o),
(56,359,qs),
(56,245,o),
(127,80,o),
(278,-10,o),
(397,-10,qs),
(517,-10,o),
(668,79,o),
(739,244,o),
(739,358,qs),
(739,409,o)
);
},
{
closed = 1;
nodes = (
(325,564,o),
(398,564,qs),
(450,564,o),
(509,513,o),
(533,421,o),
(533,358,qs),
(533,261,o),
(471,153,o),
(397,153,qs),
(325,153,o),
(262,260,o),
(262,358,qs),
(262,457,o)
);
}
);
width = 1161;
}
);
note = uni01A2;
unicode = 418;
}
{
glyphname = uni01A3;
layers = (
{
layerId = m01;
shapes = (
{
closed = 1;
nodes = (
(560,358,o),
(555,381,q),
(577,410,o),
(629,410,qs),
(670,410,o),
(706,354,o),
(706,303,qs),
(706,-240,l),
(900,-240,l),
(900,356,ls),
(900,430,o),
(846,521,o),
(751,563,o),
(689,563,qs),
(634,563,o),
(538,526,o),
(500,478,q),
(463,522,o),
(365,563,o),
(304,563,qs),
(184,563,o),
(39,419,o),
(39,278,qs),
(39,180,o),
(108,52,o),
(226,-10,o),
(301,-10,qs),
(420,-10,o),
(566,135,o),
(566,278,qs),
(566,307,o)
);
},
{
closed = 1;
nodes = (
(265,409,o),
(302,409,qs),
(338,409,o),
(368,349,o),
(368,278,qs),
(368,206,o),
(338,144,o),
(303,144,qs),
(267,144,o),
(237,207,o),
(237,278,qs),
(237,346,o)
);
}
);
width = 964;
}
);
note = uni01A3;
unicode = 419;
}
{
glyphname = uni01A4;
layers = (
{
layerId = m01;
shapes = (
{
closed = 1;
nodes = (
(424,236,l),
(469,236,ls),
(555,236,o),
(665,280,o),
(726,353,o),
(749,440,o),
(749,483,qs),
(749,588,o),
(623,714,o),
(480,714,qs),
(208,714,ls),
(130,714,o),
(41,661,o),
(3,575,o),
(3,524,qs),
(3,502,o),
(12,472,o),
(16,465,q),
(166,465,l),
(163,473,o),
(156,493,o),
(156,510,qs),
(156,527,o),
(179,554,o),
(202,554,qs),
(228,554,l),
(228,0,l),
(424,0,l)
);
},
{
closed = 1;
nodes = (
(424,554,l),
(471,554,ls),
(552,554,o),
(552,477,qs),
(552,438,o),
(497,396,o),
(453,396,qs),
(424,396,l)
);
}
);
width = 786;
}
);
note = uni01A4;
unicode = 420;
}
{
glyphname = uni01A5;
layers = (
{
layerId = m01;
shapes = (
{
closed = 1;
nodes = (
(123,729,o),
(73,647,o),
(73,578,qs),
(73,-240,l),
(267,-240,l),
(267,-15,ls),
(267,6,o),
(265,41,o),
(262,46,q),
(269,46,l),
(288,27,o),
(354,-10,o),
(412,-10,qs),
(468,-10,o),
(558,52,o),
(611,180,o),
(611,278,qs),
(611,372,o),
(558,498,o),
(468,563,o),
(411,563,qs),
(356,563,o),
(287,515,o),
(267,486,q),
(261,486,l),
(263,513,o),
(267,547,o),
(267,567,qs),
(267,573,ls),
(267,594,o),
(288,612,o),
(304,612,qs),
(321,612,o),
(350,604,o),
(354,602,q),
(354,748,l),
(345,753,o),
(298,765,o),
(270,765,qs),
(212,765,o)
);
},
{
closed = 1;
nodes = (
(413,346,o),
(413,282,qs),
(413,210,o),
(379,146,o),
(345,146,qs),
(302,146,o),
(267,216,o),
(267,280,qs),
(267,296,ls),
(269,355,o),
(301,410,o),
(342,410,qs),
(380,410,o)
);
}
);
width = 650;
}
);
note = uni01A5;
unicode = 421;
}
{
glyphname = uni01A6;
layers = (
{
layerId = m01;
shapes = (
{
closed = 1;
nodes = (
(482,205,l),
(510,222,o),
(567,271,o),
(606,343,o),
(606,392,qs),
(606,505,o),
(462,614,o),
(310,614,qs),
(281,614,l),
(281,714,l),
(85,714,l),
(85,0,l),
(281,0,l),
(281,157,l),
(319,157,l),
(483,-100,l),
(700,-100,l)
);
},
{
closed = 1;
nodes = (
(281,454,l),
(295,454,ls),
(357,454,o),
(409,422,o),
(409,388,qs),
(409,353,o),
(359,316,o),
(291,316,qs),
(281,316,l)
);
}
);
width = 690;
}
);
note = uni01A6;
unicode = 422;
}
{
glyphname = uni01A7;
layers = (
{
layerId = m01;
shapes = (
{
closed = 1;
nodes = (
(99,694,o),
(44,669,q),
(101,517,l),
(153,538,o),
(232,561,o),
(270,561,qs),
(300,561,o),
(325,541,o),
(325,524,qs),
(325,497,o),
(269,455,o),
(196,423,qs),
(116,385,o),
(39,277,o),
(39,199,qs),
(39,136,o),
(88,42,o),
(197,-10,o),
(285,-10,qs),
(348,-10,o),
(466,18,o),
(513,42,q),
(513,202,l),
(455,180,o),
(348,151,o),
(297,151,qs),
(257,151,o),
(230,178,o),
(230,198,qs),
(230,226,o),
(294,270,o),
(345,294,qs),
(373,308,o),
(433,343,o),
(485,393,o),
(517,466,o),
(517,517,qs),
(517,616,o),
(397,724,o),
(287,724,qs),
(220,724,o)
);
}
);
width = 554;
}
);
note = uni01A7;
unicode = 423;
}
{
glyphname = uni01A8;
layers = (
{
layerId = m01;
shapes = (
{
closed = 1;
nodes = (
(100,542,o),
(46,516,q),
(97,379,l),
(141,399,o),
(208,423,o),
(242,423,qs),
(261,423,o),
(286,412,o),
(286,402,qs),
(286,399,o),
(275,386,o),
(232,364,o),
(182,345,qs),
(111,317,o),
(38,229,o),
(38,161,qs),
(38,-10,o),
(274,-10,qs),
(327,-10,o),
(414,7,o),
(460,32,q),
(460,174,l),
(412,147,o),
(321,128,o),
(286,128,qs),
(259,128,o),
(229,140,o),
(229,155,qs),
(229,158,o),
(231,168,o),
(248,184,o),
(294,208,o),
(338,226,qs),
(391,248,o),
(453,296,o),
(479,360,o),
(479,405,qs),
(479,459,o),
(421,529,o),
(323,563,o),
(262,563,qs),
(209,563,o)
);
}
);
width = 511;
}
);
note = uni01A8;
unicode = 424;
}
{
glyphname = uni01AA;
layers = (
{
layerId = m01;
shapes = (
{
closed = 1;
nodes = (
(-10,702,o),
(-10,654,qs),
(-10,598,o),
(61,525,o),
(140,525,qs),
(142,525,l),
(142,-46,ls),
(142,-124,o),
(195,-208,o),
(285,-240,o),
(340,-240,qs),
(387,-240,o),
(468,-223,o),
(495,-210,q),
(495,-68,l),
(467,-77,o),
(415,-88,o),
(387,-88,qs),
(365,-88,o),
(336,-67,o),
(336,-49,qs),
(336,572,ls),
(336,632,o),
(301,722,o),
(217,772,o),
(145,772,qs),
(68,772,o)
);
},
{
closed = 1;
nodes = (
(142,657,o),
(142,642,qs),
(142,618,l),
(140,618,ls),
(121,618,o),
(99,641,o),
(99,652,qs),
(99,660,o),
(111,673,o),
(117,673,qs),
(127,673,o)
);
}
);
width = 443;
}
);
note = uni01AA;
unicode = 426;
}
{
glyphname = uni01AB;
layers = (
{
layerId = m01;
shapes = (
{
closed = 1;
nodes = (
(444,-153,o),
(444,-51,qs),
(444,164,l),
(418,155,o),
(369,143,o),
(344,143,qs),
(322,143,o),
(289,166,o),
(289,199,qs),
(289,409,l),
(441,409,l),
(441,553,l),
(289,553,l),
(289,663,l),
(163,663,l),
(111,551,l),
(28,488,l),
(28,409,l),
(95,409,l),
(95,182,ls),
(95,124,o),
(126,48,o),
(177,7,o),
(240,-10,o),
(271,-10,qs),
(284,-10,l),
(284,-53,ls),
(284,-84,o),
(265,-103,o),
(242,-103,qs),
(230,-103,o),
(207,-98,o),
(198,-95,q),
(198,-226,l),
(234,-240,o),
(287,-240,qs),
(365,-240,o)
);
}
);
width = 479;
}
);
note = uni01AB;
unicode = 427;
}
{
glyphname = uni01AC;
layers = (
{
layerId = m01;
shapes = (
{
closed = 1;
nodes = (
(457,552,l),
(634,552,l),
(634,714,l),
(208,714,ls),
(130,714,o),
(41,661,o),
(3,575,o),
(3,524,qs),
(3,502,o),
(12,472,o),
(16,465,q),
(166,465,l),
(163,473,o),
(156,492,o),
(156,507,qs),
(156,524,o),
(179,552,o),
(202,552,qs),
(260,552,l),
(260,0,l),
(457,0,l)
);
}
);
width = 660;
}
);
note = uni01AC;
unicode = 428;
}
{
glyphname = uni01AD;
layers = (
{
layerId = m01;
shapes = (
{
closed = 1;
nodes = (
(149,729,o),
(95,647,o),
(95,578,qs),
(95,541,l),
(28,488,l),
(28,409,l),
(95,409,l),
(95,182,ls),
(95,104,o),
(147,21,o),
(232,-10,o),
(282,-10,qs),
(332,-10,o),
(417,8,o),
(444,21,q),
(444,164,l),
(418,155,o),
(369,143,o),
(344,143,qs),
(322,143,o),
(289,161,o),
(289,179,qs),
(289,409,l),
(441,409,l),
(441,553,l),
(289,553,l),
(289,572,ls),
(289,592,o),
(312,612,o),
(338,612,qs),
(361,612,o),
(407,603,o),
(417,600,q),
(417,747,l),
(402,752,o),
(345,765,o),
(313,765,qs),
(247,765,o)
);
}
);
width = 479;
}
);
note = uni01AD;
unicode = 429;
}
{
glyphname = uni01AE;
layers = (
{
layerId = m01;
shapes = (
{
closed = 1;
nodes = (
(490,-255,o),
(503,-250,q),
(503,-105,l),
(496,-107,o),
(466,-115,o),
(448,-115,qs),
(429,-115,o),
(400,-90,o),
(400,-61,qs),
(400,552,l),
(577,552,l),
(577,714,l),
(27,714,l),
(27,552,l),
(204,552,l),
(204,-64,ls),
(204,-173,o),
(311,-267,o),
(406,-267,qs),
(435,-267,o)
);
}
);
width = 604;
}
);
note = uni01AE;
unicode = 430;
}
{
glyphname = Uhorn;
kernLeft = U;
kernRight = Uhorn;
layers = (
{
layerId = m01;
shapes = (
{
closed = 1;
nodes = (
(491,714,l),
(491,277,ls),
(491,207,o),
(435,151,o),
(377,151,qs),
(322,151,o),
(267,201,o),
(267,276,qs),
(267,714,l),
(73,714,l),
(73,254,ls),
(73,135,o),
(226,-10,o),
(371,-10,qs),
(473,-10,o),
(612,59,o),
(684,178,o),
(684,252,qs),
(684,506,l),
(755,515,o),
(846,560,o),
(901,626,o),
(931,705,o),
(940,749,q),
(933,760,l),
(749,760,l),
(749,714,o),
(719,633,o),
(684,615,q),
(684,714,l)
);
}
);
width = 900;
}
);
note = Uhorn;
unicode = 431;
}
{
glyphname = uhorn;
kernLeft = m;
kernRight = uhorn;
layers = (
{
layerId = m01;
shapes = (
{
closed = 1;
nodes = (
(655,634,l),
(655,585,o),
(630,502,o),
(604,488,q),
(604,553,l),
(412,553,l),
(412,311,ls),
(412,229,o),
(376,141,o),
(322,141,qs),
(287,141,o),
(256,197,o),
(256,251,qs),
(256,553,l),
(65,553,l),
(65,193,ls),
(65,122,o),
(116,32,o),
(203,-10,o),
(257,-10,qs),
(307,-10,o),
(397,27,o),
(423,69,q),
(436,69,l),
(460,0,l),
(604,0,l),
(604,378,l),
(671,389,o),
(758,435,o),
(809,499,o),
(837,578,o),
(846,623,q),
(839,634,l)
);
}
);
width = 810;
}
);
note = uhorn;
unicode = 432;
}
{
glyphname = Upsilonlatin;
layers = (
{
layerId = m01;
shapes = (
{
closed = 1;
nodes = (
(249,236,o),
(249,323,qs),
(249,370,o),
(265,456,o),
(309,519,o),
(352,533,q),
(352,714,l),
(21,714,l),
(21,551,l),
(198,551,l),
(154,532,o),
(86,453,o),
(47,344,o),
(47,279,qs),
(47,193,o),
(133,63,o),
(290,-10,o),
(395,-10,qs),
(503,-10,o),
(660,61,o),
(744,190,o),
(744,277,qs),
(744,338,o),
(708,447,o),
(642,531,o),
(597,551,q),
(770,551,l),
(770,714,l),
(442,714,l),
(442,533,l),
(484,519,o),
(527,457,o),
(542,373,o),
(542,325,qs),
(542,236,o),
(463,153,o),
(395,153,qs),
(328,153,o)
);
}
);
width = 791;
}
);
note = Upsilonlatin;
unicode = 433;
}
{
glyphname = uni01B2;
layers = (
{
layerId = m01;
shapes = (
{
closed = 1;
nodes = (
(684,149,o),
(684,284,qs),
(684,566,ls),
(684,634,o),
(599,725,o),
(504,725,qs),
(469,725,o),
(405,709,o),
(385,698,q),
(385,547,l),
(403,555,o),
(433,562,o),
(448,562,qs),
(465,562,o),
(491,544,o),
(491,521,qs),
(491,296,ls),
(491,220,o),
(438,151,o),
(379,151,qs),
(324,151,o),
(267,219,o),
(267,295,qs),
(267,714,l),
(73,714,l),
(73,280,ls),
(73,141,o),
(228,-10,o),
(376,-10,qs),
(531,-10,o)
);
}
);
width = 757;
}
);
note = uni01B2;
unicode = 434;
}
{
glyphname = uni01B3;
layers = (
{
layerId = m01;
shapes = (
{
closed = 1;
nodes = (
(429,279,l),
(518,447,ls),
(547,501,o),
(580,550,o),
(605,563,o),
(622,563,qs),
(629,563,o),
(653,557,o),
(660,553,q),
(660,703,l),
(645,711,o),
(594,724,o),
(568,724,qs),
(499,724,o),
(421,646,o),
(390,578,qs),
(332,449,l),
(210,714,l),
(0,714,l),
(235,273,l),
(235,0,l),
(429,0,l)
);
}
);
width = 670;
}
);
note = uni01B3;
unicode = 435;
}
{
glyphname = uni01B4;
layers = (
{
layerId = m01;
shapes = (
{
closed = 1;
nodes = (
(435,520,o),
(393,453,o),
(381,420,qs),
(342,311,ls),
(335,291,o),
(324,239,o),
(321,221,q),
(318,221,l),
(314,258,o),
(303,312,o),
(301,319,qs),
(227,553,l),
(14,553,l),
(238,6,l),
(235,-5,ls),
(223,-49,o),
(159,-86,o),
(118,-86,qs),
(106,-86,o),
(71,-82,o),
(63,-81,q),
(63,-233,l),
(75,-235,o),
(120,-240,o),
(139,-240,qs),
(237,-240,o),
(376,-144,o),
(408,-56,qs),
(529,281,ls),
(548,332,o),
(578,384,o),
(608,402,o),
(625,402,qs),
(639,402,o),
(661,397,q),
(661,544,l),
(645,552,o),
(585,564,o),
(559,564,qs),
(505,564,o)
);
}
);
width = 669;
}
);
note = uni01B4;
unicode = 436;
}
{
glyphname = uni01B5;
layers = (
{
layerId = m01;
shapes = (
{
closed = 1;
nodes = (
(124,273,l),
(17,125,l),
(17,0,l),
(564,0,l),
(564,160,l),
(248,160,l),
(329,273,l),
(510,273,l),
(510,434,l),
(443,434,l),
(555,589,l),
(555,714,l),
(21,714,l),
(21,554,l),
(325,554,l),
(237,434,l),
(59,434,l),
(59,273,l)
);
}
);
width = 580;
}
);
note = uni01B5;
unicode = 437;
}
{
glyphname = uni01B6;
layers = (
{
layerId = m01;
shapes = (
{
closed = 1;
nodes = (
(37,407,l),
(253,407,l),
(200,338,l),
(41,338,l),
(41,216,l),
(106,216,l),
(24,109,l),
(24,0,l),
(482,0,l),
(482,146,l),
(252,146,l),
(305,216,l),
(467,216,l),
(467,338,l),
(397,338,l),
(471,435,l),
(471,553,l),
(37,553,l)
);
}
);
width = 507;
}
);
note = uni01B6;
unicode = 438;
}
{
glyphname = uni01B8;
layers = (
{
layerId = m01;
shapes = (
{
closed = 1;
nodes = (
(532,9,o),
(583,28,q),
(583,192,l),
(533,169,o),
(415,143,o),
(370,143,qs),
(290,143,o),
(228,186,o),
(228,224,qs),
(228,245,o),
(262,277,o),
(346,295,o),
(420,295,qs),
(472,295,l),
(472,430,l),
(335,554,l),
(557,554,l),
(557,714,l),
(68,714,l),
(68,594,l),
(255,424,l),
(149,411,o),
(34,305,o),
(34,208,qs),
(34,145,o),
(104,46,o),
(246,-10,o),
(352,-10,qs),
(420,-10,o)
);
}
);
width = 604;
}
);
note = uni01B8;
unicode = 440;
}
{
glyphname = uni01B9;
layers = (
{
layerId = m01;
shapes = (
{
closed = 1;
nodes = (
(535,-218,o),
(586,-196,q),
(586,-34,l),
(536,-59,o),
(416,-86,o),
(372,-86,qs),
(318,-86,o),
(259,-55,o),
(236,-7,o),
(236,18,qs),
(236,46,o),
(265,93,o),
(345,122,o),
(420,122,qs),
(476,122,l),
(476,258,l),
(304,407,l),
(582,407,l),
(582,553,l),
(66,553,l),
(66,428,l),
(263,262,l),
(181,245,o),
(83,169,o),
(40,66,o),
(40,6,qs),
(41,-64,o),
(105,-175,o),
(239,-239,o),
(344,-240,qs),
(418,-240,o)
);
}
);
width = 635;
}
);
note = uni01B9;
unicode = 441;
}
{
glyphname = uni01BA;
layers = (
{
layerId = m01;
shapes = (
{
closed = 1;
nodes = (
(449,-213,o),
(489,-196,q),
(489,-58,l),
(453,-70,o),
(341,-101,o),
(269,-101,qs),
(232,-101,o),
(188,-84,o),
(188,-62,qs),
(188,-42,o),
(230,-25,o),
(279,-21,qs),
(361,-15,o),
(460,16,o),
(512,62,o),
(530,121,o),
(530,157,qs),
(530,219,o),
(474,287,o),
(385,316,o),
(337,318,q),
(498,435,l),
(498,553,l),
(47,553,l),
(47,418,l),
(280,418,l),
(141,309,l),
(141,210,l),
(205,210,ls),
(276,210,o),
(334,190,o),
(334,162,qs),
(334,134,o),
(280,115,o),
(220,108,qs),
(146,100,o),
(60,52,o),
(24,-20,o),
(24,-66,qs),
(24,-125,o),
(81,-202,o),
(180,-240,o),
(243,-240,qs),
(317,-240,o)
);
}
);
width = 560;
}
);
note = uni01BA;
unicode = 442;
}
{
glyphname = uni01BB;
layers = (
{
layerId = m01;
shapes = (
{
closed = 1;
nodes = (
(96,721,o),
(32,670,o),
(13,651,q),
(107,535,l),
(136,566,o),
(198,608,o),
(241,608,qs),
(273,608,o),
(313,567,o),
(313,539,qs),
(313,513,o),
(306,459,o),
(281,428,q),
(21,428,l),
(21,306,l),
(179,306,l),
(14,142,l),
(14,0,l),
(537,0,l),
(537,144,l),
(242,144,l),
(242,153,l),
(396,306,l),
(539,306,l),
(539,428,l),
(483,428,l),
(500,460,o),
(508,518,o),
(508,551,qs),
(508,608,o),
(449,703,o),
(340,761,o),
(264,761,qs),
(194,761,o)
);
}
);
width = 570;
}
);
note = uni01BB;
unicode = 443;
}
{
glyphname = uni01BC;
layers = (
{
layerId = m01;
shapes = (
{
closed = 1;
nodes = (
(507,55,o),
(572,171,o),
(572,245,qs),
(572,322,o),
(509,416,o),
(396,459,o),
(320,459,qs),
(307,459,l),
(307,546,l),
(553,546,l),
(553,714,l),
(24,714,l),
(24,546,l),
(132,546,l),
(132,309,l),
(249,309,ls),
(314,309,o),
(374,274,o),
(374,230,qs),
(374,185,o),
(297,149,o),
(234,149,qs),
(195,149,o),
(116,162,o),
(49,183,o),
(28,194,q),
(28,28,l),
(60,15,o),
(176,-10,o),
(249,-10,qs),
(365,-10,o)
);
}
);
width = 610;
}
);
note = uni01BC;
unicode = 444;
}
{
glyphname = uni01BD;
layers = (
{
layerId = m01;
shapes = (
{
closed = 1;
nodes = (
(561,95,o),
(561,183,qs),
(561,272,o),
(454,353,o),
(347,353,qs),
(310,353,l),
(310,410,l),
(541,410,l),
(541,553,l),
(44,553,l),
(44,410,l),
(139,410,l),
(139,230,l),
(269,230,ls),
(320,230,o),
(374,213,o),
(374,190,qs),
(374,166,o),
(325,140,o),
(263,138,qs),
(220,137,o),
(134,148,o),
(65,167,o),
(47,175,q),
(47,21,l),
(74,11,o),
(186,-11,o),
(253,-11,qs),
(415,-11,o)
);
}
);
width = 605;
}
);
note = uni01BD;
unicode = 445;
}
{
glyphname = uni01BE;
layers = (
{
layerId = m01;
shapes = (
{
closed = 1;
nodes = (
(437,40,o),
(484,124,o),
(484,174,qs),
(484,233,o),
(417,301,o),
(364,326,qs),
(330,343,o),
(305,370,o),
(305,391,qs),
(305,409,l),
(435,409,l),
(435,553,l),
(305,553,l),
(305,663,l),
(179,663,l),
(127,551,l),
(22,488,l),
(22,409,l),
(124,409,l),
(124,376,ls),
(124,331,o),
(149,272,o),
(203,231,o),
(245,212,qs),
(271,201,o),
(296,181,o),
(296,165,qs),
(296,146,o),
(266,128,o),
(228,128,qs),
(194,128,o),
(118,145,o),
(52,170,o),
(31,182,q),
(31,30,l),
(55,18,o),
(125,0,o),
(203,-10,o),
(236,-10,qs),
(329,-10,o)
);
}
);
width = 519;
}
);
note = uni01BE;
unicode = 446;
}
{
glyphname = uni01BF;
layers = (
{
layerId = m01;
shapes = (
{
closed = 1;
nodes = (
(285,518,o),
(265,489,q),
(256,489,l),
(230,553,l),
(73,553,l),
(73,-240,l),
(267,-240,l),
(267,-17,l),
(390,-8,o),
(544,85,o),
(617,226,o),
(617,307,qs),
(617,432,o),
(505,563,o),
(413,563,qs),
(356,563,o)
);
},
{
closed = 1;
nodes = (
(419,354,o),
(419,306,qs),
(419,224,o),
(334,137,o),
(267,129,q),
(267,297,ls),
(267,350,o),
(304,406,o),
(344,406,qs),
(382,406,o)
);
}
);
width = 650;
}
);
note = uni01BF;
unicode = 447;
}
{
glyphname = uni01C0;
layers = (
{
layerId = m01;
shapes = (
{
closed = 1;
nodes = (
(252,760,l),
(105,760,l),
(105,0,l),
(252,0,l)
);
}
);
width = 357;
}
);
note = uni01C0;
unicode = 448;
}
{
glyphname = uni01C2;
layers = (
{
layerId = m01;
shapes = (
{
closed = 1;
nodes = (
(184,563,l),
(43,563,l),
(43,427,l),
(184,427,l),
(184,354,l),
(43,354,l),
(43,218,l),
(184,218,l),
(184,0,l),
(331,0,l),
(331,218,l),
(475,218,l),
(475,354,l),
(331,354,l),
(331,427,l),
(475,427,l),
(475,563,l),
(331,563,l),
(331,760,l),
(184,760,l)
);
}
);
width = 516;
}
);
note = uni01C2;
unicode = 450;
}
{
glyphname = uni01D5;
layers = (
{
layerId = m01;
shapes = (
{
closed = 1;
nodes = (
(204,921,l),
(557,921,l),
(557,1028,l),
(204,1028,l)
);
},
{
closed = 1;
nodes = (
(203,860,o),
(203,826,qs),
(203,795,o),
(242,759,o),
(277,759,qs),
(311,759,o),
(352,795,o),
(352,826,qs),
(352,860,o),
(311,894,o),
(277,894,qs),
(242,894,o)
);
},
{
closed = 1;
nodes = (
(407,860,o),
(407,826,qs),
(407,795,o),
(446,759,o),
(480,759,qs),
(513,759,o),
(555,795,o),
(555,826,qs),
(555,860,o),
(513,894,o),
(480,894,qs),
(446,894,o)
);
},
{
closed = 1;
nodes = (
(491,714,l),
(491,296,ls),
(491,220,o),
(438,151,o),
(379,151,qs),
(324,151,o),
(267,219,o),
(267,295,qs),
(267,714,l),
(73,714,l),
(73,280,ls),
(73,141,o),
(228,-10,o),
(376,-10,qs),
(531,-10,o),
(684,149,o),
(684,284,qs),
(684,714,l)
);
}
);
width = 757;
}
);
note = uni01D5;
unicode = 469;
}
{
glyphname = uni01D6;
layers = (
{
layerId = m01;
shapes = (
{
closed = 1;
nodes = (
(160,760,l),
(513,760,l),
(513,867,l),
(160,867,l)
);
},
{
closed = 1;
nodes = (
(159,699,o),
(159,665,qs),
(159,634,o),
(198,598,o),
(233,598,qs),
(267,598,o),
(308,634,o),
(308,665,qs),
(308,699,o),
(267,733,o),
(233,733,qs),
(198,733,o)
);
},
{
closed = 1;
nodes = (
(363,699,o),
(363,665,qs),
(363,634,o),
(402,598,o),
(436,598,qs),
(469,598,o),
(511,634,o),
(511,665,qs),
(511,699,o),
(469,733,o),
(436,733,qs),
(402,733,o)
);
},
{
closed = 1;
nodes = (
(413,311,ls),
(413,229,o),
(376,141,o),
(322,141,qs),
(287,141,o),
(256,197,o),
(256,251,qs),
(256,553,l),
(65,553,l),
(65,193,ls),
(65,122,o),
(116,32,o),
(204,-10,o),
(258,-10,qs),
(309,-10,o),
(399,27,o),
(425,69,q),
(436,69,l),
(460,0,l),
(604,0,l),
(604,553,l),
(413,553,l)
);
}
);
width = 670;
}
);
note = uni01D6;
unicode = 470;
}
{
glyphname = uni01D8;
layers = (
{
layerId = m01;
shapes = (
{
closed = 1;
nodes = (
(389,742,l),
(414,758,o),
(473,806,o),
(530,857,o),
(551,877,q),
(551,887,l),
(352,887,l),
(332,853,o),
(289,784,o),
(263,756,q),
(263,742,l)
);
},
{
closed = 1;
nodes = (
(308,634,o),
(308,665,qs),
(308,699,o),
(267,733,o),
(233,733,qs),
(198,733,o),
(159,699,o),
(159,665,qs),
(159,634,o),
(198,598,o),
(233,598,qs),
(267,598,o)
);
},
{
closed = 1;
nodes = (
(511,634,o),
(511,665,qs),
(511,699,o),
(469,733,o),
(436,733,qs),
(402,733,o),
(363,699,o),
(363,665,qs),
(363,634,o),
(402,598,o),
(436,598,qs),
(469,598,o)
);
},
{
closed = 1;
nodes = (
(413,311,ls),
(413,229,o),
(376,141,o),
(322,141,qs),
(287,141,o),
(256,197,o),
(256,251,qs),
(256,553,l),
(65,553,l),
(65,193,ls),
(65,122,o),
(116,32,o),
(204,-10,o),
(258,-10,qs),
(309,-10,o),
(399,27,o),
(425,69,q),
(436,69,l),
(460,0,l),
(604,0,l),
(604,553,l),
(413,553,l)
);
}
);
width = 670;
}
);
note = uni01D8;
unicode = 472;
}
{
glyphname = uni01D9;
layers = (
{
layerId = m01;
shapes = (
{
closed = 1;
nodes = (
(487,944,o),
(544,1005,o),
(569,1031,q),
(569,1044,l),
(496,1044,l),
(466,1031,o),
(406,996,o),
(380,975,q),
(329,1017,o),
(263,1044,q),
(189,1044,l),
(189,1031,l),
(219,1003,o),
(273,944,o),
(298,910,q),
(461,910,l)
);
},
{
closed = 1;
nodes = (
(352,795,o),
(352,826,qs),
(352,860,o),
(311,894,o),
(277,894,qs),
(242,894,o),
(203,860,o),
(203,826,qs),
(203,795,o),
(242,759,o),
(277,759,qs),
(311,759,o)
);
},
{
closed = 1;
nodes = (
(555,795,o),
(555,826,qs),
(555,860,o),
(513,894,o),
(480,894,qs),
(446,894,o),
(407,860,o),
(407,826,qs),
(407,795,o),
(446,759,o),
(480,759,qs),
(513,759,o)
);
},
{
closed = 1;
nodes = (
(491,714,l),
(491,296,ls),
(491,220,o),
(438,151,o),
(379,151,qs),
(324,151,o),
(267,219,o),
(267,295,qs),
(267,714,l),
(73,714,l),
(73,280,ls),
(73,141,o),
(228,-10,o),
(376,-10,qs),
(531,-10,o),
(684,149,o),
(684,284,qs),
(684,714,l)
);
}
);
width = 757;
}
);
note = uni01D9;
unicode = 473;
}
{
glyphname = uni01DE;
layers = (
{
layerId = m01;
shapes = (
{
closed = 1;
nodes = (
(188,921,l),
(541,921,l),
(541,1028,l),
(188,1028,l)
);
},
{
closed = 1;
nodes = (
(187,860,o),
(187,826,qs),
(187,795,o),
(226,759,o),
(261,759,qs),
(295,759,o),
(336,795,o),
(336,826,qs),
(336,860,o),
(295,894,o),
(261,894,qs),
(226,894,o)
);
},
{
closed = 1;
nodes = (
(391,860,o),
(391,826,qs),
(391,795,o),
(430,759,o),
(464,759,qs),
(497,759,o),
(539,795,o),
(539,826,qs),
(539,860,o),
(497,894,o),
(464,894,qs),
(430,894,o)
);
},
{
closed = 1;
nodes = (
(490,717,l),
(233,717,l),
(0,0,l),
(212,0,l),
(248,134,l),
(480,134,l),
(515,0,l),
(726,0,l)
);
},
{
closed = 1;
nodes = (
(288,292,l),
(319,409,ls),
(325,433,o),
(342,503,o),
(359,575,o),
(363,599,q),
(368,575,o),
(386,499,o),
(404,428,o),
(409,409,qs),
(440,292,l)
);
}
);
width = 726;
}
);
note = uni01DE;
unicode = 478;
}
{
glyphname = uni01DF;
layers = (
{
layerId = m01;
shapes = (
{
closed = 1;
nodes = (
(137,760,l),
(490,760,l),
(490,867,l),
(137,867,l)
);
},
{
closed = 1;
nodes = (
(136,699,o),
(136,665,qs),
(136,634,o),
(175,598,o),
(210,598,qs),
(244,598,o),
(285,634,o),
(285,665,qs),
(285,699,o),
(244,733,o),
(210,733,qs),
(175,733,o)
);
},
{
closed = 1;
nodes = (
(340,699,o),
(340,665,qs),
(340,634,o),
(379,598,o),
(413,598,qs),
(446,598,o),
(488,634,o),
(488,665,qs),
(488,699,o),
(446,733,o),
(413,733,qs),
(379,733,o)
);
},
{
closed = 1;
nodes = (
(140,538,o),
(92,513,q),
(147,387,l),
(188,405,o),
(268,428,o),
(301,428,qs),
(332,428,o),
(368,397,o),
(368,360,qs),
(368,352,l),
(276,349,ls),
(159,344,o),
(36,258,o),
(36,169,qs),
(36,78,o),
(132,-10,o),
(204,-10,qs),
(250,-10,o),
(314,7,o),
(363,44,o),
(386,73,q),
(390,73,l),
(427,0,l),
(559,0,l),
(559,363,ls),
(559,459,o),
(441,563,o),
(336,563,qs),
(261,563,o)
);
},
{
closed = 1;
nodes = (
(369,204,ls),
(369,169,o),
(320,125,o),
(285,125,qs),
(260,125,o),
(230,152,o),
(230,180,qs),
(230,210,o),
(273,243,o),
(325,245,qs),
(369,247,l)
);
}
);
width = 623;
}
);
note = uni01DF;
unicode = 479;
}
{
glyphname = uni01E0;
layers = (
{
layerId = m01;
shapes = (
{
closed = 1;
nodes = (
(187,927,l),
(540,927,l),
(540,1035,l),
(187,1035,l)
);
},
{
closed = 1;
nodes = (
(288,863,o),
(288,829,qs),
(288,798,o),
(328,762,o),
(362,762,qs),
(396,762,o),
(437,798,o),
(437,829,qs),
(437,863,o),
(396,898,o),
(362,898,qs),
(328,898,o)
);
},
{
closed = 1;
nodes = (
(490,717,l),
(233,717,l),
(0,0,l),
(212,0,l),
(248,134,l),
(480,134,l),
(515,0,l),
(726,0,l)
);
},
{
closed = 1;
nodes = (
(288,292,l),
(319,409,ls),
(325,433,o),
(342,503,o),
(359,575,o),
(363,599,q),
(368,575,o),
(386,499,o),
(404,428,o),
(409,409,qs),
(440,292,l)
);
}
);
width = 726;
}
);
note = uni01E0;
unicode = 480;
}
{
glyphname = uni01E1;
layers = (
{
layerId = m01;
shapes = (
{
closed = 1;
nodes = (
(136,766,l),
(489,766,l),
(489,874,l),
(136,874,l)
);
},
{
closed = 1;
nodes = (
(237,702,o),
(237,668,qs),
(237,637,o),
(277,601,o),
(311,601,qs),
(345,601,o),
(386,637,o),
(386,668,qs),
(386,702,o),
(345,737,o),
(311,737,qs),
(277,737,o)
);
},
{
closed = 1;
nodes = (
(140,538,o),
(92,513,q),
(147,387,l),
(188,405,o),
(268,428,o),
(301,428,qs),
(332,428,o),
(368,397,o),
(368,360,qs),
(368,352,l),
(276,349,ls),
(159,344,o),
(36,258,o),
(36,169,qs),
(36,78,o),
(132,-10,o),
(204,-10,qs),
(250,-10,o),
(314,7,o),
(363,44,o),
(386,73,q),
(390,73,l),
(427,0,l),
(559,0,l),
(559,363,ls),
(559,459,o),
(441,563,o),
(336,563,qs),
(261,563,o)
);
},
{
closed = 1;
nodes = (
(369,204,ls),
(369,169,o),
(320,125,o),
(285,125,qs),
(260,125,o),
(230,152,o),
(230,180,qs),
(230,210,o),
(273,243,o),
(325,245,qs),
(369,247,l)
);
}
);
width = 623;
}
);
note = uni01E1;
unicode = 481;
}
{
glyphname = uni01E4;
layers = (
{
layerId = m01;
shapes = (
{
closed = 1;
nodes = (
(594,15,o),
(644,30,q),
(644,180,l),
(709,180,l),
(709,295,l),
(644,295,l),
(644,448,l),
(354,448,l),
(354,333,l),
(452,333,l),
(452,295,l),
(354,295,l),
(354,180,l),
(452,180,l),
(452,144,l),
(427,138,o),
(398,138,qs),
(353,138,o),
(291,176,o),
(258,266,o),
(258,344,qs),
(258,561,o),
(423,561,qs),
(467,561,o),
(559,540,o),
(586,526,q),
(646,679,l),
(602,698,o),
(489,724,o),
(433,724,qs),
(252,724,o),
(56,521,o),
(56,339,qs),
(56,217,o),
(141,63,o),
(292,-10,o),
(390,-10,qs),
(472,-10,o)
);
}
);
width = 724;
}
);
note = uni01E4;
unicode = 484;
}
{
glyphname = uni01E5;
layers = (
{
layerId = m01;
shapes = (
{
closed = 1;
nodes = (
(39,427,o),
(39,298,qs),
(39,173,o),
(145,44,o),
(239,44,qs),
(283,44,o),
(355,78,o),
(383,119,q),
(387,119,l),
(385,107,o),
(383,69,o),
(383,55,qs),
(383,15,l),
(234,15,l),
(234,-80,l),
(368,-80,l),
(358,-96,o),
(308,-111,o),
(274,-111,qs),
(219,-111,o),
(123,-93,o),
(69,-73,q),
(69,-209,l),
(121,-225,o),
(231,-240,o),
(288,-240,qs),
(406,-240,o),
(539,-164,o),
(567,-80,q),
(628,-80,l),
(628,15,l),
(577,15,l),
(577,553,l),
(413,553,l),
(399,491,l),
(395,491,l),
(367,529,o),
(298,563,o),
(251,563,qs),
(155,563,o)
);
},
{
closed = 1;
nodes = (
(397,357,o),
(397,287,qs),
(397,272,ls),
(397,229,o),
(353,187,o),
(318,187,qs),
(279,187,o),
(237,239,o),
(237,298,qs),
(237,407,o),
(315,407,qs),
(355,407,o)
);
}
);
width = 650;
}
);
note = uni01E5;
unicode = 485;
}
{
glyphname = uni01F6;
layers = (
{
layerId = m01;
shapes = (
{
closed = 1;
nodes = (
(281,289,l),
(457,289,l),
(457,233,ls),
(457,106,o),
(581,-15,o),
(728,-15,qs),
(871,-15,o),
(999,131,o),
(999,267,qs),
(999,553,l),
(802,553,l),
(802,268,ls),
(802,198,o),
(767,143,o),
(726,143,qs),
(686,143,o),
(654,196,o),
(654,252,qs),
(654,714,l),
(457,714,l),
(457,451,l),
(281,451,l),
(281,714,l),
(85,714,l),
(85,0,l),
(281,0,l)
);
}
);
width = 1080;
}
);
note = uni01F6;
unicode = 502;
}
{
glyphname = uni01F7;
layers = (
{
layerId = m01;
shapes = (
{
closed = 1;
nodes = (
(327,696,o),
(283,651,o),
(269,627,q),
(264,627,l),
(233,714,l),
(85,714,l),
(85,-240,l),
(282,-240,l),
(282,8,l),
(417,45,o),
(589,185,o),
(671,363,o),
(671,457,qs),
(671,588,o),
(554,725,o),
(447,725,qs),
(396,725,o)
);
},
{
closed = 1;
nodes = (
(472,502,o),
(472,450,qs),
(472,380,o),
(419,270,o),
(333,194,o),
(282,175,q),
(282,392,ls),
(282,480,o),
(329,562,o),
(382,562,qs),
(428,562,o)
);
}
);
width = 717;
}
);
note = uni01F7;
unicode = 503;
}
{
glyphname = Aringacute;
kernLeft = A;
kernRight = A;
layers = (
{
layerId = m01;
shapes = (
{
closed = 1;
nodes = (
(406,874,l),
(423,879,o),
(473,898,o),
(525,920,o),
(566,941,o),
(574,948,q),
(574,958,l),
(364,958,l),
(348,940,o),
(300,900,o),
(279,886,q),
(279,874,l)
);
},
{
closed = 1;
nodes = (
(212,0,l),
(248,134,l),
(477,134,l),
(515,0,l),
(726,0,l),
(488,684,l),
(494,702,o),
(494,724,qs),
(494,781,o),
(416,847,o),
(361,847,qs),
(303,847,o),
(232,781,o),
(232,723,qs),
(232,713,o),
(234,694,o),
(236,686,q),
(0,0,l)
);
},
{
closed = 1;
nodes = (
(320,705,o),
(320,723,qs),
(320,742,o),
(344,764,o),
(361,764,qs),
(378,764,o),
(402,742,o),
(402,723,qs),
(402,705,o),
(378,682,o),
(361,682,qs),
(341,682,o)
);
},
{
closed = 1;
nodes = (
(332,431,o),
(356,523,o),
(363,560,q),
(368,536,o),
(383,473,o),
(400,415,o),
(406,396,qs),
(437,294,l),
(291,294,l),
(321,396,ls)
);
}
);
width = 724;
}
);
note = Aringacute;
unicode = 506;
}
{
glyphname = aringacute;
kernLeft = a;
kernRight = a;
layers = (
{
layerId = m01;
shapes = (
{
closed = 1;
nodes = (
(311,964,l),
(295,942,o),
(247,889,o),
(226,870,q),
(226,862,l),
(350,862,l),
(373,874,o),
(437,910,o),
(493,947,o),
(503,958,q),
(503,964,l)
);
},
{
closed = 1;
nodes = (
(190,770,o),
(190,712,qs),
(190,655,o),
(261,589,o),
(319,589,qs),
(375,589,o),
(452,655,o),
(452,713,qs),
(452,770,o),
(374,836,o),
(319,836,qs),
(261,836,o)
);
},
{
closed = 1;
nodes = (
(360,731,o),
(360,712,qs),
(360,694,o),
(336,671,o),
(319,671,qs),
(299,671,o),
(278,694,o),
(278,712,qs),
(278,731,o),
(302,753,o),
(319,753,qs),
(336,753,o)
);
},
{
closed = 1;
nodes = (
(140,538,o),
(92,513,q),
(147,387,l),
(188,405,o),
(268,428,o),
(301,428,qs),
(332,428,o),
(368,397,o),
(368,360,qs),
(368,352,l),
(276,349,ls),
(155,345,o),
(36,264,o),
(36,172,qs),
(36,79,o),
(132,-10,o),
(204,-10,qs),
(250,-10,o),
(314,7,o),
(363,44,o),
(386,73,q),
(390,73,l),
(427,0,l),
(559,0,l),
(559,363,ls),
(559,459,o),
(441,563,o),
(336,563,qs),
(261,563,o)
);
},
{
closed = 1;
nodes = (
(369,204,ls),
(369,169,o),
(320,125,o),
(285,125,qs),
(260,125,o),
(231,148,o),
(231,176,qs),
(231,206,o),
(273,243,o),
(325,245,qs),
(369,247,l)
);
}
);
width = 623;
}
);
note = aringacute;
unicode = 507;
}
{
glyphname = uni021C;
layers = (
{
layerId = m01;
shapes = (
{
closed = 1;
nodes = (
(234,-144,o),
(476,-45,o),
(591,95,o),
(591,189,qs),
(591,254,o),
(534,343,o),
(490,368,q),
(572,435,o),
(572,529,qs),
(572,624,o),
(433,724,o),
(313,724,qs),
(231,724,o),
(92,684,o),
(30,643,q),
(111,510,l),
(152,534,o),
(249,566,o),
(293,566,qs),
(333,566,o),
(379,541,o),
(379,509,qs),
(379,487,o),
(343,449,o),
(246,413,o),
(153,392,q),
(186,245,l),
(233,256,o),
(315,279,o),
(350,292,q),
(370,275,o),
(393,230,o),
(393,200,qs),
(393,166,o),
(367,110,o),
(294,60,o),
(156,15,o),
(45,-8,q),
(45,-180,l)
);
}
);
width = 638;
}
);
note = uni021C;
unicode = 540;
}
{
glyphname = uni021D;
layers = (
{
layerId = m01;
shapes = (
{
closed = 1;
nodes = (
(135,-221,o),
(311,-175,o),
(442,-106,o),
(514,-6,o),
(514,67,qs),
(514,123,o),
(466,204,o),
(422,230,q),
(456,257,o),
(495,326,o),
(495,368,qs),
(495,458,o),
(367,560,o),
(245,560,qs),
(184,560,o),
(75,536,o),
(20,512,q),
(73,376,l),
(108,390,o),
(192,409,o),
(236,409,qs),
(277,409,o),
(319,384,o),
(319,355,qs),
(319,336,o),
(285,305,o),
(200,275,o),
(124,257,q),
(157,123,l),
(191,131,o),
(258,149,o),
(289,160,q),
(320,129,o),
(320,76,qs),
(320,38,o),
(265,-18,o),
(139,-61,o),
(31,-80,q),
(31,-240,l)
);
}
);
width = 551;
}
);
note = uni021D;
unicode = 541;
}
{
glyphname = uni0220;
layers = (
{
layerId = m01;
shapes = (
{
closed = 1;
nodes = (
(309,680,o),
(271,630,q),
(266,630,l),
(234,714,l),
(85,714,l),
(85,0,l),
(281,0,l),
(281,342,ls),
(281,415,o),
(302,513,o),
(361,564,o),
(417,564,qs),
(464,564,o),
(516,509,o),
(516,442,qs),
(516,-240,l),
(713,-240,l),
(713,496,ls),
(713,582,o),
(649,682,o),
(544,725,o),
(483,725,qs),
(423,725,o)
);
}
);
width = 793;
}
);
note = uni0220;
unicode = 544;
}
{
glyphname = uni0221;
layers = (
{
layerId = m01;
shapes = (
{
closed = 1;
nodes = (
(630,-75,o),
(634,-25,o),
(638,0,q),
(669,0,ls),
(752,0,o),
(843,39,o),
(880,103,o),
(880,140,qs),
(880,192,o),
(811,261,o),
(739,261,qs),
(683,261,o),
(604,222,o),
(583,196,q),
(577,211,o),
(577,235,qs),
(577,760,l),
(383,760,l),
(383,592,ls),
(383,575,o),
(388,532,o),
(394,496,o),
(396,489,q),
(391,489,l),
(374,515,o),
(301,563,o),
(242,563,qs),
(185,563,o),
(93,499,o),
(39,373,o),
(39,278,qs),
(39,131,o),
(160,-10,o),
(265,-10,qs),
(338,-10,o),
(426,38,o),
(451,66,q),
(458,66,l),
(462,59,o),
(486,37,o),
(505,29,q),
(499,-1,o),
(490,-62,o),
(488,-102,q),
(628,-107,l)
);
},
{
closed = 1;
nodes = (
(235,210,o),
(235,275,qs),
(235,339,o),
(277,407,o),
(309,407,qs),
(359,407,o),
(397,338,o),
(397,273,qs),
(397,254,ls),
(395,196,o),
(356,143,o),
(312,143,qs),
(278,143,o)
);
},
{
closed = 1;
nodes = (
(673,127,o),
(704,153,o),
(724,153,qs),
(751,153,o),
(751,131,qs),
(751,118,o),
(723,105,o),
(689,105,qs),
(665,105,l)
);
}
);
width = 874;
}
);
note = uni0221;
unicode = 545;
}
{
glyphname = uni0222;
layers = (
{
layerId = m01;
shapes = (
{
closed = 1;
nodes = (
(694,60,o),
(769,182,o),
(768,260,qs),
(768,321,o),
(711,427,o),
(639,462,q),
(680,486,o),
(721,547,o),
(735,618,o),
(735,656,qs),
(735,709,l),
(536,709,l),
(536,654,ls),
(536,623,o),
(512,569,o),
(457,536,o),
(412,536,qs),
(342,536,o),
(282,607,o),
(282,656,qs),
(282,709,l),
(82,709,l),
(82,656,ls),
(82,617,o),
(96,546,o),
(139,486,o),
(182,462,q),
(106,426,o),
(50,316,o),
(50,257,qs),
(50,180,o),
(121,59,o),
(279,-10,o),
(409,-10,qs),
(536,-10,o)
);
},
{
closed = 1;
nodes = (
(261,215,o),
(261,262,qs),
(261,311,o),
(328,368,o),
(412,368,qs),
(495,368,o),
(557,309,o),
(557,263,qs),
(557,215,o),
(494,156,o),
(408,156,qs),
(323,156,o)
);
}
);
width = 818;
}
);
note = uni0222;
unicode = 546;
}
{
glyphname = uni0223;
layers = (
{
layerId = m01;
shapes = (
{
closed = 1;
nodes = (
(531,52,o),
(607,172,o),
(606,258,qs),
(606,325,o),
(544,429,o),
(477,461,q),
(519,483,o),
(562,548,o),
(577,627,o),
(577,669,qs),
(577,760,l),
(382,760,l),
(382,668,ls),
(382,607,o),
(360,537,o),
(323,537,qs),
(285,537,o),
(261,610,o),
(261,671,qs),
(261,760,l),
(67,760,l),
(67,672,ls),
(67,628,o),
(80,549,o),
(122,484,o),
(165,461,q),
(93,427,o),
(37,322,o),
(37,254,qs),
(37,169,o),
(114,51,o),
(243,-10,o),
(319,-10,qs),
(401,-10,o)
);
},
{
closed = 1;
nodes = (
(235,202,o),
(235,260,qs),
(235,321,o),
(277,383,o),
(323,383,qs),
(368,383,o),
(409,321,o),
(409,262,qs),
(409,204,o),
(363,142,o),
(322,142,qs),
(276,142,o)
);
}
);
width = 644;
}
);
note = uni0223;
unicode = 547;
}
{
glyphname = uni0224;
layers = (
{
layerId = m01;
shapes = (
{
closed = 1;
nodes = (
(545,-211,o),
(586,-113,o),
(586,-58,qs),
(586,156,l),
(269,156,l),
(578,595,l),
(578,714,l),
(37,714,l),
(37,558,l),
(339,558,l),
(30,119,l),
(30,0,l),
(397,0,l),
(397,-18,ls),
(397,-61,o),
(377,-106,o),
(346,-122,o),
(328,-122,qs),
(312,-122,o),
(286,-118,o),
(266,-113,q),
(266,-261,l),
(286,-267,o),
(350,-273,o),
(376,-273,qs),
(453,-273,o)
);
}
);
width = 611;
}
);
note = uni0224;
unicode = 548;
}
{
glyphname = uni022A;
layers = (
{
layerId = m01;
shapes = (
{
closed = 1;
nodes = (
(224,921,l),
(577,921,l),
(577,1028,l),
(224,1028,l)
);
},
{
closed = 1;
nodes = (
(223,860,o),
(223,826,qs),
(223,795,o),
(262,759,o),
(297,759,qs),
(331,759,o),
(372,795,o),
(372,826,qs),
(372,860,o),
(331,894,o),
(297,894,qs),
(262,894,o)
);
},
{
closed = 1;
nodes = (
(427,860,o),
(427,826,qs),
(427,795,o),
(466,759,o),
(500,759,qs),
(533,759,o),
(575,795,o),
(575,826,qs),
(575,860,o),
(533,894,o),
(500,894,qs),
(466,894,o)
);
},
{
closed = 1;
nodes = (
(674,634,o),
(521,725,o),
(399,725,qs),
(279,725,o),
(125,635,o),
(51,470,o),
(51,359,qs),
(51,248,o),
(124,82,o),
(278,-10,o),
(398,-10,qs),
(521,-10,o),
(674,82,o),
(745,247,o),
(745,358,qs),
(745,469,o)
);
},
{
closed = 1;
nodes = (
(320,567,o),
(399,567,qs),
(478,567,o),
(542,455,o),
(542,358,qs),
(542,261,o),
(478,151,o),
(398,151,qs),
(321,151,o),
(254,261,o),
(254,358,qs),
(254,455,o)
);
}
);
width = 797;
}
);
note = uni022A;
unicode = 554;
}
{
glyphname = uni022B;
layers = (
{
layerId = m01;
shapes = (
{
closed = 1;
nodes = (
(144,760,l),
(497,760,l),
(497,867,l),
(144,867,l)
);
},
{
closed = 1;
nodes = (
(143,699,o),
(143,665,qs),
(143,634,o),
(182,598,o),
(217,598,qs),
(251,598,o),
(292,634,o),
(292,665,qs),
(292,699,o),
(251,733,o),
(217,733,qs),
(182,733,o)
);
},
{
closed = 1;
nodes = (
(347,699,o),
(347,665,qs),
(347,634,o),
(386,598,o),
(420,598,qs),
(453,598,o),
(495,634,o),
(495,665,qs),
(495,699,o),
(453,733,o),
(420,733,qs),
(386,733,o)
);
},
{
closed = 1;
nodes = (
(523,497,o),
(400,563,o),
(320,563,qs),
(190,563,o),
(42,415,o),
(42,278,qs),
(42,186,o),
(113,57,o),
(237,-10,o),
(317,-10,qs),
(446,-10,o),
(594,139,o),
(594,278,qs),
(594,370,o)
);
},
{
closed = 1;
nodes = (
(275,421,o),
(318,421,qs),
(363,421,o),
(400,349,o),
(400,278,qs),
(400,207,o),
(363,132,o),
(319,132,qs),
(274,132,o),
(236,207,o),
(236,278,qs),
(236,349,o)
);
}
);
width = 637;
}
);
note = uni022B;
unicode = 555;
}
{
glyphname = uni022C;
layers = (
{
layerId = m01;
shapes = (
{
closed = 1;
nodes = (
(576,1035,l),
(223,1035,l),
(223,927,l),
(576,927,l)
);
},
{
closed = 1;
nodes = (
(297,787,o),
(316,803,o),
(333,803,qs),
(349,803,o),
(385,784,o),
(433,765,o),
(465,765,qs),
(504,765,o),
(551,797,o),
(575,850,o),
(578,881,q),
(504,881,l),
(498,844,o),
(466,844,qs),
(447,844,o),
(412,863,o),
(365,882,o),
(329,882,qs),
(274,882,o),
(222,813,o),
(218,766,q),
(291,766,l)
);
},
{
closed = 1;
nodes = (
(674,634,o),
(521,725,o),
(399,725,qs),
(279,725,o),
(125,635,o),
(51,470,o),
(51,359,qs),
(51,248,o),
(124,82,o),
(278,-10,o),
(398,-10,qs),
(521,-10,o),
(674,82,o),
(745,247,o),
(745,358,qs),
(745,469,o)
);
},
{
closed = 1;
nodes = (
(320,567,o),
(399,567,qs),
(478,567,o),
(542,455,o),
(542,358,qs),
(542,261,o),
(478,151,o),
(398,151,qs),
(321,151,o),
(254,261,o),
(254,358,qs),
(254,455,o)
);
}
);
width = 797;
}
);
note = uni022C;
unicode = 556;
}
{
glyphname = uni022D;
layers = (
{
layerId = m01;
shapes = (
{
closed = 1;
nodes = (
(496,874,l),
(143,874,l),
(143,766,l),
(496,766,l)
);
},
{
closed = 1;
nodes = (
(217,626,o),
(236,642,o),
(253,642,qs),
(269,642,o),
(305,623,o),
(353,604,o),
(385,604,qs),
(424,604,o),
(471,636,o),
(495,689,o),
(498,720,q),
(424,720,l),
(418,683,o),
(386,683,qs),
(367,683,o),
(332,702,o),
(285,721,o),
(249,721,qs),
(194,721,o),
(142,652,o),
(138,605,q),
(211,605,l)
);
},
{
closed = 1;
nodes = (
(523,497,o),
(400,563,o),
(320,563,qs),
(190,563,o),
(42,415,o),
(42,278,qs),
(42,186,o),
(113,57,o),
(237,-10,o),
(317,-10,qs),
(446,-10,o),
(594,139,o),
(594,278,qs),
(594,370,o)
);
},
{
closed = 1;
nodes = (
(275,421,o),
(318,421,qs),
(363,421,o),
(400,349,o),
(400,278,qs),
(400,207,o),
(363,132,o),
(319,132,qs),
(274,132,o),
(236,207,o),
(236,278,qs),
(236,349,o)
);
}
);
width = 637;
}
);
note = uni022D;
unicode = 557;
}
{
glyphname = uni0230;
layers = (
{
layerId = m01;
shapes = (
{
closed = 1;
nodes = (
(223,927,l),
(576,927,l),
(576,1035,l),
(223,1035,l)
);
},
{
closed = 1;
nodes = (
(324,863,o),
(324,829,qs),
(324,798,o),
(364,762,o),
(398,762,qs),
(432,762,o),
(473,798,o),
(473,829,qs),
(473,863,o),
(432,898,o),
(398,898,qs),
(364,898,o)
);
},
{
closed = 1;
nodes = (
(674,634,o),
(521,725,o),
(399,725,qs),
(279,725,o),
(125,635,o),
(51,470,o),
(51,359,qs),
(51,248,o),
(124,82,o),
(278,-10,o),
(398,-10,qs),
(521,-10,o),
(674,82,o),
(745,247,o),
(745,358,qs),
(745,469,o)
);
},
{
closed = 1;
nodes = (
(320,567,o),
(399,567,qs),
(478,567,o),
(542,455,o),
(542,358,qs),
(542,261,o),
(478,151,o),
(398,151,qs),
(321,151,o),
(254,261,o),
(254,358,qs),
(254,455,o)
);
}
);
width = 797;
}
);
note = uni0230;
unicode = 560;
}
{
glyphname = uni0231;
layers = (
{
layerId = m01;
shapes = (
{
closed = 1;
nodes = (
(143,766,l),
(496,766,l),
(496,874,l),
(143,874,l)
);
},
{
closed = 1;
nodes = (
(244,702,o),
(244,668,qs),
(244,637,o),
(284,601,o),
(318,601,qs),
(352,601,o),
(393,637,o),
(393,668,qs),
(393,702,o),
(352,737,o),
(318,737,qs),
(284,737,o)
);
},
{
closed = 1;
nodes = (
(523,497,o),
(400,563,o),
(320,563,qs),
(190,563,o),
(42,415,o),
(42,278,qs),
(42,186,o),
(113,57,o),
(237,-10,o),
(317,-10,qs),
(446,-10,o),
(594,139,o),
(594,278,qs),
(594,370,o)
);
},
{
closed = 1;
nodes = (
(275,421,o),
(318,421,qs),
(363,421,o),
(400,349,o),
(400,278,qs),
(400,207,o),
(363,132,o),
(319,132,qs),
(274,132,o),
(236,207,o),
(236,278,qs),
(236,349,o)
);
}
);
width = 637;
}
);
note = uni0231;
unicode = 561;
}
{
glyphname = uni0234;
layers = (
{
layerId = m01;
shapes = (
{
closed = 1;
nodes = (
(143,-33,o),
(165,4,o),
(173,14,q),
(190,5,o),
(249,-10,o),
(293,-10,qs),
(394,-10,o),
(485,77,o),
(485,142,qs),
(485,196,o),
(413,269,o),
(345,269,qs),
(323,269,o),
(278,258,o),
(267,250,q),
(267,760,l),
(73,760,l),
(73,190,ls),
(73,151,o),
(85,96,o),
(96,77,q),
(84,64,o),
(57,16,o),
(48,-4,q),
(137,-47,l)
);
},
{
closed = 1;
nodes = (
(266,143,q),
(286,166,o),
(318,166,qs),
(362,166,o),
(362,133,qs),
(362,117,o),
(335,100,o),
(317,100,qs),
(272,100,o)
);
}
);
width = 489;
}
);
note = uni0234;
unicode = 564;
}
{
glyphname = uni0235;
layers = (
{
layerId = m01;
shapes = (
{
closed = 1;
nodes = (
(463,-33,o),
(485,4,o),
(493,14,q),
(510,5,o),
(569,-10,o),
(613,-10,qs),
(714,-10,o),
(805,77,o),
(805,142,qs),
(805,196,o),
(733,269,o),
(665,269,qs),
(643,269,o),
(598,258,o),
(587,250,q),
(587,360,ls),
(587,433,o),
(539,522,o),
(456,563,o),
(403,563,qs),
(362,563,o),
(279,527,o),
(255,484,q),
(245,484,l),
(220,553,l),
(73,553,l),
(73,0,l),
(267,0,l),
(267,241,ls),
(267,321,o),
(294,410,o),
(340,410,qs),
(368,410,o),
(393,357,o),
(393,308,qs),
(393,190,ls),
(393,151,o),
(405,96,o),
(416,77,q),
(404,64,o),
(377,16,o),
(368,-4,q),
(457,-47,l)
);
},
{
closed = 1;
nodes = (
(586,143,q),
(606,166,o),
(638,166,qs),
(682,166,o),
(682,133,qs),
(682,117,o),
(655,100,o),
(637,100,qs),
(592,100,o)
);
}
);
width = 790;
}
);
note = uni0235;
unicode = 565;
}
{
glyphname = uni0236;
layers = (
{
layerId = m01;
shapes = (
{
closed = 1;
nodes = (
(165,-33,o),
(187,4,o),
(195,14,q),
(212,5,o),
(271,-10,o),
(315,-10,qs),
(416,-10,o),
(507,77,o),
(507,142,qs),
(507,196,o),
(435,269,o),
(367,269,qs),
(345,269,o),
(300,258,o),
(289,250,q),
(289,409,l),
(441,409,l),
(441,553,l),
(289,553,l),
(289,663,l),
(163,663,l),
(111,551,l),
(28,488,l),
(28,409,l),
(95,409,l),
(95,190,ls),
(95,151,o),
(107,96,o),
(118,77,q),
(106,64,o),
(79,16,o),
(70,-4,q),
(159,-47,l)
);
},
{
closed = 1;
nodes = (
(288,143,q),
(308,166,o),
(340,166,qs),
(384,166,o),
(384,133,qs),
(384,117,o),
(357,100,o),
(339,100,qs),
(294,100,o)
);
}
);
width = 492;
}
);
note = uni0236;
unicode = 566;
}
{
glyphname = uni0237;
layers = (
{
layerId = m01;
shapes = (
{
closed = 1;
nodes = (
(218,-184,o),
(257,-95,o),
(257,-45,qs),
(257,553,l),
(66,553,l),
(66,-5,ls),
(66,-55,o),
(31,-88,o),
(8,-88,qs),
(-8,-88,o),
(-35,-83,o),
(-51,-79,q),
(-51,-228,l),
(-31,-233,o),
(29,-240,o),
(52,-240,qs),
(128,-240,o)
);
}
);
width = 324;
}
);
note = uni0237;
unicode = 567;
}
{
glyphname = uni0238;
layers = (
{
layerId = m01;
shapes = (
{
closed = 1;
nodes = (
(447,28,o),
(478,63,q),
(542,-10,o),
(654,-10,qs),
(726,-10,o),
(847,49,o),
(920,175,o),
(920,276,qs),
(920,371,o),
(867,498,o),
(778,563,o),
(723,563,qs),
(664,563,o),
(595,515,o),
(577,487,q),
(570,487,l),
(572,501,o),
(577,553,o),
(577,589,qs),
(577,760,l),
(383,760,l),
(383,589,ls),
(383,556,o),
(388,504,o),
(390,487,q),
(383,487,l),
(366,513,o),
(296,563,o),
(237,563,qs),
(181,563,o),
(91,499,o),
(39,374,o),
(39,280,qs),
(39,182,o),
(107,53,o),
(225,-10,o),
(298,-10,qs),
(354,-10,o)
);
},
{
closed = 1;
nodes = (
(237,204,o),
(237,279,qs),
(237,347,o),
(277,410,o),
(306,410,qs),
(346,410,o),
(383,349,o),
(383,281,qs),
(383,200,o),
(343,145,o),
(309,145,qs),
(275,145,o)
);
},
{
closed = 1;
nodes = (
(577,201,o),
(577,281,qs),
(577,350,o),
(615,410,o),
(653,410,qs),
(683,410,o),
(723,344,o),
(723,276,qs),
(723,200,o),
(685,145,o),
(650,145,qs),
(616,145,o)
);
}
);
width = 960;
}
);
note = uni0238;
unicode = 568;
}
{
glyphname = uni0239;
layers = (
{
layerId = m01;
shapes = (
{
closed = 1;
nodes = (
(513,525,o),
(482,490,q),
(451,525,o),
(362,563,o),
(306,563,qs),
(234,563,o),
(112,504,o),
(39,378,o),
(39,277,qs),
(39,183,o),
(92,55,o),
(182,-10,o),
(237,-10,qs),
(296,-10,o),
(365,38,o),
(383,66,q),
(390,66,l),
(387,44,o),
(383,0,o),
(383,-37,qs),
(383,-245,l),
(577,-245,l),
(577,-37,ls),
(577,-3,o),
(573,42,o),
(570,66,q),
(577,66,l),
(594,40,o),
(663,-10,o),
(723,-10,qs),
(779,-10,o),
(868,54,o),
(920,180,o),
(920,273,qs),
(920,372,o),
(852,500,o),
(735,563,o),
(661,563,qs),
(606,563,o)
);
},
{
closed = 1;
nodes = (
(383,351,o),
(383,271,qs),
(383,203,o),
(345,143,o),
(306,143,qs),
(277,143,o),
(237,209,o),
(237,277,qs),
(237,353,o),
(276,408,o),
(310,408,qs),
(344,408,o)
);
},
{
closed = 1;
nodes = (
(723,349,o),
(723,273,qs),
(723,206,o),
(683,143,o),
(653,143,qs),
(614,143,o),
(577,203,o),
(577,271,qs),
(577,352,o),
(617,408,o),
(651,408,qs),
(684,408,o)
);
}
);
width = 960;
}
);
note = uni0239;
unicode = 569;
}
{
glyphname = uni023A;
layers = (
{
layerId = m01;
shapes = (
{
closed = 1;
nodes = (
(535,581,l),
(597,760,l),
(476,760,l),
(461,717,l),
(233,717,l),
(0,0,l),
(212,0,l),
(248,134,l),
(259,134,l),
(186,-75,l),
(307,-75,l),
(380,134,l),
(480,134,l),
(515,0,l),
(726,0,l)
);
},
{
closed = 1;
nodes = (
(325,433,o),
(342,503,o),
(359,575,o),
(363,599,q),
(366,581,o),
(379,527,o),
(386,500,q),
(313,292,l),
(288,292,l),
(319,409,ls)
);
},
{
closed = 1;
nodes = (
(438,301,l),
(440,292,l),
(434,292,l)
);
}
);
width = 730;
}
);
note = uni023A;
unicode = 570;
}
{
glyphname = uni023B;
layers = (
{
layerId = m01;
shapes = (
{
closed = 1;
nodes = (
(453,721,l),
(425,724,o),
(397,724,qs),
(286,724,o),
(131,629,o),
(51,463,o),
(51,355,qs),
(51,240,o),
(129,69,o),
(212,27,q),
(177,-75,l),
(298,-75,l),
(322,-6,l),
(352,-10,o),
(385,-10,qs),
(441,-10,o),
(540,9,o),
(587,30,q),
(587,193,l),
(542,174,o),
(453,148,o),
(406,148,qs),
(390,148,o),
(376,150,q),
(512,542,l),
(524,538,o),
(547,528,o),
(559,522,q),
(618,674,l),
(593,686,o),
(566,695,q),
(588,760,l),
(467,760,l)
);
},
{
closed = 1;
nodes = (
(278,215,l),
(249,266,o),
(249,354,qs),
(249,454,o),
(327,566,o),
(395,566,qs),
(400,566,l)
);
}
);
width = 644;
}
);
note = uni023B;
unicode = 571;
}
{
glyphname = uni023C;
layers = (
{
layerId = m01;
shapes = (
{
closed = 1;
nodes = (
(461,17,o),
(495,39,q),
(495,191,l),
(458,168,o),
(375,142,o),
(334,142,qs),
(330,142,o),
(327,142,q),
(417,396,l),
(427,393,o),
(447,385,o),
(458,380,q),
(514,521,l),
(492,532,o),
(469,540,q),
(547,760,l),
(426,760,l),
(355,562,l),
(344,563,o),
(333,563,qs),
(249,563,o),
(118,502,o),
(42,375,o),
(42,274,qs),
(42,179,o),
(106,56,o),
(163,24,q),
(80,-208,l),
(202,-208,l),
(273,-8,l),
(295,-10,o),
(318,-10,qs),
(375,-10,o)
);
},
{
closed = 1;
nodes = (
(270,396,o),
(300,407,q),
(239,236,l),
(236,254,o),
(236,275,qs),
(236,330,o)
);
}
);
width = 532;
}
);
note = uni023C;
unicode = 572;
}
{
glyphname = uni023D;
layers = (
{
layerId = m01;
shapes = (
{
closed = 1;
nodes = (
(545,156,l),
(270,156,l),
(270,280,l),
(407,280,l),
(407,432,l),
(270,432,l),
(270,714,l),
(77,714,l),
(77,432,l),
(11,432,l),
(11,280,l),
(77,280,l),
(77,0,l),
(545,0,l)
);
}
);
width = 582;
}
);
note = uni023D;
unicode = 573;
}
{
glyphname = uni023E;
layers = (
{
layerId = m01;
shapes = (
{
closed = 1;
nodes = (
(514,556,l),
(566,556,l),
(566,652,l),
(625,760,l),
(530,760,l),
(505,714,l),
(25,714,l),
(25,556,l),
(199,556,l),
(199,153,l),
(75,-75,l),
(170,-75,l),
(211,0,l),
(392,0,l),
(392,332,l)
);
},
{
closed = 1;
nodes = (
(392,507,l),
(392,556,l),
(419,556,l)
);
}
);
width = 604;
}
);
note = uni023E;
unicode = 574;
}
{
glyphname = uni023F;
layers = (
{
layerId = m01;
shapes = (
{
closed = 1;
nodes = (
(443,-231,o),
(458,-227,q),
(458,-90,l),
(447,-93,o),
(419,-100,o),
(402,-100,qs),
(375,-100,o),
(341,-76,o),
(322,-42,qs),
(317,-32,o),
(306,-15,o),
(300,-8,q),
(404,0,o),
(493,98,o),
(493,170,qs),
(493,219,o),
(462,282,o),
(399,327,o),
(351,346,qs),
(305,365,o),
(257,385,o),
(240,401,o),
(240,411,qs),
(240,434,o),
(287,434,qs),
(312,434,o),
(396,412,o),
(437,393,q),
(489,516,l),
(437,539,o),
(341,563,o),
(286,563,qs),
(183,563,o),
(58,481,o),
(58,400,qs),
(58,332,o),
(126,257,o),
(195,228,qs),
(242,209,o),
(293,187,o),
(313,169,o),
(313,157,qs),
(313,129,o),
(251,129,qs),
(220,129,o),
(112,150,o),
(59,174,q),
(59,22,l),
(64,20,o),
(82,15,o),
(89,13,qs),
(115,4,o),
(152,-46,o),
(167,-86,qs),
(184,-130,o),
(227,-200,o),
(301,-240,o),
(363,-240,qs),
(395,-240,o)
);
}
);
width = 533;
}
);
note = uni023F;
unicode = 575;
}
{
glyphname = uni0240;
layers = (
{
layerId = m01;
shapes = (
{
closed = 1;
nodes = (
(492,-234,o),
(511,-227,q),
(511,-77,l),
(495,-81,o),
(467,-84,o),
(450,-84,qs),
(427,-84,o),
(384,-48,o),
(360,5,qs),
(350,27,o),
(318,78,o),
(271,121,o),
(236,130,q),
(463,426,l),
(463,553,l),
(33,553,l),
(33,407,l),
(246,407,l),
(21,114,l),
(21,0,l),
(95,0,ls),
(142,0,o),
(183,-45,o),
(198,-86,qs),
(212,-124,o),
(257,-195,o),
(340,-240,o),
(410,-240,qs),
(436,-240,o)
);
}
);
width = 500;
}
);
note = uni0240;
unicode = 576;
}
{
glyphname = Glottalstopcased;
layers = (
{
layerId = m01;
shapes = (
{
closed = 1;
nodes = (
(54,689,o),
(-1,659,q),
(68,521,l),
(81,528,o),
(127,551,o),
(186,570,o),
(216,570,qs),
(245,570,o),
(293,530,o),
(293,502,qs),
(293,489,o),
(282,450,o),
(246,403,o),
(176,356,o),
(116,335,q),
(116,0,l),
(313,0,l),
(313,254,l),
(382,291,o),
(459,370,o),
(490,459,o),
(490,510,qs),
(490,569,o),
(428,666,o),
(315,725,o),
(236,725,qs),
(169,725,o)
);
}
);
width = 511;
}
);
note = Glottalstopcased;
unicode = 577;
}
{
glyphname = glottalstopcased;
layers = (
{
layerId = m01;
shapes = (
{
closed = 1;
nodes = (
(54,527,o),
(-1,497,q),
(68,359,l),
(81,366,o),
(126,389,o),
(183,408,o),
(213,408,qs),
(242,408,o),
(290,367,o),
(290,337,qs),
(290,324,o),
(279,284,o),
(244,237,o),
(174,190,o),
(115,170,q),
(115,0,l),
(312,0,l),
(312,89,l),
(380,126,o),
(456,205,o),
(487,294,o),
(487,345,qs),
(487,405,o),
(427,504,o),
(315,563,o),
(236,563,qs),
(169,563,o)
);
}
);
width = 525;
}
);
note = glottalstopcased;
unicode = 578;
}
{
glyphname = uni0243;
layers = (
{
layerId = m01;
shapes = (
{
closed = 1;
nodes = (
(481,0,o),
(627,113,o),
(627,213,qs),
(627,272,o),
(588,341,o),
(530,377,o),
(501,384,q),
(501,389,l),
(528,396,o),
(579,432,o),
(613,495,o),
(613,540,qs),
(613,623,o),
(481,714,o),
(326,714,qs),
(77,714,l),
(77,285,l),
(9,285,l),
(9,176,l),
(77,176,l),
(77,0,l),
(355,0,ls)
);
},
{
closed = 1;
nodes = (
(270,568,l),
(324,568,ls),
(371,568,o),
(415,538,o),
(415,512,qs),
(415,486,o),
(376,450,o),
(328,450,qs),
(270,450,l)
);
},
{
closed = 1;
nodes = (
(270,176,l),
(362,176,l),
(362,285,l),
(270,285,l),
(270,309,l),
(334,309,ls),
(388,309,o),
(428,260,o),
(428,229,qs),
(428,193,o),
(388,149,o),
(338,149,qs),
(270,149,l)
);
}
);
width = 674;
}
);
note = uni0243;
unicode = 579;
}
{
glyphname = uni0244;
layers = (
{
layerId = m01;
shapes = (
{
closed = 1;
nodes = (
(73,280,ls),
(73,141,o),
(228,-10,o),
(376,-10,qs),
(531,-10,o),
(684,149,o),
(684,284,qs),
(684,312,l),
(760,312,l),
(760,473,l),
(684,473,l),
(684,714,l),
(491,714,l),
(491,473,l),
(267,473,l),
(267,714,l),
(73,714,l),
(73,473,l),
(-2,473,l),
(-2,312,l),
(73,312,l)
);
},
{
closed = 1;
nodes = (
(491,312,l),
(491,296,ls),
(491,220,o),
(438,151,o),
(379,151,qs),
(324,151,o),
(267,219,o),
(267,295,qs),
(267,312,l)
);
}
);
width = 757;
}
);
note = uni0244;
unicode = 580;
}
{
glyphname = uni0246;
layers = (
{
layerId = m01;
shapes = (
{
closed = 1;
nodes = (
(346,157,l),
(381,292,l),
(484,292,l),
(484,447,l),
(421,447,l),
(449,559,l),
(501,559,l),
(501,714,l),
(489,714,l),
(501,760,l),
(378,760,l),
(366,714,l),
(77,714,l),
(77,0,l),
(184,0,l),
(165,-75,l),
(287,-75,l),
(306,0,l),
(501,0,l),
(501,157,l)
);
},
{
closed = 1;
nodes = (
(327,559,l),
(298,447,l),
(270,447,l),
(270,559,l)
);
}
);
width = 564;
}
);
note = uni0246;
unicode = 582;
}
{
glyphname = uni0247;
layers = (
{
layerId = m01;
shapes = (
{
closed = 1;
nodes = (
(111,501,o),
(42,373,o),
(42,273,qs),
(42,184,o),
(106,64,o),
(160,32,q),
(78,-207,l),
(202,-207,l),
(272,-6,l),
(301,-10,o),
(333,-10,qs),
(405,-10,o),
(500,10,o),
(540,31,q),
(540,168,l),
(494,146,o),
(408,126,o),
(356,126,qs),
(336,126,o),
(318,130,q),
(351,225,l),
(576,225,l),
(576,310,ls),
(576,393,o),
(514,505,o),
(458,533,q),
(536,760,l),
(412,760,l),
(344,562,l),
(330,563,o),
(315,563,qs),
(234,563,o)
);
},
{
closed = 1;
nodes = (
(274,424,o),
(298,430,q),
(269,345,l),
(239,345,l),
(242,382,o)
);
},
{
closed = 1;
nodes = (
(400,368,l),
(403,357,o),
(403,345,q),
(393,345,l)
);
}
);
width = 610;
}
);
note = uni0247;
unicode = 583;
}
{
glyphname = uni0248;
layers = (
{
layerId = m01;
shapes = (
{
closed = 1;
nodes = (
(215,-167,o),
(281,-39,o),
(281,67,qs),
(281,281,l),
(371,281,l),
(371,443,l),
(281,443,l),
(281,714,l),
(85,714,l),
(85,443,l),
(-5,443,l),
(-5,281,l),
(85,281,l),
(85,67,ls),
(85,10,o),
(62,-44,o),
(24,-60,o),
(3,-60,qs),
(-19,-60,o),
(-53,-54,o),
(-67,-50,q),
(-67,-213,l),
(-50,-217,o),
(-3,-224,o),
(29,-224,qs),
(101,-224,o)
);
}
);
width = 369;
}
);
note = uni0248;
unicode = 584;
}
{
glyphname = uni0249;
layers = (
{
layerId = m01;
shapes = (
{
closed = 1;
nodes = (
(129,606,o),
(171,606,qs),
(212,606,o),
(274,641,o),
(274,691,qs),
(274,742,o),
(212,776,o),
(171,776,qs),
(129,776,o),
(67,741,o),
(67,691,qs),
(67,642,o)
);
},
{
closed = 1;
nodes = (
(224,-184,o),
(267,-92,o),
(267,-39,qs),
(267,221,l),
(343,221,l),
(343,344,l),
(267,344,l),
(267,553,l),
(73,553,l),
(73,344,l),
(-4,344,l),
(-4,221,l),
(73,221,l),
(73,-4,ls),
(73,-39,o),
(53,-74,o),
(20,-86,o),
(2,-86,qs),
(-21,-86,o),
(-53,-81,o),
(-71,-77,q),
(-71,-228,l),
(-51,-233,o),
(13,-240,o),
(41,-240,qs),
(126,-240,o)
);
}
);
width = 341;
}
);
note = uni0249;
unicode = 585;
}
{
glyphname = uni024A;
layers = (
{
layerId = m01;
shapes = (
{
closed = 1;
nodes = (
(130,646,o),
(55,483,o),
(55,357,qs),
(55,232,o),
(128,69,o),
(248,-10,o),
(317,-10,qs),
(385,-10,o),
(473,38,o),
(505,79,q),
(513,79,l),
(513,51,o),
(513,9,o),
(513,-31,o),
(513,-57,qs),
(513,-45,ls),
(513,-151,o),
(622,-240,o),
(714,-240,qs),
(742,-240,o),
(796,-229,o),
(809,-223,q),
(809,-77,l),
(802,-79,o),
(771,-88,o),
(751,-88,qs),
(736,-88,o),
(710,-66,o),
(710,-44,qs),
(710,714,l),
(525,714,l),
(510,648,l),
(506,648,l),
(478,680,o),
(386,725,o),
(318,725,qs),
(250,725,o)
);
},
{
closed = 1;
nodes = (
(487,513,o),
(513,431,o),
(513,379,qs),
(513,372,ls),
(513,275,o),
(447,154,o),
(382,154,qs),
(330,154,o),
(262,248,o),
(262,354,qs),
(262,455,o),
(331,561,o),
(377,561,qs),
(427,561,o)
);
}
);
width = 788;
}
);
note = uni024A;
unicode = 586;
}
{
glyphname = uni024B;
layers = (
{
layerId = m01;
shapes = (
{
closed = 1;
nodes = (
(94,501,o),
(39,375,o),
(39,277,qs),
(39,135,o),
(152,-10,o),
(239,-10,qs),
(298,-10,o),
(366,38,o),
(383,66,q),
(390,66,l),
(387,46,o),
(383,1,o),
(383,-22,qs),
(383,-51,ls),
(383,-105,o),
(416,-191,o),
(496,-240,o),
(566,-240,qs),
(596,-240,o),
(654,-232,o),
(672,-222,q),
(672,-77,l),
(657,-81,o),
(634,-87,o),
(617,-87,qs),
(598,-87,o),
(577,-65,o),
(577,-49,qs),
(577,553,l),
(413,553,l),
(398,485,l),
(394,485,l),
(373,515,o),
(304,563,o),
(242,563,qs),
(187,563,o)
);
},
{
closed = 1;
nodes = (
(397,337,o),
(397,271,qs),
(397,248,ls),
(395,192,o),
(357,140,o),
(315,140,qs),
(273,140,o),
(237,207,o),
(237,275,qs),
(237,339,o),
(272,407,o),
(310,407,qs),
(360,407,o)
);
}
);
width = 650;
}
);
note = uni024B;
unicode = 587;
}
{
glyphname = uni024C;
layers = (
{
layerId = m01;
shapes = (
{
closed = 1;
nodes = (
(77,416,l),
(10,416,l),
(10,257,l),
(77,257,l),
(77,0,l),
(270,0,l),
(270,260,l),
(319,260,l),
(470,0,l),
(689,0,l),
(481,311,l),
(537,343,o),
(602,438,o),
(602,503,qs),
(602,714,o),
(311,714,qs),
(77,714,l)
);
},
{
closed = 1;
nodes = (
(407,529,o),
(407,494,qs),
(407,444,o),
(350,405,o),
(306,405,qs),
(270,405,l),
(270,568,l),
(308,568,ls),
(361,568,o)
);
}
);
width = 690;
}
);
note = uni024C;
unicode = 588;
}
{
glyphname = uni024D;
layers = (
{
layerId = m01;
shapes = (
{
closed = 1;
nodes = (
(278,352,o),
(315,376,o),
(358,383,o),
(376,383,qs),
(402,383,o),
(431,379,o),
(441,377,q),
(458,557,l),
(450,559,o),
(416,563,o),
(400,563,qs),
(353,563,o),
(270,506,o),
(247,465,q),
(238,465,l),
(208,553,l),
(66,553,l),
(66,328,l),
(-6,328,l),
(-6,205,l),
(66,205,l),
(66,0,l),
(257,0,l),
(257,205,l),
(362,205,l),
(362,328,l),
(267,328,l)
);
}
);
width = 469;
}
);
note = uni024D;
unicode = 589;
}
{
glyphname = uni024E;
layers = (
{
layerId = m01;
shapes = (
{
closed = 1;
nodes = (
(664,714,l),
(455,714,l),
(420,638,l),
(245,638,l),
(210,714,l),
(0,714,l),
(40,638,l),
(-5,638,l),
(-5,514,l),
(107,514,l),
(235,273,l),
(235,0,l),
(429,0,l),
(429,279,l),
(556,514,l),
(673,514,l),
(673,638,l),
(623,638,l)
);
},
{
closed = 1;
nodes = (
(362,514,l),
(332,449,l),
(302,514,l)
);
}
);
width = 667;
}
);
note = uni024E;
unicode = 590;
}
{
glyphname = uni024F;
layers = (
{
layerId = m01;
shapes = (
{
closed = 1;
nodes = (
(13,402,l),
(13,278,l),
(109,278,l),
(217,8,l),
(215,3,ls),
(201,-33,o),
(156,-88,o),
(109,-88,qs),
(92,-88,o),
(61,-84,o),
(50,-82,q),
(50,-232,l),
(64,-235,o),
(102,-240,o),
(128,-240,qs),
(201,-240,o),
(299,-194,o),
(366,-102,o),
(391,-35,qs),
(508,278,l),
(606,278,l),
(606,402,l),
(554,402,l),
(610,553,l),
(415,553,l),
(369,402,l),
(245,402,l),
(200,553,l),
(-1,553,l),
(59,402,l)
);
},
{
closed = 1;
nodes = (
(297,226,o),
(294,236,qs),
(282,278,l),
(332,278,l),
(319,235,ls),
(316,225,o),
(309,196,o),
(307,176,q),
(303,176,l),
(302,192,o)
);
}
);
width = 618;
}
);
note = uni024F;
unicode = 591;
}
{
glyphname = uni0250;
layers = (
{
layerId = m01;
shapes = (
{
closed = 1;
nodes = (
(483,15,o),
(531,40,q),
(476,166,l),
(436,148,o),
(355,125,o),
(322,125,qs),
(291,125,o),
(255,156,o),
(255,193,qs),
(255,201,l),
(347,204,ls),
(464,209,o),
(587,296,o),
(587,384,qs),
(587,475,o),
(491,563,o),
(419,563,qs),
(373,563,o),
(309,546,o),
(261,510,o),
(237,480,q),
(233,480,l),
(196,553,l),
(64,553,l),
(64,190,ls),
(64,94,o),
(182,-10,o),
(287,-10,qs),
(362,-10,o)
);
},
{
closed = 1;
nodes = (
(254,349,ls),
(254,384,o),
(304,428,o),
(338,428,qs),
(363,428,o),
(393,402,o),
(393,373,qs),
(393,343,o),
(351,310,o),
(298,308,qs),
(254,306,l)
);
}
);
width = 623;
}
);
note = uni0250;
unicode = 592;
}
{
glyphname = uni0251;
layers = (
{
layerId = m01;
shapes = (
{
closed = 1;
nodes = (
(390,42,o),
(412,72,q),
(418,72,l),
(441,26,o),
(511,-10,o),
(570,-10,qs),
(581,-10,o),
(613,-6,o),
(641,0,o),
(646,3,q),
(646,145,l),
(642,144,o),
(624,140,o),
(617,140,qs),
(601,140,o),
(577,164,o),
(577,199,qs),
(577,553,l),
(420,553,l),
(395,494,l),
(390,494,l),
(368,522,o),
(306,563,o),
(250,563,qs),
(156,563,o),
(42,418,o),
(42,276,qs),
(42,134,o),
(155,-10,o),
(255,-10,qs),
(318,-10,o)
);
},
{
closed = 1;
nodes = (
(235,204,o),
(235,275,qs),
(235,343,o),
(280,409,o),
(321,409,qs),
(401,409,o),
(401,287,qs),
(401,264,ls),
(401,203,o),
(358,140,o),
(320,140,qs),
(280,140,o)
);
}
);
width = 650;
}
);
note = uni0251;
unicode = 593;
}
{
glyphname = uni0252;
layers = (
{
layerId = m01;
shapes = (
{
closed = 1;
nodes = (
(260,511,o),
(238,481,q),
(232,481,l),
(210,528,o),
(139,563,o),
(80,563,qs),
(69,563,o),
(37,559,o),
(9,553,o),
(4,550,q),
(4,408,l),
(8,410,o),
(26,413,o),
(33,413,qs),
(49,413,o),
(73,389,o),
(73,354,qs),
(73,0,l),
(230,0,l),
(255,59,l),
(260,59,l),
(282,31,o),
(345,-10,o),
(400,-10,qs),
(494,-10,o),
(608,135,o),
(608,277,qs),
(608,419,o),
(495,563,o),
(395,563,qs),
(332,563,o)
);
},
{
closed = 1;
nodes = (
(415,349,o),
(415,278,qs),
(415,211,o),
(370,144,o),
(329,144,qs),
(249,144,o),
(249,266,qs),
(249,289,ls),
(249,351,o),
(293,413,o),
(330,413,qs),
(371,413,o)
);
}
);
width = 650;
}
);
note = uni0252;
unicode = 594;
}
{
glyphname = uni0253;
layers = (
{
layerId = m01;
shapes = (
{
closed = 1;
nodes = (
(123,732,o),
(73,653,o),
(73,586,qs),
(73,0,l),
(225,0,l),
(255,51,l),
(267,51,l),
(281,38,o),
(315,9,o),
(367,-10,o),
(408,-10,qs),
(465,-10,o),
(557,51,o),
(611,179,o),
(611,278,qs),
(611,372,o),
(558,498,o),
(468,563,o),
(413,563,qs),
(354,563,o),
(285,515,o),
(267,487,q),
(260,487,l),
(262,509,o),
(267,561,o),
(267,590,qs),
(267,581,l),
(271,614,o),
(300,614,qs),
(320,614,o),
(353,606,o),
(360,603,q),
(360,748,l),
(350,753,o),
(299,767,o),
(267,767,qs),
(211,767,o)
);
},
{
closed = 1;
nodes = (
(413,345,o),
(413,280,qs),
(413,214,o),
(374,146,o),
(347,146,qs),
(301,146,o),
(267,219,o),
(267,291,qs),
(269,355,o),
(306,410,o),
(344,410,qs),
(373,410,o)
);
}
);
width = 650;
}
);
note = uni0253;
unicode = 595;
}
{
glyphname = uni0254;
layers = (
{
layerId = m01;
shapes = (
{
closed = 1;
nodes = (
(62,539,o),
(29,520,q),
(84,372,l),
(113,388,o),
(168,409,o),
(200,409,qs),
(241,409,o),
(295,347,o),
(295,279,qs),
(295,207,o),
(241,146,o),
(204,146,qs),
(153,146,o),
(80,175,o),
(44,202,q),
(44,38,l),
(82,12,o),
(159,-10,o),
(220,-10,qs),
(344,-10,o),
(492,130,o),
(492,279,qs),
(492,381,o),
(426,506,o),
(306,563,o),
(225,563,qs),
(160,563,o)
);
}
);
width = 532;
}
);
note = uni0254;
unicode = 596;
}
{
glyphname = uni0255;
layers = (
{
layerId = m01;
shapes = (
{
closed = 1;
nodes = (
(114,500,o),
(39,372,o),
(39,274,qs),
(39,213,o),
(68,126,o),
(91,90,q),
(78,65,o),
(54,15,o),
(42,-17,q),
(131,-58,l),
(139,-34,o),
(159,10,o),
(169,29,q),
(195,14,o),
(270,-10,o),
(324,-10,qs),
(387,-10,o),
(485,29,o),
(542,108,o),
(542,167,qs),
(542,229,o),
(466,306,o),
(385,306,qs),
(330,306,o),
(256,274,o),
(239,258,q),
(238,264,o),
(237,282,o),
(237,289,qs),
(237,409,o),
(343,409,qs),
(378,409,o),
(435,391,o),
(469,376,q),
(520,520,l),
(489,535,o),
(402,563,o),
(333,563,qs),
(246,563,o)
);
},
{
closed = 1;
nodes = (
(408,186,o),
(408,166,qs),
(408,145,o),
(367,125,o),
(342,125,qs),
(313,125,o),
(277,146,o),
(264,164,q),
(275,178,o),
(321,206,o),
(355,206,qs),
(378,206,o)
);
}
);
width = 569;
}
);
note = uni0255;
unicode = 597;
}
{
glyphname = uni0256;
layers = (
{
layerId = m01;
shapes = (
{
closed = 1;
nodes = (
(654,-227,o),
(672,-220,q),
(672,-78,l),
(657,-82,o),
(632,-87,o),
(616,-87,qs),
(577,-87,o),
(577,-39,qs),
(577,760,l),
(384,760,l),
(384,602,ls),
(384,569,o),
(389,510,o),
(392,484,q),
(386,484,l),
(375,503,o),
(339,539,o),
(284,563,o),
(242,563,qs),
(185,563,o),
(94,499,o),
(42,373,o),
(42,278,qs),
(42,184,o),
(93,55,o),
(181,-10,o),
(236,-10,qs),
(297,-10,o),
(365,38,o),
(383,66,q),
(389,66,l),
(387,45,o),
(383,-9,o),
(383,-39,qs),
(383,-51,ls),
(383,-106,o),
(416,-192,o),
(496,-240,o),
(566,-240,qs),
(598,-240,o)
);
},
{
closed = 1;
nodes = (
(235,205,o),
(235,275,qs),
(235,339,o),
(279,408,o),
(319,408,qs),
(364,408,o),
(400,345,o),
(400,280,qs),
(400,262,ls),
(400,141,o),
(318,141,qs),
(281,141,o)
);
}
);
width = 650;
}
);
note = uni0256;
unicode = 598;
}
{
glyphname = uni0258;
layers = (
{
layerId = m01;
shapes = (
{
closed = 1;
nodes = (
(42,437,o),
(42,310,qs),
(42,225,l),
(383,225,l),
(381,182,o),
(321,126,o),
(262,126,qs),
(210,126,o),
(124,146,o),
(78,168,q),
(78,31,l),
(118,10,o),
(213,-10,o),
(285,-10,qs),
(369,-10,o),
(500,49,o),
(576,175,o),
(576,273,qs),
(576,373,o),
(507,501,o),
(385,563,o),
(303,563,qs),
(182,563,o)
);
},
{
closed = 1;
nodes = (
(375,391,o),
(379,345,q),
(215,345,l),
(216,382,o),
(257,433,o),
(296,433,qs),
(330,433,o)
);
}
);
width = 618;
}
);
note = uni0258;
unicode = 600;
}
{
glyphname = uni0259;
layers = (
{
layerId = m01;
shapes = (
{
closed = 1;
nodes = (
(118,539,o),
(78,522,q),
(78,385,l),
(124,407,o),
(210,427,o),
(262,427,qs),
(321,427,o),
(381,372,o),
(383,328,q),
(42,328,l),
(42,243,ls),
(42,116,o),
(182,-10,o),
(303,-10,qs),
(385,-10,o),
(507,52,o),
(576,181,o),
(576,280,qs),
(576,379,o),
(500,504,o),
(369,563,o),
(285,563,qs),
(213,563,o)
);
},
{
closed = 1;
nodes = (
(375,162,o),
(330,120,o),
(296,120,qs),
(257,120,o),
(216,171,o),
(215,208,q),
(379,208,l)
);
}
);
width = 618;
}
);
note = uni0259;
unicode = 601;
}
{
glyphname = uni025A;
layers = (
{
layerId = m01;
shapes = (
{
closed = 1;
nodes = (
(509,55,o),
(585,182,o),
(588,276,q),
(625,285,l),
(648,219,o),
(715,168,o),
(771,168,qs),
(806,168,o),
(859,193,o),
(873,206,q),
(842,302,l),
(829,292,o),
(802,280,o),
(785,280,qs),
(763,280,o),
(737,323,o),
(725,370,qs),
(711,424,l),
(572,391,l),
(542,482,o),
(396,563,o),
(296,563,qs),
(223,563,o),
(104,533,o),
(75,521,q),
(75,375,l),
(110,392,o),
(209,422,o),
(266,422,qs),
(313,422,o),
(379,388,o),
(393,342,q),
(40,248,l),
(40,126,o),
(170,-10,o),
(300,-10,qs),
(382,-10,o)
);
},
{
closed = 1;
nodes = (
(227,162,o),
(221,184,q),
(406,232,l),
(406,177,o),
(348,124,o),
(308,124,qs),
(268,124,o)
);
}
);
width = 873;
}
);
note = uni025A;
unicode = 602;
}
{
glyphname = uni025B;
layers = (
{
layerId = m01;
shapes = (
{
closed = 1;
nodes = (
(292,349,o),
(244,369,o),
(244,390,qs),
(244,407,o),
(278,427,o),
(317,427,qs),
(357,427,o),
(427,409,o),
(465,392,q),
(519,521,l),
(470,542,o),
(371,563,o),
(309,563,qs),
(241,563,o),
(130,533,o),
(64,468,o),
(64,413,qs),
(64,368,o),
(119,304,o),
(164,292,q),
(164,287,l),
(98,278,o),
(31,205,o),
(31,157,qs),
(31,77,o),
(151,-10,o),
(295,-10,qs),
(375,-10,o),
(477,11,o),
(519,29,q),
(519,175,l),
(485,159,o),
(385,132,o),
(323,132,qs),
(278,132,o),
(235,148,o),
(222,170,o),
(222,179,qs),
(222,194,o),
(240,214,o),
(290,225,o),
(339,225,qs),
(411,225,l),
(411,349,l),
(351,349,ls)
);
}
);
width = 554;
}
);
note = uni025B;
unicode = 603;
}
{
glyphname = uni025D;
layers = (
{
layerId = m01;
shapes = (
{
closed = 1;
nodes = (
(85,542,o),
(35,521,q),
(89,392,l),
(127,409,o),
(197,427,o),
(237,427,qs),
(276,427,o),
(310,407,o),
(310,390,qs),
(310,369,o),
(262,349,o),
(203,349,qs),
(143,349,l),
(143,225,l),
(215,225,ls),
(261,225,o),
(307,214,o),
(322,194,o),
(322,179,qs),
(322,170,o),
(309,148,o),
(268,132,o),
(225,132,qs),
(163,132,o),
(68,156,o),
(35,167,q),
(35,21,l),
(62,12,o),
(116,-2,o),
(186,-10,o),
(236,-10,qs),
(380,-10,o),
(513,77,o),
(513,157,qs),
(513,205,o),
(456,278,o),
(390,287,q),
(390,292,l),
(445,307,o),
(471,348,q),
(520,361,l),
(539,304,o),
(609,250,o),
(664,250,qs),
(701,250,o),
(756,274,o),
(779,293,q),
(736,395,l),
(723,385,o),
(696,370,o),
(675,370,qs),
(649,370,o),
(629,411,o),
(616,458,qs),
(603,503,l),
(478,469,l),
(455,519,o),
(327,563,o),
(245,563,qs),
(183,563,o)
);
}
);
width = 779;
}
);
note = uni025D;
unicode = 605;
}
{
glyphname = uni025E;
layers = (
{
layerId = m01;
shapes = (
{
closed = 1;
nodes = (
(119,499,o),
(39,372,o),
(39,278,qs),
(39,175,o),
(120,48,o),
(256,-10,o),
(340,-10,qs),
(472,-10,o),
(622,80,o),
(622,164,qs),
(622,206,o),
(583,255,o),
(524,280,o),
(494,283,q),
(494,287,l),
(542,296,o),
(609,353,o),
(609,407,qs),
(609,488,o),
(471,563,o),
(352,563,qs),
(261,563,o)
);
},
{
closed = 1;
nodes = (
(439,399,o),
(439,379,qs),
(439,354,o),
(394,339,o),
(362,339,qs),
(312,339,l),
(312,219,l),
(364,219,ls),
(395,219,o),
(435,204,o),
(435,182,qs),
(435,164,o),
(399,137,o),
(354,137,qs),
(299,137,o),
(234,202,o),
(234,278,qs),
(234,423,o),
(367,423,qs),
(405,423,o)
);
}
);
width = 655;
}
);
note = uni025E;
unicode = 606;
}
{
glyphname = uni0260;
layers = (
{
layerId = m01;
shapes = (
{
closed = 1;
nodes = (
(383,590,qs),
(383,582,ls),
(383,560,o),
(392,510,o),
(397,489,q),
(393,489,l),
(366,524,o),
(289,563,o),
(243,563,qs),
(153,563,o),
(39,416,o),
(39,277,qs),
(39,144,o),
(145,-10,o),
(239,-10,qs),
(283,-10,o),
(355,25,o),
(383,66,q),
(384,66,l),
(383,53,o),
(383,23,o),
(383,8,qs),
(383,0,ls),
(383,-55,o),
(335,-104,o),
(289,-104,qs),
(234,-104,o),
(125,-84,o),
(69,-62,q),
(69,-209,l),
(121,-228,o),
(221,-240,o),
(278,-240,qs),
(422,-240,o),
(577,-117,o),
(577,4,qs),
(577,567,ls),
(577,591,o),
(606,617,o),
(627,617,qs),
(647,617,o),
(676,609,o),
(683,606,q),
(683,752,l),
(673,757,o),
(619,770,o),
(583,770,qs),
(383,770,o)
);
},
{
closed = 1;
nodes = (
(397,349,o),
(397,271,qs),
(397,253,ls),
(397,186,o),
(350,140,o),
(315,140,qs),
(273,140,o),
(237,207,o),
(237,275,qs),
(237,407,o),
(310,407,qs),
(352,407,o)
);
}
);
width = 650;
}
);
note = uni0260;
unicode = 608;
}
{
glyphname = uni0262;
layers = (
{
layerId = m01;
shapes = (
{
closed = 1;
nodes = (
(52,414,o),
(52,280,qs),
(52,181,o),
(122,53,o),
(245,-8,o),
(324,-8,qs),
(388,-8,o),
(505,12,o),
(549,25,q),
(549,336,l),
(298,336,l),
(298,203,l),
(382,203,l),
(382,137,l),
(376,136,o),
(344,134,o),
(336,134,qs),
(289,134,o),
(235,209,o),
(235,275,qs),
(235,314,o),
(256,381,o),
(307,422,o),
(351,422,qs),
(389,422,o),
(452,407,o),
(480,393,q),
(536,529,l),
(502,543,o),
(404,564,o),
(350,564,qs),
(205,564,o)
);
}
);
width = 623;
}
);
note = uni0262;
unicode = 610;
}
{
glyphname = uni0263;
layers = (
{
layerId = m01;
shapes = (
{
closed = 1;
nodes = (
(469,-150,o),
(469,-78,qs),
(469,-25,o),
(436,66,o),
(406,122,q),
(614,553,l),
(410,553,l),
(331,343,ls),
(321,317,o),
(310,280,o),
(305,255,q),
(302,255,l),
(296,279,o),
(284,325,o),
(277,344,qs),
(203,553,l),
(0,553,l),
(193,127,l),
(173,85,o),
(143,20,o),
(127,-40,o),
(127,-76,qs),
(127,-153,o),
(215,-240,o),
(297,-240,qs),
(379,-240,o)
);
},
{
closed = 1;
nodes = (
(272,-67,qs),
(272,-55,o),
(282,0,o),
(298,28,q),
(315,-3,o),
(324,-57,o),
(324,-69,qs),
(324,-117,o),
(298,-117,qs),
(272,-117,o)
);
}
);
width = 618;
}
);
note = uni0263;
unicode = 611;
}
{
glyphname = uni0264;
layers = (
{
layerId = m01;
shapes = (
{
closed = 1;
nodes = (
(401,521,o),
(375,488,qs),
(353,460,ls),
(340,444,o),
(314,403,o),
(304,386,q),
(300,386,l),
(289,404,o),
(261,447,o),
(249,462,qs),
(225,491,ls),
(197,525,o),
(134,560,o),
(80,560,qs),
(53,560,o),
(14,551,o),
(1,546,q),
(1,405,l),
(9,407,o),
(26,409,o),
(34,409,qs),
(60,409,o),
(101,383,o),
(132,343,qs),
(182,280,l),
(158,254,o),
(122,189,o),
(122,141,qs),
(122,68,o),
(217,-15,o),
(299,-15,qs),
(383,-15,o),
(480,71,o),
(480,140,qs),
(480,190,o),
(438,251,o),
(410,282,q),
(462,341,ls),
(498,382,o),
(545,406,o),
(571,406,qs),
(579,406,o),
(590,405,o),
(596,404,q),
(596,546,l),
(583,552,o),
(542,560,o),
(516,560,qs),
(469,560,o)
);
},
{
closed = 1;
nodes = (
(333,153,o),
(333,136,qs),
(333,124,o),
(319,102,o),
(303,102,qs),
(289,102,o),
(274,123,o),
(274,136,qs),
(274,152,o),
(286,181,o),
(303,200,q),
(320,181,o)
);
}
);
width = 597;
}
);
note = uni0264;
unicode = 612;
}
{
glyphname = uni0265;
layers = (
{
layerId = m01;
shapes = (
{
closed = 1;
nodes = (
(604,-207,l),
(604,553,l),
(413,553,l),
(413,310,ls),
(413,228,o),
(374,140,o),
(322,140,qs),
(256,140,o),
(256,251,qs),
(256,553,l),
(64,553,l),
(64,193,ls),
(64,122,o),
(117,32,o),
(206,-10,o),
(260,-10,qs),
(310,-10,o),
(385,25,o),
(412,68,q),
(421,68,l),
(419,46,o),
(413,-37,o),
(413,-99,qs),
(413,-207,l)
);
}
);
width = 670;
}
);
note = uni0265;
unicode = 613;
}
{
glyphname = uni0266;
layers = (
{
layerId = m01;
shapes = (
{
closed = 1;
nodes = (
(257,0,l),
(257,220,ls),
(257,302,o),
(296,390,o),
(348,390,qs),
(414,390,o),
(414,279,qs),
(414,0,l),
(606,0,l),
(606,337,ls),
(606,409,o),
(553,498,o),
(465,540,o),
(410,540,qs),
(361,540,o),
(285,505,o),
(258,462,q),
(249,462,l),
(252,473,o),
(257,508,o),
(257,538,qs),
(257,576,ls),
(257,600,o),
(286,624,o),
(306,624,qs),
(326,624,o),
(349,618,o),
(355,616,q),
(355,750,l),
(345,755,o),
(294,763,o),
(263,763,qs),
(174,763,o),
(66,676,o),
(66,572,qs),
(66,0,l)
);
}
);
width = 670;
}
);
note = uni0266;
unicode = 614;
}
{
glyphname = uni0267;
layers = (
{
layerId = m01;
shapes = (
{
closed = 1;
nodes = (
(66,676,o),
(66,572,qs),
(66,0,l),
(257,0,l),
(257,220,ls),
(257,302,o),
(296,390,o),
(348,390,qs),
(414,390,o),
(414,279,qs),
(414,0,ls),
(414,-54,o),
(379,-86,o),
(357,-86,qs),
(340,-86,o),
(315,-81,o),
(300,-77,q),
(300,-228,l),
(319,-233,o),
(377,-240,o),
(402,-240,qs),
(480,-240,o),
(569,-183,o),
(606,-89,o),
(606,-36,qs),
(606,337,ls),
(606,409,o),
(553,498,o),
(465,540,o),
(410,540,qs),
(361,540,o),
(285,505,o),
(258,462,q),
(249,462,l),
(251,470,o),
(257,506,o),
(257,538,qs),
(257,576,ls),
(257,600,o),
(286,624,o),
(306,624,qs),
(326,624,o),
(349,618,o),
(355,616,q),
(355,750,l),
(345,755,o),
(294,763,o),
(263,763,qs),
(174,763,o)
);
}
);
width = 683;
}
);
note = uni0267;
unicode = 615;
}
{
glyphname = uni0268;
layers = (
{
layerId = m01;
shapes = (
{
closed = 1;
nodes = (
(62,742,o),
(62,691,qs),
(62,642,o),
(121,607,o),
(163,607,qs),
(204,607,o),
(265,642,o),
(265,691,qs),
(265,742,o),
(204,776,o),
(163,776,qs),
(121,776,o)
);
},
{
closed = 1;
nodes = (
(258,553,l),
(67,553,l),
(67,337,l),
(-5,337,l),
(-5,216,l),
(67,216,l),
(67,0,l),
(258,0,l),
(258,216,l),
(330,216,l),
(330,337,l),
(258,337,l)
);
}
);
width = 325;
}
);
note = uni0268;
unicode = 616;
}
{
glyphname = iotaserifed;
layers = (
{
layerId = m01;
shapes = (
{
closed = 1;
nodes = (
(36,454,l),
(108,424,l),
(108,130,l),
(36,99,l),
(36,0,l),
(359,0,l),
(359,99,l),
(287,130,l),
(287,424,l),
(359,454,l),
(359,553,l),
(36,553,l)
);
}
);
width = 395;
}
);
note = iotaserifed;
unicode = 618;
}
{
glyphname = uni026B;
layers = (
{
layerId = m01;
shapes = (
{
closed = 1;
nodes = (
(362,0,l),
(362,283,l),
(369,283,ls),
(426,283,o),
(503,368,o),
(503,450,q),
(414,450,l),
(405,406,o),
(375,406,qs),
(362,406,l),
(362,760,l),
(167,760,l),
(167,447,l),
(158,447,ls),
(101,447,o),
(27,365,o),
(26,282,q),
(116,282,l),
(118,301,o),
(139,323,o),
(155,323,qs),
(167,323,l),
(167,0,l)
);
}
);
width = 529;
}
);
note = uni026B;
unicode = 619;
}
{
glyphname = uni026C;
layers = (
{
layerId = m01;
shapes = (
{
closed = 1;
nodes = (
(360,280,l),
(460,280,l),
(460,373,l),
(360,373,l),
(360,760,l),
(166,760,l),
(166,513,l),
(155,518,o),
(130,524,o),
(116,524,qs),
(58,524,o),
(-10,457,o),
(-10,400,qs),
(-10,352,o),
(54,280,o),
(130,280,qs),
(166,280,l),
(166,0,l),
(360,0,l)
);
},
{
closed = 1;
nodes = (
(99,385,o),
(99,402,qs),
(99,431,o),
(132,431,qs),
(144,431,o),
(166,418,o),
(166,392,qs),
(166,373,l),
(139,373,ls),
(123,373,o)
);
}
);
width = 455;
}
);
note = uni026C;
unicode = 620;
}
{
glyphname = uni026D;
layers = (
{
layerId = m01;
shapes = (
{
closed = 1;
nodes = (
(344,-232,o),
(362,-222,q),
(362,-77,l),
(347,-81,o),
(324,-87,o),
(307,-87,qs),
(289,-87,o),
(267,-65,o),
(267,-49,qs),
(267,760,l),
(73,760,l),
(73,-51,ls),
(73,-105,o),
(106,-191,o),
(187,-240,o),
(257,-240,qs),
(286,-240,o)
);
}
);
width = 341;
}
);
note = uni026D;
unicode = 621;
}
{
glyphname = uni026E;
layers = (
{
layerId = m01;
shapes = (
{
closed = 1;
nodes = (
(718,-170,o),
(786,-46,o),
(786,35,qs),
(786,125,o),
(672,246,o),
(561,256,q),
(767,435,l),
(767,553,l),
(267,553,l),
(267,760,l),
(73,760,l),
(73,0,l),
(267,0,l),
(267,407,l),
(521,407,l),
(344,252,l),
(344,130,l),
(410,130,ls),
(488,130,o),
(566,100,o),
(592,50,o),
(592,20,qs),
(592,-25,o),
(528,-88,o),
(450,-88,qs),
(391,-88,o),
(275,-60,o),
(227,-38,q),
(227,-202,l),
(276,-220,o),
(381,-240,o),
(458,-240,qs),
(573,-240,o)
);
}
);
width = 824;
}
);
note = uni026E;
unicode = 622;
}
{
glyphname = uni026F;
layers = (
{
layerId = m01;
shapes = (
{
closed = 1;
nodes = (
(394,30,o),
(420,67,q),
(426,67,l),
(451,31,o),
(530,-10,o),
(591,-10,qs),
(653,-10,o),
(735,34,o),
(757,68,q),
(762,68,l),
(790,0,l),
(934,0,l),
(934,553,l),
(743,553,l),
(743,311,ls),
(743,229,o),
(709,140,o),
(659,140,qs),
(627,140,o),
(595,192,o),
(595,252,qs),
(595,553,l),
(404,553,l),
(404,295,ls),
(404,221,o),
(369,140,o),
(322,140,qs),
(289,140,o),
(255,189,o),
(255,252,qs),
(255,553,l),
(64,553,l),
(64,193,ls),
(64,87,o),
(165,-10,o),
(259,-10,qs),
(311,-10,o)
);
}
);
width = 1000;
}
);
note = uni026F;
unicode = 623;
}
{
glyphname = uni0270;
layers = (
{
layerId = m01;
shapes = (
{
closed = 1;
nodes = (
(953,-240,l),
(953,553,l),
(759,553,l),
(759,312,ls),
(759,234,o),
(726,143,o),
(673,143,qs),
(609,143,o),
(609,254,qs),
(609,553,l),
(415,553,l),
(415,295,ls),
(415,225,o),
(379,143,o),
(329,143,qs),
(297,143,o),
(266,197,o),
(266,247,qs),
(266,553,l),
(71,553,l),
(71,193,ls),
(71,86,o),
(170,-10,o),
(266,-10,qs),
(310,-10,o),
(399,23,o),
(423,64,q),
(441,64,l),
(466,25,o),
(551,-10,o),
(609,-10,qs),
(656,-10,o),
(731,28,o),
(759,71,q),
(767,71,l),
(765,57,o),
(759,2,o),
(759,-16,qs),
(759,-240,l)
);
}
);
width = 1027;
}
);
note = uni0270;
unicode = 624;
}
{
glyphname = uni0271;
layers = (
{
layerId = m01;
shapes = (
{
closed = 1;
nodes = (
(628,530,o),
(603,489,q),
(585,489,l),
(561,527,o),
(476,563,o),
(417,563,qs),
(371,563,o),
(281,527,o),
(255,484,q),
(245,484,l),
(220,553,l),
(73,553,l),
(73,0,l),
(267,0,l),
(267,241,ls),
(267,319,o),
(301,410,o),
(354,410,qs),
(417,410,o),
(417,299,qs),
(417,0,l),
(611,0,l),
(611,257,ls),
(611,328,o),
(648,410,o),
(697,410,qs),
(730,410,o),
(761,356,o),
(761,306,qs),
(761,-15,ls),
(761,-61,o),
(727,-86,o),
(708,-86,qs),
(692,-86,o),
(668,-81,o),
(652,-77,q),
(652,-227,l),
(669,-232,o),
(729,-240,o),
(756,-240,qs),
(830,-240,o),
(917,-186,o),
(955,-98,o),
(955,-48,qs),
(955,360,ls),
(955,467,o),
(856,563,o),
(761,563,qs),
(718,563,o)
);
}
);
width = 1027;
}
);
note = uni0271;
unicode = 625;
}
{
glyphname = uni0272;
layers = (
{
layerId = m01;
shapes = (
{
closed = 1;
nodes = (
(281,527,o),
(255,484,q),
(245,484,l),
(220,553,l),
(73,553,l),
(73,-49,ls),
(73,-65,o),
(50,-87,o),
(31,-87,qs),
(15,-87,o),
(-7,-81,o),
(-21,-77,q),
(-21,-222,l),
(-4,-232,o),
(50,-240,o),
(77,-240,qs),
(151,-240,o),
(233,-186,o),
(267,-98,o),
(267,-48,qs),
(267,241,ls),
(267,321,o),
(302,410,o),
(356,410,qs),
(391,410,o),
(421,357,o),
(421,308,qs),
(421,0,l),
(616,0,l),
(616,360,ls),
(616,433,o),
(564,522,o),
(474,563,o),
(416,563,qs),
(372,563,o)
);
}
);
width = 687;
}
);
note = uni0272;
unicode = 626;
}
{
glyphname = uni0273;
layers = (
{
layerId = m01;
shapes = (
{
closed = 1;
nodes = (
(616,433,o),
(564,522,o),
(474,563,o),
(416,563,qs),
(372,563,o),
(281,527,o),
(255,484,q),
(245,484,l),
(220,553,l),
(73,553,l),
(73,0,l),
(267,0,l),
(267,241,ls),
(267,321,o),
(302,410,o),
(356,410,qs),
(391,410,o),
(421,357,o),
(421,308,qs),
(421,-46,ls),
(421,-104,o),
(455,-191,o),
(537,-240,o),
(609,-240,qs),
(639,-240,o),
(697,-232,o),
(715,-222,q),
(715,-77,l),
(700,-81,o),
(679,-87,o),
(662,-87,qs),
(640,-87,o),
(616,-64,o),
(616,-45,qs),
(616,360,ls)
);
}
);
width = 687;
}
);
note = uni0273;
unicode = 627;
}
{
glyphname = uni0274;
layers = (
{
layerId = m01;
shapes = (
{
closed = 1;
nodes = (
(235,224,ls),
(235,271,o),
(231,337,o),
(229,365,q),
(405,0,l),
(640,0,l),
(640,553,l),
(483,553,l),
(483,328,ls),
(483,288,o),
(485,231,o),
(488,195,q),
(313,553,l),
(78,553,l),
(78,0,l),
(235,0,l)
);
}
);
width = 721;
}
);
note = uni0274;
unicode = 628;
}
{
glyphname = uni0276;
layers = (
{
layerId = m01;
shapes = (
{
closed = 1;
nodes = (
(38,413,o),
(38,276,qs),
(38,184,o),
(103,58,o),
(218,-7,o),
(293,-7,qs),
(329,-7,o),
(385,3,o),
(401,7,q),
(401,0,l),
(819,0,l),
(819,139,l),
(587,139,l),
(587,213,l),
(805,213,l),
(805,346,l),
(587,346,l),
(587,411,l),
(819,411,l),
(819,550,l),
(401,550,l),
(401,544,l),
(385,549,o),
(335,560,o),
(293,560,qs),
(174,560,o)
);
},
{
closed = 1;
nodes = (
(402,352,o),
(402,276,qs),
(402,207,o),
(366,132,o),
(318,132,qs),
(275,132,o),
(236,202,o),
(236,276,qs),
(236,350,o),
(275,420,o),
(319,420,qs),
(364,420,o)
);
}
);
width = 884;
}
);
note = uni0276;
unicode = 630;
}
{
glyphname = uni0277;
layers = (
{
layerId = m01;
shapes = (
{
closed = 1;
nodes = (
(132,479,o),
(38,334,o),
(38,238,qs),
(38,123,o),
(154,-10,o),
(255,-10,qs),
(330,-10,o),
(406,52,o),
(422,93,q),
(428,93,l),
(438,68,o),
(476,20,o),
(542,-10,o),
(592,-10,qs),
(699,-10,o),
(812,123,o),
(812,238,qs),
(812,332,o),
(726,477,o),
(556,560,o),
(428,560,qs),
(307,560,o)
);
},
{
closed = 1;
nodes = (
(593,356,o),
(632,279,o),
(632,235,qs),
(632,192,o),
(600,140,o),
(569,140,qs),
(531,140,o),
(511,188,o),
(511,223,qs),
(511,323,l),
(339,323,l),
(339,227,ls),
(339,189,o),
(317,140,o),
(278,140,qs),
(249,140,o),
(218,192,o),
(218,238,qs),
(218,281,o),
(256,357,o),
(346,404,o),
(424,404,qs),
(502,404,o)
);
}
);
width = 852;
}
);
note = uni0277;
unicode = 631;
}
{
glyphname = uni0278;
layers = (
{
layerId = m01;
shapes = (
{
closed = 1;
nodes = (
(343,760,l),
(343,553,l),
(235,547,o),
(103,472,o),
(42,352,o),
(42,276,qs),
(42,204,o),
(110,87,o),
(245,11,o),
(345,0,q),
(345,-240,l),
(524,-240,l),
(524,0,l),
(628,9,o),
(761,85,o),
(824,203,o),
(824,276,qs),
(824,350,o),
(759,468,o),
(626,544,o),
(524,553,q),
(524,760,l)
);
},
{
closed = 1;
nodes = (
(294,144,o),
(231,219,o),
(231,276,qs),
(231,313,o),
(262,374,o),
(314,410,o),
(343,411,q),
(343,142,l)
);
},
{
closed = 1;
nodes = (
(570,410,o),
(634,332,o),
(634,276,qs),
(634,218,o),
(572,144,o),
(524,142,q),
(524,411,l)
);
}
);
width = 866;
}
);
note = uni0278;
unicode = 632;
}
{
glyphname = uni0279;
layers = (
{
layerId = m01;
shapes = (
{
closed = 1;
nodes = (
(200,48,o),
(222,88,q),
(231,88,l),
(261,0,l),
(403,0,l),
(403,553,l),
(212,553,l),
(212,281,ls),
(212,231,o),
(173,184,o),
(117,170,o),
(93,170,qs),
(67,170,o),
(38,174,o),
(28,176,q),
(11,-4,l),
(19,-5,o),
(53,-10,o),
(69,-10,qs),
(116,-10,o)
);
}
);
width = 469;
}
);
note = uni0279;
unicode = 633;
}
{
glyphname = uni027B;
layers = (
{
layerId = m01;
shapes = (
{
closed = 1;
nodes = (
(492,-232,o),
(511,-222,q),
(511,-76,l),
(495,-80,o),
(472,-87,o),
(453,-87,qs),
(431,-87,o),
(410,-57,o),
(410,-37,qs),
(410,553,l),
(216,553,l),
(216,281,ls),
(216,244,o),
(189,199,o),
(146,178,o),
(98,171,o),
(77,171,qs),
(63,171,o),
(37,174,o),
(34,175,q),
(22,-7,l),
(27,-8,o),
(53,-10,o),
(62,-10,qs),
(115,-10,o),
(194,46,o),
(217,82,q),
(223,82,l),
(219,60,o),
(216,12,o),
(216,-35,qs),
(216,-42,ls),
(216,-100,o),
(249,-190,o),
(330,-240,o),
(401,-240,qs),
(433,-240,o)
);
}
);
width = 483;
}
);
note = uni027B;
unicode = 635;
}
{
glyphname = uni027D;
layers = (
{
layerId = m01;
shapes = (
{
closed = 1;
nodes = (
(316,533,o),
(271,488,o),
(257,463,q),
(248,463,l),
(218,553,l),
(73,553,l),
(73,-51,ls),
(73,-105,o),
(106,-191,o),
(187,-240,o),
(257,-240,qs),
(286,-240,o),
(344,-232,o),
(362,-222,q),
(362,-77,l),
(347,-81,o),
(324,-87,o),
(307,-87,qs),
(289,-87,o),
(267,-65,o),
(267,-49,qs),
(267,271,ls),
(267,309,o),
(293,353,o),
(335,375,o),
(383,381,o),
(404,381,qs),
(418,381,o),
(443,380,o),
(449,378,q),
(461,560,l),
(457,561,o),
(420,563,o),
(411,563,qs),
(376,563,o)
);
}
);
width = 483;
}
);
note = uni027D;
unicode = 637;
}
{
glyphname = uni027E;
layers = (
{
layerId = m01;
shapes = (
{
closed = 1;
nodes = (
(71,463,o),
(71,353,qs),
(71,0,l),
(266,0,l),
(266,343,ls),
(266,361,o),
(287,401,o),
(324,401,qs),
(341,401,o),
(366,398,o),
(381,394,q),
(403,550,l),
(371,558,o),
(313,566,o),
(272,566,qs),
(174,566,o)
);
}
);
width = 427;
}
);
note = uni027E;
unicode = 638;
}
{
glyphname = uni027F;
layers = (
{
layerId = m01;
shapes = (
{
closed = 1;
nodes = (
(56,558,o),
(24,550,q),
(46,394,l),
(61,398,o),
(85,401,o),
(102,401,qs),
(127,401,o),
(152,382,o),
(161,355,o),
(161,343,qs),
(161,-240,l),
(355,-240,l),
(355,353,ls),
(355,463,o),
(251,566,o),
(153,566,qs),
(113,566,o)
);
}
);
width = 427;
}
);
note = uni027F;
unicode = 639;
}
{
glyphname = uni0280;
layers = (
{
layerId = m01;
shapes = (
{
closed = 1;
nodes = (
(253,183,l),
(273,183,l),
(377,0,l),
(571,0,l),
(415,230,l),
(468,249,o),
(522,330,o),
(522,382,qs),
(522,468,o),
(400,553,o),
(284,553,qs),
(75,553,l),
(75,0,l),
(253,0,l)
);
},
{
closed = 1;
nodes = (
(253,422,l),
(283,422,ls),
(315,422,o),
(344,392,o),
(344,366,qs),
(344,336,o),
(303,314,o),
(276,314,qs),
(253,314,l)
);
}
);
width = 584;
}
);
note = uni0280;
unicode = 640;
}
{
glyphname = uni0281;
layers = (
{
layerId = m01;
shapes = (
{
closed = 1;
nodes = (
(284,0,ls),
(400,0,o),
(522,86,o),
(522,171,qs),
(522,223,o),
(468,304,o),
(415,323,q),
(571,553,l),
(377,553,l),
(273,370,l),
(253,370,l),
(253,553,l),
(75,553,l),
(75,0,l)
);
},
{
closed = 1;
nodes = (
(344,217,o),
(344,187,qs),
(344,162,o),
(315,131,o),
(283,131,qs),
(253,131,l),
(253,239,l),
(276,239,ls),
(303,239,o)
);
}
);
width = 646;
}
);
note = uni0281;
unicode = 641;
}
{
glyphname = uni0282;
layers = (
{
layerId = m01;
shapes = (
{
closed = 1;
nodes = (
(462,282,o),
(399,327,o),
(351,346,qs),
(305,365,o),
(257,385,o),
(240,401,o),
(240,411,qs),
(240,434,o),
(287,434,qs),
(312,434,o),
(396,412,o),
(437,393,q),
(489,516,l),
(437,539,o),
(341,563,o),
(286,563,qs),
(183,563,o),
(58,481,o),
(58,400,qs),
(58,332,o),
(126,257,o),
(195,228,qs),
(242,209,o),
(293,187,o),
(313,169,o),
(313,157,qs),
(313,129,o),
(251,129,qs),
(220,129,o),
(112,150,o),
(59,174,q),
(59,-67,ls),
(59,-148,o),
(127,-240,o),
(207,-240,qs),
(233,-240,o),
(281,-232,o),
(297,-225,q),
(297,-94,l),
(284,-98,o),
(264,-103,o),
(250,-103,qs),
(234,-103,o),
(217,-89,o),
(217,-70,qs),
(217,-8,l),
(227,-9,o),
(246,-10,o),
(259,-10,qs),
(343,-10,o),
(446,36,o),
(493,118,o),
(493,170,qs),
(493,219,o)
);
}
);
width = 533;
}
);
note = uni0282;
unicode = 642;
}
{
glyphname = uni0283;
layers = (
{
layerId = m01;
shapes = (
{
closed = 1;
nodes = (
(75,685,o),
(75,586,qs),
(75,-49,ls),
(75,-65,o),
(52,-87,o),
(33,-87,qs),
(17,-87,o),
(-5,-81,o),
(-20,-77,q),
(-20,-222,l),
(-2,-232,o),
(52,-240,o),
(78,-240,qs),
(152,-240,o),
(235,-186,o),
(269,-98,o),
(269,-48,qs),
(269,578,ls),
(269,595,o),
(293,617,o),
(309,617,qs),
(329,617,o),
(361,609,o),
(368,606,q),
(368,751,l),
(358,756,o),
(302,770,o),
(266,770,qs),
(171,770,o)
);
}
);
width = 342;
}
);
note = uni0283;
unicode = 643;
}
{
glyphname = uni0285;
layers = (
{
layerId = m01;
shapes = (
{
closed = 1;
nodes = (
(345,-232,o),
(362,-222,q),
(362,-77,l),
(348,-81,o),
(326,-87,o),
(310,-87,qs),
(291,-87,o),
(268,-65,o),
(268,-49,qs),
(268,372,ls),
(268,472,o),
(172,560,o),
(76,560,qs),
(40,560,o),
(-14,546,o),
(-25,541,q),
(-25,396,l),
(-18,399,o),
(13,408,o),
(33,408,qs),
(50,408,o),
(73,386,o),
(73,368,qs),
(73,-51,ls),
(73,-102,o),
(107,-188,o),
(191,-240,o),
(264,-240,qs),
(291,-240,o)
);
}
);
width = 342;
}
);
note = uni0285;
unicode = 645;
}
{
glyphname = uni0286;
layers = (
{
layerId = m01;
shapes = (
{
closed = 1;
nodes = (
(259,-150,o),
(268,-80,q),
(334,-80,l),
(334,14,l),
(269,14,l),
(269,578,ls),
(269,595,o),
(293,617,o),
(309,617,qs),
(329,617,o),
(361,609,o),
(368,606,q),
(368,751,l),
(358,756,o),
(302,770,o),
(266,770,qs),
(171,770,o),
(75,685,o),
(75,586,qs),
(75,14,l),
(62,14,ls),
(-19,14,o),
(-90,-54,o),
(-90,-110,qs),
(-90,-143,o),
(-58,-203,o),
(12,-240,o),
(67,-240,qs),
(162,-240,o)
);
},
{
closed = 1;
nodes = (
(18,-126,o),
(18,-113,qs),
(18,-80,o),
(63,-80,qs),
(75,-80,l),
(75,-104,ls),
(75,-119,o),
(61,-140,o),
(44,-140,qs),
(34,-140,o)
);
}
);
width = 342;
}
);
note = uni0286;
unicode = 646;
}
{
glyphname = uni0287;
layers = (
{
layerId = m01;
shapes = (
{
closed = 1;
nodes = (
(175,358,qs),
(175,143,l),
(39,143,l),
(39,0,l),
(175,0,l),
(175,-111,l),
(300,-111,l),
(349,5,l),
(434,65,l),
(434,143,l),
(367,143,l),
(367,371,ls),
(367,446,o),
(322,529,o),
(240,563,o),
(186,563,qs),
(132,563,o),
(63,546,o),
(31,532,q),
(31,393,l),
(54,401,o),
(98,412,o),
(123,412,qs),
(175,412,o)
);
}
);
width = 460;
}
);
note = uni0287;
unicode = 647;
}
{
glyphname = uni0288;
layers = (
{
layerId = m01;
shapes = (
{
closed = 1;
nodes = (
(289,-69,o),
(289,-51,qs),
(289,409,l),
(441,409,l),
(441,553,l),
(289,553,l),
(289,663,l),
(163,663,l),
(111,551,l),
(28,488,l),
(28,409,l),
(95,409,l),
(95,-48,ls),
(95,-126,o),
(147,-209,o),
(232,-240,o),
(282,-240,qs),
(332,-240,o),
(417,-222,o),
(444,-209,q),
(444,-66,l),
(418,-75,o),
(369,-87,o),
(344,-87,qs),
(322,-87,o)
);
}
);
width = 479;
}
);
note = uni0288;
unicode = 648;
}
{
glyphname = uni0289;
layers = (
{
layerId = m01;
shapes = (
{
closed = 1;
nodes = (
(65,193,ls),
(65,122,o),
(116,32,o),
(204,-10,o),
(258,-10,qs),
(309,-10,o),
(399,27,o),
(425,69,q),
(436,69,l),
(460,0,l),
(604,0,l),
(604,232,l),
(677,232,l),
(677,356,l),
(604,356,l),
(604,553,l),
(413,553,l),
(413,356,l),
(256,356,l),
(256,553,l),
(65,553,l),
(65,356,l),
(0,356,l),
(0,232,l),
(65,232,l)
);
},
{
closed = 1;
nodes = (
(259,187,o),
(256,232,q),
(408,232,l),
(401,187,o),
(361,141,o),
(322,141,qs),
(290,141,o)
);
}
);
width = 670;
}
);
note = uni0289;
unicode = 649;
}
{
glyphname = uni028A;
layers = (
{
layerId = m01;
shapes = (
{
closed = 1;
nodes = (
(566,49,o),
(636,159,o),
(636,233,qs),
(636,301,o),
(585,393,o),
(553,412,q),
(656,412,l),
(656,554,l),
(373,554,l),
(373,411,l),
(417,390,o),
(460,313,o),
(460,260,qs),
(460,195,o),
(395,136,o),
(342,136,qs),
(290,136,o),
(225,196,o),
(225,260,qs),
(225,311,o),
(268,390,o),
(314,411,q),
(314,554,l),
(28,554,l),
(28,412,l),
(137,412,l),
(119,400,o),
(78,353,o),
(49,279,o),
(49,226,qs),
(49,157,o),
(118,50,o),
(249,-11,o),
(342,-11,qs),
(434,-11,o)
);
}
);
width = 684;
}
);
note = uni028A;
unicode = 650;
}
{
glyphname = uni028B;
layers = (
{
layerId = m01;
shapes = (
{
closed = 1;
nodes = (
(380,551,o),
(359,541,q),
(359,396,l),
(374,401,o),
(398,408,o),
(417,408,qs),
(436,408,o),
(456,382,o),
(456,367,qs),
(456,269,ls),
(456,202,o),
(415,144,o),
(368,144,qs),
(311,144,o),
(266,202,o),
(266,269,qs),
(266,553,l),
(71,553,l),
(71,276,ls),
(71,221,o),
(94,118,o),
(156,37,o),
(269,-10,o),
(359,-10,qs),
(447,-10,o),
(560,37,o),
(624,118,o),
(650,221,o),
(650,276,qs),
(650,369,ls),
(650,420,o),
(619,507,o),
(543,560,o),
(475,560,qs),
(447,560,o)
);
}
);
width = 701;
}
);
note = uni028B;
unicode = 651;
}
{
glyphname = uni028C;
layers = (
{
layerId = m01;
shapes = (
{
closed = 1;
nodes = (
(0,0,l),
(199,0,l),
(297,328,ls),
(299,336,o),
(306,367,o),
(306,383,q),
(309,383,l),
(309,367,o),
(317,332,o),
(318,327,qs),
(412,0,l),
(611,0,l),
(400,553,l),
(211,553,l)
);
}
);
width = 611;
}
);
note = uni028C;
unicode = 652;
}
{
glyphname = uni028D;
layers = (
{
layerId = m01;
shapes = (
{
closed = 1;
nodes = (
(164,553,l),
(12,0,l),
(196,0,l),
(245,212,ls),
(250,234,o),
(260,298,o),
(268,367,o),
(270,394,q),
(273,394,l),
(276,368,o),
(286,304,o),
(297,245,o),
(301,226,qs),
(348,0,l),
(559,0,l),
(610,223,ls),
(612,230,o),
(619,270,o),
(628,322,o),
(636,374,o),
(637,394,q),
(640,394,l),
(642,368,o),
(650,301,o),
(660,236,o),
(665,212,qs),
(710,0,l),
(898,0,l),
(747,553,l),
(546,553,l),
(490,318,ls),
(484,290,o),
(470,221,o),
(460,161,o),
(458,146,q),
(455,146,l),
(453,161,o),
(444,220,o),
(432,286,o),
(426,311,qs),
(368,553,l)
);
}
);
width = 910;
}
);
note = uni028D;
unicode = 653;
}
{
glyphname = uni028E;
layers = (
{
layerId = m01;
shapes = (
{
closed = 1;
nodes = (
(395,550,ls),
(409,586,o),
(454,641,o),
(501,641,qs),
(518,641,o),
(550,637,o),
(560,635,q),
(560,785,l),
(546,788,o),
(508,793,o),
(482,793,qs),
(410,793,o),
(311,747,o),
(245,656,o),
(219,588,qs),
(0,0,l),
(195,0,l),
(291,318,ls),
(294,328,o),
(301,358,o),
(303,377,q),
(307,377,l),
(308,361,o),
(313,328,o),
(316,317,qs),
(410,0,l),
(611,0,l),
(393,545,l)
);
}
);
width = 610;
}
);
note = uni028E;
unicode = 654;
}
{
glyphname = uni028F;
layers = (
{
layerId = m01;
shapes = (
{
closed = 1;
nodes = (
(292,371,l),
(212,553,l),
(19,553,l),
(202,211,l),
(202,0,l),
(381,0,l),
(381,217,l),
(565,553,l),
(373,553,l)
);
}
);
width = 583;
}
);
note = uni028F;
unicode = 655;
}
{
glyphname = uni0290;
layers = (
{
layerId = m01;
shapes = (
{
closed = 1;
nodes = (
(552,-233,o),
(571,-226,q),
(571,-94,l),
(561,-97,o),
(536,-102,o),
(522,-102,qs),
(500,-102,o),
(476,-78,o),
(476,-49,qs),
(476,146,l),
(249,146,l),
(463,426,l),
(463,553,l),
(33,553,l),
(33,407,l),
(246,407,l),
(21,114,l),
(21,0,l),
(316,0,l),
(316,-60,ls),
(316,-157,o),
(402,-240,o),
(471,-240,qs),
(499,-240,o)
);
}
);
width = 500;
}
);
note = uni0290;
unicode = 656;
}
{
glyphname = uni0291;
layers = (
{
layerId = m01;
shapes = (
{
closed = 1;
nodes = (
(307,-62,o),
(323,-22,o),
(333,0,q),
(391,0,ls),
(447,0,o),
(548,29,o),
(611,99,o),
(611,160,qs),
(611,218,o),
(544,287,o),
(478,287,qs),
(413,287,o),
(321,213,o),
(287,146,q),
(246,146,l),
(469,436,l),
(469,553,l),
(33,553,l),
(33,407,l),
(246,407,l),
(21,114,l),
(21,0,l),
(225,0,l),
(220,-11,o),
(207,-40,o),
(201,-54,q),
(297,-88,l)
);
},
{
closed = 1;
nodes = (
(413,167,o),
(445,193,o),
(465,193,qs),
(480,193,o),
(493,180,o),
(493,171,qs),
(493,158,o),
(465,146,o),
(446,146,qs),
(405,146,l)
);
}
);
width = 621;
}
);
note = uni0291;
unicode = 657;
}
{
glyphname = uni0293;
layers = (
{
layerId = m01;
shapes = (
{
closed = 1;
nodes = (
(392,-220,o),
(417,-208,q),
(422,-214,o),
(445,-245,o),
(449,-252,q),
(539,-192,l),
(532,-182,o),
(512,-160,o),
(503,-150,q),
(520,-137,o),
(561,-85,o),
(590,-8,o),
(590,41,qs),
(590,140,o),
(472,265,o),
(365,277,q),
(570,428,l),
(570,553,l),
(57,553,l),
(57,407,l),
(323,407,l),
(158,279,l),
(158,153,l),
(203,153,ls),
(276,153,o),
(361,112,o),
(398,51,o),
(398,20,qs),
(398,7,o),
(394,-14,o),
(392,-21,q),
(359,20,o),
(260,77,o),
(186,77,qs),
(107,77,o),
(9,0,o),
(9,-71,qs),
(9,-124,o),
(67,-200,o),
(168,-240,o),
(234,-240,qs),
(296,-240,o)
);
},
{
closed = 1;
nodes = (
(143,-87,o),
(143,-62,qs),
(143,-26,o),
(196,-26,qs),
(231,-26,o),
(292,-61,o),
(320,-95,q),
(307,-102,o),
(261,-111,o),
(238,-111,qs),
(198,-111,o)
);
}
);
width = 635;
}
);
note = uni0293;
unicode = 659;
}
{
glyphname = uni0295;
layers = (
{
layerId = m01;
shapes = (
{
closed = 1;
nodes = (
(83,706,o),
(21,609,o),
(21,550,qs),
(21,499,o),
(53,411,o),
(131,333,o),
(199,296,q),
(199,0,l),
(396,0,l),
(396,376,l),
(337,397,o),
(266,444,o),
(230,490,o),
(218,529,o),
(218,542,qs),
(218,570,o),
(259,610,o),
(295,610,qs),
(325,610,o),
(384,591,o),
(431,568,o),
(443,561,q),
(512,699,l),
(457,729,o),
(342,765,o),
(275,765,qs),
(197,765,o)
);
}
);
width = 511;
}
);
note = uni0295;
unicode = 661;
}
{
glyphname = uni0296;
layers = (
{
layerId = m01;
shapes = (
{
closed = 1;
nodes = (
(424,52,o),
(490,154,o),
(490,213,qs),
(490,289,o),
(414,410,o),
(312,460,q),
(312,758,l),
(115,758,l),
(115,379,l),
(174,358,o),
(245,312,o),
(281,266,o),
(293,227,o),
(293,214,qs),
(293,186,o),
(245,145,o),
(216,145,qs),
(186,145,o),
(127,164,o),
(81,188,o),
(68,194,q),
(-1,56,l),
(49,26,o),
(154,-10,o),
(221,-10,qs),
(303,-10,o)
);
}
);
width = 511;
}
);
note = uni0296;
unicode = 662;
}
{
glyphname = uni0297;
layers = (
{
layerId = m01;
shapes = (
{
closed = 1;
nodes = (
(442,-218,o),
(480,-192,q),
(480,-28,l),
(444,-55,o),
(383,-85,o),
(342,-85,qs),
(287,-85,o),
(237,37,o),
(237,151,qs),
(237,270,o),
(284,409,o),
(339,409,qs),
(371,409,o),
(414,388,o),
(444,372,q),
(502,520,l),
(472,537,o),
(381,563,o),
(315,563,qs),
(234,563,o),
(110,474,o),
(39,291,o),
(39,149,qs),
(39,-50,o),
(170,-240,o),
(301,-240,qs),
(349,-240,o)
);
}
);
width = 532;
}
);
note = uni0297;
unicode = 663;
}
{
glyphname = uni0299;
layers = (
{
layerId = m01;
shapes = (
{
closed = 1;
nodes = (
(422,0,o),
(530,95,o),
(530,168,qs),
(530,206,o),
(500,254,o),
(456,281,o),
(435,287,q),
(435,291,l),
(454,297,o),
(494,325,o),
(521,374,o),
(521,410,qs),
(521,454,o),
(478,518,o),
(376,553,o),
(289,553,qs),
(75,553,l),
(75,0,l),
(314,0,ls)
);
},
{
closed = 1;
nodes = (
(249,421,l),
(292,421,ls),
(318,421,o),
(342,397,o),
(342,383,qs),
(342,364,o),
(321,339,o),
(293,339,qs),
(249,339,l)
);
},
{
closed = 1;
nodes = (
(249,222,l),
(299,222,ls),
(329,222,o),
(351,192,o),
(351,176,qs),
(351,158,o),
(328,132,o),
(302,132,qs),
(249,132,l)
);
}
);
width = 583;
}
);
note = uni0299;
unicode = 665;
}
{
glyphname = uni029A;
layers = (
{
layerId = m01;
shapes = (
{
closed = 1;
nodes = (
(46,478,o),
(46,407,qs),
(46,356,o),
(112,294,o),
(159,285,q),
(159,281,l),
(129,277,o),
(71,249,o),
(33,198,o),
(33,158,qs),
(33,80,o),
(159,-10,o),
(296,-10,qs),
(389,-10,o),
(533,50,o),
(616,178,o),
(616,279,qs),
(616,413,o),
(458,563,o),
(300,563,qs),
(173,563,o)
);
},
{
closed = 1;
nodes = (
(426,349,o),
(426,275,qs),
(426,215,o),
(392,155,o),
(336,135,o),
(303,135,qs),
(271,135,o),
(228,160,o),
(228,182,qs),
(228,202,o),
(271,220,o),
(321,220,qs),
(348,220,l),
(348,339,l),
(316,339,ls),
(267,339,o),
(224,358,o),
(224,383,qs),
(224,403,o),
(263,427,o),
(300,427,qs),
(368,427,o)
);
}
);
width = 655;
}
);
note = uni029A;
unicode = 666;
}
{
glyphname = uni029B;
layers = (
{
layerId = m01;
shapes = (
{
closed = 1;
nodes = (
(441,729,o),
(394,651,o),
(394,586,qs),
(394,559,l),
(382,560,o),
(357,562,o),
(345,562,qs),
(240,562,o),
(106,483,o),
(41,352,o),
(41,273,qs),
(41,142,o),
(184,-11,o),
(332,-11,qs),
(409,-11,o),
(515,21,o),
(557,37,q),
(557,326,l),
(282,326,l),
(282,201,l),
(371,201,l),
(371,148,l),
(358,145,o),
(344,143,o),
(333,143,qs),
(281,143,o),
(238,216,o),
(238,277,qs),
(238,327,o),
(277,384,o),
(332,408,o),
(357,408,qs),
(398,408,o),
(460,386,o),
(490,369,q),
(547,501,l),
(547,577,ls),
(547,600,o),
(569,628,o),
(591,628,qs),
(608,628,o),
(637,621,o),
(644,618,q),
(644,753,l),
(633,757,o),
(596,764,o),
(573,764,qs),
(522,764,o)
);
}
);
width = 610;
}
);
note = uni029B;
unicode = 667;
}
{
glyphname = uni029C;
layers = (
{
layerId = m01;
shapes = (
{
closed = 1;
nodes = (
(256,214,l),
(396,214,l),
(396,0,l),
(575,0,l),
(575,553,l),
(396,553,l),
(396,357,l),
(256,357,l),
(256,553,l),
(77,553,l),
(77,0,l),
(256,0,l)
);
}
);
width = 652;
}
);
note = uni029C;
unicode = 668;
}
{
glyphname = uni029D;
layers = (
{
layerId = m01;
shapes = (
{
closed = 1;
nodes = (
(268,642,o),
(268,691,qs),
(268,741,o),
(209,775,o),
(168,775,qs),
(127,775,o),
(68,741,o),
(68,691,qs),
(68,642,o),
(127,607,o),
(168,607,qs),
(209,607,o)
);
},
{
closed = 1;
nodes = (
(214,-190,o),
(254,-116,o),
(260,-80,q),
(326,-80,l),
(326,0,l),
(262,0,l),
(262,552,l),
(73,552,l),
(73,0,l),
(57,0,ls),
(-17,0,o),
(-88,-70,o),
(-88,-124,qs),
(-88,-151,o),
(-58,-205,o),
(7,-240,o),
(61,-240,qs),
(131,-240,o)
);
},
{
closed = 1;
nodes = (
(6,-134,o),
(6,-119,qs),
(6,-103,o),
(30,-80,o),
(59,-80,qs),
(73,-80,l),
(73,-110,ls),
(73,-132,o),
(53,-152,o),
(36,-152,qs),
(25,-152,o)
);
}
);
width = 336;
}
);
note = uni029D;
unicode = 669;
}
{
glyphname = uni029E;
layers = (
{
layerId = m01;
shapes = (
{
closed = 1;
nodes = (
(593,-207,l),
(593,553,l),
(401,553,l),
(401,402,l),
(339,355,l),
(218,553,l),
(0,553,l),
(204,235,l),
(12,0,l),
(225,0,l),
(349,156,ls),
(363,173,o),
(397,225,o),
(408,242,q),
(412,242,l),
(407,208,o),
(401,126,o),
(401,92,qs),
(401,-207,l)
);
}
);
width = 659;
}
);
note = uni029E;
unicode = 670;
}
{
glyphname = uni029F;
layers = (
{
layerId = m01;
shapes = (
{
closed = 1;
nodes = (
(461,141,l),
(258,141,l),
(258,553,l),
(80,553,l),
(80,0,l),
(461,0,l)
);
}
);
width = 501;
}
);
note = uni029F;
unicode = 671;
}
{
glyphname = uni02A0;
layers = (
{
layerId = m01;
shapes = (
{
closed = 1;
nodes = (
(577,-240,l),
(577,570,ls),
(577,620,o),
(622,620,qs),
(642,620,o),
(676,614,o),
(685,611,q),
(685,756,l),
(671,761,o),
(606,770,o),
(565,770,qs),
(514,770,o),
(433,734,o),
(385,658,o),
(385,598,qs),
(385,582,ls),
(385,557,o),
(389,507,o),
(393,483,q),
(389,483,l),
(367,518,o),
(301,563,o),
(245,563,qs),
(155,563,o),
(42,418,o),
(42,276,qs),
(42,136,o),
(153,-10,o),
(238,-10,qs),
(295,-10,o),
(366,37,o),
(385,70,q),
(391,70,l),
(385,30,o),
(385,-11,qs),
(385,-240,l)
);
},
{
closed = 1;
nodes = (
(235,204,o),
(235,273,qs),
(235,343,o),
(280,409,o),
(314,409,qs),
(364,409,o),
(401,339,o),
(401,274,qs),
(401,259,ls),
(400,199,o),
(362,141,o),
(316,141,qs),
(280,141,o)
);
}
);
width = 650;
}
);
note = uni02A0;
unicode = 672;
}
{
glyphname = uni02A1;
layers = (
{
layerId = m01;
shapes = (
{
closed = 1;
nodes = (
(54,729,o),
(-1,699,q),
(68,561,l),
(81,568,o),
(127,591,o),
(186,610,o),
(216,610,qs),
(245,610,o),
(293,570,o),
(293,542,qs),
(293,529,o),
(281,490,o),
(245,444,o),
(174,397,o),
(115,376,q),
(115,253,l),
(26,253,l),
(26,131,l),
(115,131,l),
(115,0,l),
(312,0,l),
(312,131,l),
(425,131,l),
(425,253,l),
(312,253,l),
(312,296,l),
(380,333,o),
(458,411,o),
(490,499,o),
(490,550,qs),
(490,609,o),
(428,706,o),
(315,765,o),
(236,765,qs),
(169,765,o)
);
}
);
width = 511;
}
);
note = uni02A1;
unicode = 673;
}
{
glyphname = uni02A2;
layers = (
{
layerId = m01;
shapes = (
{
closed = 1;
nodes = (
(83,703,o),
(21,601,o),
(21,542,qs),
(21,466,o),
(97,346,o),
(199,296,q),
(199,253,l),
(89,253,l),
(89,131,l),
(199,131,l),
(199,0,l),
(396,0,l),
(396,131,l),
(487,131,l),
(487,253,l),
(396,253,l),
(396,376,l),
(337,397,o),
(266,444,o),
(230,490,o),
(218,529,o),
(218,542,qs),
(218,570,o),
(266,610,o),
(295,610,qs),
(325,610,o),
(384,591,o),
(431,568,o),
(443,561,q),
(512,699,l),
(457,729,o),
(342,765,o),
(275,765,qs),
(197,765,o)
);
}
);
width = 511;
}
);
note = uni02A2;
unicode = 674;
}
{
glyphname = uni02A3;
layers = (
{
layerId = m01;
shapes = (
{
closed = 1;
nodes = (
(365,37,o),
(385,70,q),
(392,70,l),
(433,0,l),
(1022,0,l),
(1022,146,l),
(792,146,l),
(1011,435,l),
(1011,553,l),
(577,553,l),
(577,760,l),
(385,760,l),
(385,612,ls),
(385,574,o),
(392,501,o),
(394,482,q),
(390,482,l),
(368,517,o),
(301,563,o),
(245,563,qs),
(155,563,o),
(42,418,o),
(42,276,qs),
(42,136,o),
(153,-10,o),
(238,-10,qs),
(295,-10,o)
);
},
{
closed = 1;
nodes = (
(235,204,o),
(235,273,qs),
(235,343,o),
(280,409,o),
(314,409,qs),
(364,409,o),
(401,339,o),
(401,274,qs),
(401,259,ls),
(400,199,o),
(362,141,o),
(316,141,qs),
(280,141,o)
);
},
{
closed = 1;
nodes = (
(793,407,l),
(577,126,l),
(577,407,l)
);
}
);
width = 1047;
}
);
note = uni02A3;
unicode = 675;
}
{
glyphname = uni02A4;
layers = (
{
layerId = m01;
shapes = (
{
closed = 1;
nodes = (
(1018,-170,o),
(1086,-46,o),
(1086,35,qs),
(1086,125,o),
(972,246,o),
(861,256,q),
(1067,435,l),
(1067,553,l),
(577,553,l),
(577,760,l),
(385,760,l),
(385,612,ls),
(385,580,o),
(391,505,o),
(394,482,q),
(390,482,l),
(368,517,o),
(301,563,o),
(245,563,qs),
(155,563,o),
(42,418,o),
(42,276,qs),
(42,136,o),
(153,-10,o),
(238,-10,qs),
(295,-10,o),
(365,37,o),
(385,70,q),
(392,70,l),
(433,0,l),
(577,0,l),
(577,407,l),
(821,407,l),
(644,252,l),
(644,130,l),
(710,130,ls),
(788,130,o),
(866,100,o),
(892,50,o),
(892,20,qs),
(892,-25,o),
(828,-88,o),
(750,-88,qs),
(691,-88,o),
(575,-60,o),
(527,-38,q),
(527,-202,l),
(576,-220,o),
(681,-240,o),
(758,-240,qs),
(873,-240,o)
);
},
{
closed = 1;
nodes = (
(235,204,o),
(235,273,qs),
(235,343,o),
(280,409,o),
(314,409,qs),
(364,409,o),
(401,339,o),
(401,274,qs),
(401,259,ls),
(400,199,o),
(362,141,o),
(316,141,qs),
(280,141,o)
);
}
);
width = 1124;
}
);
note = uni02A4;
unicode = 676;
}
{
glyphname = uni02A5;
layers = (
{
layerId = m01;
shapes = (
{
closed = 1;
nodes = (
(851,-62,o),
(867,-22,o),
(877,0,q),
(935,0,ls),
(991,0,o),
(1092,29,o),
(1155,99,o),
(1155,160,qs),
(1155,218,o),
(1088,287,o),
(1022,287,qs),
(957,287,o),
(865,213,o),
(831,146,q),
(790,146,l),
(1013,436,l),
(1013,553,l),
(577,553,l),
(577,760,l),
(385,760,l),
(385,612,ls),
(385,580,o),
(391,505,o),
(394,482,q),
(390,482,l),
(368,517,o),
(301,563,o),
(245,563,qs),
(155,563,o),
(42,418,o),
(42,276,qs),
(42,136,o),
(153,-10,o),
(238,-10,qs),
(295,-10,o),
(365,37,o),
(385,70,q),
(392,70,l),
(433,0,l),
(769,0,l),
(764,-11,o),
(751,-40,o),
(745,-54,q),
(841,-88,l)
);
},
{
closed = 1;
nodes = (
(235,204,o),
(235,273,qs),
(235,343,o),
(280,409,o),
(314,409,qs),
(364,409,o),
(401,339,o),
(401,274,qs),
(401,259,ls),
(400,199,o),
(362,141,o),
(316,141,qs),
(280,141,o)
);
},
{
closed = 1;
nodes = (
(790,407,l),
(577,130,l),
(577,407,l)
);
},
{
closed = 1;
nodes = (
(957,167,o),
(989,193,o),
(1009,193,qs),
(1024,193,o),
(1037,180,o),
(1037,171,qs),
(1037,158,o),
(1009,146,o),
(990,146,qs),
(949,146,l)
);
}
);
width = 1165;
}
);
note = uni02A5;
unicode = 677;
}
{
glyphname = uni02A6;
layers = (
{
layerId = m01;
shapes = (
{
closed = 1;
nodes = (
(658,0,o),
(761,46,o),
(808,128,o),
(808,180,qs),
(808,245,o),
(738,317,o),
(666,346,qs),
(620,365,o),
(572,385,o),
(555,401,o),
(555,411,qs),
(555,434,o),
(602,434,qs),
(627,434,o),
(711,412,o),
(752,393,q),
(804,516,l),
(752,539,o),
(656,563,o),
(601,563,qs),
(576,563,o),
(529,558,o),
(509,553,q),
(289,553,l),
(289,663,l),
(163,663,l),
(111,551,l),
(28,488,l),
(28,409,l),
(95,409,l),
(95,197,ls),
(95,121,o),
(144,36,o),
(229,0,o),
(282,0,qs),
(574,0,ls)
);
},
{
closed = 1;
nodes = (
(319,141,o),
(289,168,o),
(289,188,qs),
(289,409,l),
(373,409,l),
(373,392,ls),
(373,330,o),
(441,258,o),
(510,233,qs),
(557,217,o),
(608,196,o),
(628,179,o),
(628,167,qs),
(628,141,o),
(566,141,qs),
(344,141,ls)
);
}
);
width = 848;
}
);
note = uni02A6;
unicode = 678;
}
{
glyphname = uni02A7;
layers = (
{
layerId = m01;
shapes = (
{
closed = 1;
nodes = (
(639,601,o),
(661,614,o),
(674,614,qs),
(694,614,o),
(726,606,o),
(733,603,q),
(733,748,l),
(723,753,o),
(667,767,o),
(631,767,qs),
(539,767,o),
(444,690,o),
(444,600,qs),
(444,553,l),
(289,553,l),
(289,663,l),
(163,663,l),
(111,551,l),
(28,488,l),
(28,409,l),
(95,409,l),
(95,182,ls),
(95,104,o),
(147,21,o),
(232,-10,o),
(282,-10,qs),
(332,-10,o),
(416,7,o),
(444,20,q),
(444,-64,ls),
(444,-72,o),
(424,-87,o),
(408,-87,qs),
(392,-87,o),
(371,-81,o),
(356,-77,q),
(356,-222,l),
(374,-232,o),
(428,-240,o),
(454,-240,qs),
(526,-240,o),
(606,-188,o),
(639,-106,o),
(639,-63,qs),
(639,592,ls)
);
},
{
closed = 1;
nodes = (
(289,161,o),
(289,179,qs),
(289,409,l),
(444,409,l),
(444,163,l),
(418,154,o),
(369,143,o),
(344,143,qs),
(322,143,o)
);
}
);
width = 703;
}
);
note = uni02A7;
unicode = 679;
}
{
glyphname = uni02A8;
layers = (
{
layerId = m01;
shapes = (
{
closed = 1;
nodes = (
(452,31,o),
(502,65,q),
(535,32,o),
(632,-10,o),
(711,-10,qs),
(774,-10,o),
(872,29,o),
(929,108,o),
(929,167,qs),
(929,229,o),
(853,306,o),
(772,306,qs),
(717,306,o),
(644,272,o),
(626,258,q),
(625,264,o),
(624,282,o),
(624,289,qs),
(624,409,o),
(730,409,qs),
(765,409,o),
(822,391,o),
(856,376,q),
(907,520,l),
(876,535,o),
(789,563,o),
(720,563,qs),
(634,563,o),
(501,500,o),
(426,372,o),
(426,274,qs),
(426,242,o),
(435,188,o),
(442,164,q),
(421,153,o),
(365,143,o),
(346,143,qs),
(321,143,o),
(289,160,o),
(289,183,qs),
(289,409,l),
(426,409,l),
(426,553,l),
(289,553,l),
(289,663,l),
(163,663,l),
(111,551,l),
(28,488,l),
(28,409,l),
(95,409,l),
(95,182,ls),
(95,108,o),
(142,24,o),
(224,-10,o),
(277,-10,qs),
(346,-10,o)
);
},
{
closed = 1;
nodes = (
(662,150,o),
(649,168,q),
(661,179,o),
(711,206,o),
(742,206,qs),
(765,206,o),
(795,186,o),
(795,166,qs),
(795,145,o),
(754,125,o),
(729,125,qs),
(700,125,o)
);
}
);
width = 966;
}
);
note = uni02A8;
unicode = 680;
}
{
glyphname = uni02A9;
layers = (
{
layerId = m01;
shapes = (
{
closed = 1;
nodes = (
(918,-184,o),
(957,-92,o),
(957,-39,qs),
(957,360,ls),
(957,433,o),
(906,522,o),
(818,563,o),
(762,563,qs),
(714,563,o),
(624,526,o),
(598,484,q),
(586,484,l),
(561,553,l),
(291,553,l),
(291,580,ls),
(291,592,o),
(314,613,o),
(332,613,qs),
(360,613,o),
(401,603,o),
(417,598,q),
(467,737,l),
(445,748,o),
(361,765,o),
(308,765,qs),
(247,765,o),
(152,737,o),
(97,662,o),
(97,590,qs),
(97,551,l),
(23,501,l),
(23,409,l),
(97,409,l),
(97,0,l),
(291,0,l),
(291,409,l),
(414,409,l),
(414,0,l),
(608,0,l),
(608,241,ls),
(608,319,o),
(642,410,o),
(700,410,qs),
(729,410,o),
(762,365,o),
(762,324,qs),
(762,-4,ls),
(762,-39,o),
(746,-74,o),
(722,-86,o),
(709,-86,qs),
(692,-86,o),
(667,-81,o),
(653,-77,q),
(653,-228,l),
(671,-233,o),
(729,-240,o),
(754,-240,qs),
(830,-240,o)
);
}
);
width = 1021;
}
);
note = uni02A9;
unicode = 681;
}
{
glyphname = uni02AA;
layers = (
{
layerId = m01;
shapes = (
{
closed = 1;
nodes = (
(722,84,o),
(722,179,qs),
(722,241,o),
(657,317,o),
(594,345,qs),
(550,364,o),
(514,389,o),
(507,403,o),
(507,406,qs),
(507,423,o),
(533,423,qs),
(559,423,o),
(621,399,o),
(661,379,q),
(718,515,l),
(670,539,o),
(578,563,o),
(524,563,qs),
(423,563,o),
(314,476,o),
(314,402,qs),
(314,357,o),
(335,292,o),
(388,242,o),
(435,220,qs),
(475,202,o),
(515,178,o),
(529,162,o),
(530,153,o),
(530,150,qs),
(530,139,o),
(501,128,o),
(462,128,qs),
(417,128,o),
(320,150,o),
(267,177,q),
(267,760,l),
(73,760,l),
(73,0,l),
(267,0,l),
(267,22,l),
(315,3,o),
(407,-10,o),
(462,-10,qs),
(599,-10,o)
);
}
);
width = 762;
}
);
note = uni02AA;
unicode = 682;
}
{
glyphname = uni02AB;
layers = (
{
layerId = m01;
shapes = (
{
closed = 1;
nodes = (
(708,146,l),
(478,146,l),
(697,435,l),
(697,553,l),
(257,553,l),
(257,760,l),
(66,760,l),
(66,0,l),
(708,0,l)
);
},
{
closed = 1;
nodes = (
(479,407,l),
(257,118,l),
(257,407,l)
);
}
);
width = 733;
}
);
note = uni02AB;
unicode = 683;
}
{
glyphname = uni02AC;
layers = (
{
layerId = m01;
shapes = (
{
closed = 1;
nodes = (
(382,510,l),
(341,714,l),
(212,714,l),
(165,511,l),
(111,714,l),
(-5,714,l),
(96,378,l),
(229,378,l),
(274,600,l),
(318,378,l),
(452,378,l),
(558,714,l),
(440,714,l)
);
},
{
closed = 1;
nodes = (
(382,132,l),
(341,336,l),
(212,336,l),
(165,133,l),
(112,336,l),
(-5,336,l),
(96,0,l),
(229,0,l),
(274,225,l),
(318,0,l),
(452,0,l),
(558,336,l),
(440,336,l)
);
}
);
width = 554;
}
);
note = uni02AC;
unicode = 684;
}
{
glyphname = uni02AD;
layers = (
{
layerId = m01;
shapes = (
{
closed = 1;
nodes = (
(206,461,l),
(206,582,l),
(400,582,l),
(400,461,l),
(538,461,l),
(538,714,l),
(68,714,l),
(68,461,l)
);
},
{
closed = 1;
nodes = (
(206,0,l),
(206,121,l),
(400,121,l),
(400,0,l),
(538,0,l),
(538,253,l),
(68,253,l),
(68,0,l)
);
}
);
width = 600;
}
);
note = uni02AD;
unicode = 685;
}
{
glyphname = uni02AE;
layers = (
{
layerId = m01;
shapes = (
{
closed = 1;
nodes = (
(-9,549,o),
(-20,546,q),
(-20,402,l),
(-12,405,o),
(13,413,o),
(32,413,qs),
(51,413,o),
(65,382,o),
(65,356,qs),
(65,192,ls),
(65,121,o),
(116,31,o),
(204,-11,o),
(258,-11,qs),
(320,-11,o),
(388,28,o),
(415,69,q),
(421,69,l),
(418,49,o),
(414,-1,o),
(414,-18,qs),
(414,-240,l),
(603,-240,l),
(603,552,l),
(414,552,l),
(414,308,ls),
(414,226,o),
(376,138,o),
(322,138,qs),
(286,138,o),
(255,194,o),
(255,249,qs),
(255,363,ls),
(255,432,o),
(224,520,o),
(146,562,o),
(74,562,qs),
(40,562,o)
);
}
);
width = 676;
}
);
note = uni02AE;
unicode = 686;
}
{
glyphname = uni02AF;
layers = (
{
layerId = m01;
shapes = (
{
closed = 1;
nodes = (
(-9,549,o),
(-20,546,q),
(-20,402,l),
(-12,405,o),
(13,413,o),
(32,413,qs),
(51,413,o),
(65,382,o),
(65,356,qs),
(65,192,ls),
(65,121,o),
(116,31,o),
(204,-11,o),
(258,-11,qs),
(320,-11,o),
(388,28,o),
(415,69,q),
(421,69,l),
(417,38,o),
(414,-16,o),
(414,-58,qs),
(414,-78,ls),
(414,-120,o),
(445,-194,o),
(528,-240,o),
(606,-240,qs),
(632,-240,o),
(689,-235,o),
(710,-226,q),
(710,-81,l),
(691,-86,o),
(669,-90,o),
(652,-90,qs),
(627,-90,o),
(603,-56,o),
(603,-34,qs),
(603,552,l),
(414,552,l),
(414,308,ls),
(414,226,o),
(376,138,o),
(322,138,qs),
(286,138,o),
(255,194,o),
(255,249,qs),
(255,363,ls),
(255,432,o),
(224,520,o),
(146,562,o),
(74,562,qs),
(40,562,o)
);
}
);
width = 676;
}
);
note = uni02AF;
unicode = 687;
}
{
glyphname = uni02B0;
layers = (
{
layerId = m01;
shapes = (
{
closed = 1;
nodes = (
(43,743,l),
(43,287,l),
(167,287,l),
(167,433,ls),
(167,482,o),
(193,535,o),
(226,535,qs),
(269,535,o),
(269,468,qs),
(269,287,l),
(394,287,l),
(394,503,ls),
(394,567,o),
(320,625,o),
(267,625,qs),
(234,625,o),
(185,604,o),
(168,578,q),
(162,578,l),
(163,591,o),
(167,641,o),
(167,678,qs),
(167,743,l)
);
}
);
width = 436;
}
);
note = uni02B0;
unicode = 688;
}
{
glyphname = uni02B1;
layers = (
{
layerId = m01;
shapes = (
{
closed = 1;
nodes = (
(167,287,l),
(167,419,ls),
(167,468,o),
(193,521,o),
(226,521,qs),
(269,521,o),
(269,454,qs),
(269,287,l),
(394,287,l),
(394,489,ls),
(394,554,o),
(320,611,o),
(267,611,qs),
(234,611,o),
(185,590,o),
(168,564,q),
(162,564,l),
(164,571,o),
(167,592,o),
(167,610,qs),
(167,633,ls),
(167,647,o),
(186,661,o),
(199,661,qs),
(212,661,o),
(227,658,o),
(231,657,q),
(231,737,l),
(214,745,o),
(171,745,qs),
(113,745,o),
(43,692,o),
(43,630,qs),
(43,287,l)
);
}
);
width = 436;
}
);
note = uni02B1;
unicode = 689;
}
